<svg xmlns="http://www.w3.org/2000/svg" width="1329" height="533" viewBox="0 0 1329 533">
  <g id="Grupo_1149010" data-name="Grupo 1149010" transform="translate(-135.5 -425)">
    <rect id="Rect치ngulo_408278" data-name="Rect치ngulo 408278" width="1328" height="533" transform="translate(136.046 425)" fill="#fef4ec"/>
    <path id="Uni칩n_1" data-name="Uni칩n 1" d="M-6549.954,199.741V175.624h234V0h20V175.624h400V73.393h20V175.624h400V0h20V175.624h234v24.117Z" transform="translate(6685.954 648.53)" fill="#ddd" stroke="rgba(0,0,0,0)" stroke-miterlimit="10" stroke-width="1"/>
    <g id="Grupo_1148898" data-name="Grupo 1148898" transform="translate(1.929 -16.068)">
      <path id="Trazado_986417" data-name="Trazado 986417" d="M570.88,94.245A94.245,94.245,0,1,1,476.635,0,94.245,94.245,0,0,1,570.88,94.245" transform="translate(-98.837 554.498)" fill="#ee70f7"/>
      <path id="Trazado_986418" data-name="Trazado 986418" d="M491.716,192.568a83.242,83.242,0,1,1,83.241-83.242,83.337,83.337,0,0,1-83.241,83.242m0-162.09a78.848,78.848,0,1,0,78.847,78.848,78.937,78.937,0,0,0-78.847-78.848" transform="translate(-113.918 539.417)" fill="#fff"/>
    </g>
    <g id="Grupo_1148897" data-name="Grupo 1148897" transform="translate(-25.226 -25.225)">
      <path id="Trazado_986419" data-name="Trazado 986419" d="M1729.961,246.846a95,95,0,1,1-95-95,95,95,0,0,1,95,95" transform="translate(-809.735 461.245)" fill="#fad3fc"/>
      <path id="Trazado_986420" data-name="Trazado 986420" d="M1650.2,345.748a83.909,83.909,0,1,1,83.908-83.909,84,84,0,0,1-83.908,83.909m0-163.388a79.479,79.479,0,1,0,79.479,79.479A79.569,79.569,0,0,0,1650.2,182.36" transform="translate(-824.872 446.251)" fill="#fff"/>
    </g>
    <g id="Grupo_1148899" data-name="Grupo 1148899" transform="translate(-51.898 -16.068)">
      <path id="Trazado_986421" data-name="Trazado 986421" d="M2886.023,94.245A94.245,94.245,0,1,1,2791.778,0a94.245,94.245,0,0,1,94.246,94.245" transform="translate(-1520.635 554.498)" fill="#fbe1fd"/>
      <path id="Trazado_986422" data-name="Trazado 986422" d="M2806.86,192.568a83.242,83.242,0,1,1,83.241-83.242,83.336,83.336,0,0,1-83.241,83.242m0-162.09a78.848,78.848,0,1,0,78.847,78.848,78.937,78.937,0,0,0-78.847-78.848" transform="translate(-1535.716 539.417)" fill="#fff"/>
    </g>
    <path id="Trazado_986897" data-name="Trazado 986897" d="M28.617,9.824H25.561V15H22.572V.605h6.27A5.107,5.107,0,0,1,32.3,1.719a4.314,4.314,0,0,1,1.289,3.447A4.418,4.418,0,0,1,32.3,8.77,5.677,5.677,0,0,1,28.617,9.824Zm1.406-3a2.082,2.082,0,0,0,.586-1.641,1.948,1.948,0,0,0-.591-1.6,2.564,2.564,0,0,0-1.655-.479h-2.8V7.344h2.8A2.45,2.45,0,0,0,30.023,6.826Zm10.947.1a2.308,2.308,0,0,0-2.256,1.094,4.255,4.255,0,0,0-.322,1.895V15h-2.8V4.355h2.656V6.211a5.884,5.884,0,0,1,1.123-1.455A3.057,3.057,0,0,1,41.4,4.1q.078,0,.132,0t.239.015V6.973q-.264-.029-.469-.039T40.971,6.924Zm11.543,4.951a3.531,3.531,0,0,1-.986,1.924A4.832,4.832,0,0,1,47.7,15.352a5.4,5.4,0,0,1-3.584-1.309,5.278,5.278,0,0,1-1.553-4.258,5.918,5.918,0,0,1,1.4-4.238A4.792,4.792,0,0,1,47.6,4.072a5.579,5.579,0,0,1,2.393.5,4.191,4.191,0,0,1,1.758,1.572,5.364,5.364,0,0,1,.811,2.2,14.191,14.191,0,0,1,.088,2.109H45.365A2.645,2.645,0,0,0,46.371,12.7a2.369,2.369,0,0,0,1.387.4,2,2,0,0,0,1.4-.488,2.319,2.319,0,0,0,.518-.732ZM49.76,8.613a2.423,2.423,0,0,0-.669-1.675A2.077,2.077,0,0,0,47.6,6.367a1.89,1.89,0,0,0-1.5.605,3.022,3.022,0,0,0-.669,1.641Zm13.975-.439H60.883a2.47,2.47,0,0,0-.4-1.074,1.679,1.679,0,0,0-1.455-.645,1.916,1.916,0,0,0-1.924,1.4,5.839,5.839,0,0,0-.273,1.973,5.368,5.368,0,0,0,.273,1.885,1.857,1.857,0,0,0,1.875,1.328,1.653,1.653,0,0,0,1.387-.527,2.625,2.625,0,0,0,.5-1.367h2.842a4.656,4.656,0,0,1-.918,2.4,4.462,4.462,0,0,1-3.877,1.826,4.535,4.535,0,0,1-3.779-1.523A6.164,6.164,0,0,1,53.92,9.893a6.255,6.255,0,0,1,1.338-4.268A4.657,4.657,0,0,1,58.949,4.1a5.558,5.558,0,0,1,3.276.9A4.179,4.179,0,0,1,63.734,8.174ZM68.51,4.355V15H65.688V4.355Zm0-3.838V3.086H65.688V.518ZM78.539,4.844A3.429,3.429,0,0,1,79.975,7.6H77.191a1.646,1.646,0,0,0-.3-.85,1.9,1.9,0,0,0-1.562-.566,2.245,2.245,0,0,0-1.294.283.815.815,0,0,0-.386.664.727.727,0,0,0,.41.693,17.756,17.756,0,0,0,2.9.771,5.327,5.327,0,0,1,2.49,1.182,2.683,2.683,0,0,1,.82,2,3.235,3.235,0,0,1-1.177,2.583,5.529,5.529,0,0,1-3.638,1,5.476,5.476,0,0,1-3.706-1.06,3.447,3.447,0,0,1-1.2-2.7h2.822a1.859,1.859,0,0,0,.381,1.055,2.575,2.575,0,0,0,1.914.557,2.918,2.918,0,0,0,1.3-.244.819.819,0,0,0,.093-1.445,15.891,15.891,0,0,0-2.9-.84,6.041,6.041,0,0,1-2.549-1.123,2.435,2.435,0,0,1-.742-1.914A3.32,3.32,0,0,1,72.03,5.112a4.648,4.648,0,0,1,3.257-1.06A6.03,6.03,0,0,1,78.539,4.844Zm6.65-.488V15H82.367V4.355Zm0-3.838V3.086H82.367V.518ZM96.762,5.7A6.212,6.212,0,0,1,98.109,9.7a6.171,6.171,0,0,1-1.348,4.009,5.86,5.86,0,0,1-8.184,0A6.171,6.171,0,0,1,87.23,9.7,6.212,6.212,0,0,1,88.578,5.7a5.8,5.8,0,0,1,8.184,0Zm-4.1.664a2.224,2.224,0,0,0-1.88.864A4,4,0,0,0,90.121,9.7a4.021,4.021,0,0,0,.659,2.471,2.462,2.462,0,0,0,3.755,0A4.043,4.043,0,0,0,95.189,9.7a4.021,4.021,0,0,0-.654-2.466A2.211,2.211,0,0,0,92.66,6.367ZM91.02,2.92,92.895,0H96L93.031,2.92Zm14.092,3.5a1.938,1.938,0,0,0-1.943,1.2,4.126,4.126,0,0,0-.273,1.621V15h-2.773V4.375h2.686V5.928a4.725,4.725,0,0,1,1.016-1.182A3.53,3.53,0,0,1,106,4.1a4.109,4.109,0,0,1,2.7.864,3.514,3.514,0,0,1,1.05,2.866V15H106.9V8.525a2.954,2.954,0,0,0-.225-1.289A1.58,1.58,0,0,0,105.111,6.416Z" transform="translate(314.046 636)" fill="#212429"/>
    <path id="Trazado_986898" data-name="Trazado 986898" d="M30.854,8.711H23.861v3.7H31.83V15H20.922V.605H31.479V3.154H23.861V6.211h6.992ZM37.25,15H34.477V6.416H32.924V4.453h1.523V3.77A3.67,3.67,0,0,1,35.2,1.24,3.6,3.6,0,0,1,37.943.459q.254,0,.518.02l.547.039V2.783q-.2-.01-.381-.015t-.449,0q-.654,0-.8.361a3.022,3.022,0,0,0-.127,1.133v.2h1.826V6.416H37.25ZM43.5,4.4V15H40.727V4.4ZM40.727,3.057V.518h2.725V3.057ZM55.375,8.174H52.523a2.47,2.47,0,0,0-.4-1.074,1.679,1.679,0,0,0-1.455-.645,1.916,1.916,0,0,0-1.924,1.4,5.839,5.839,0,0,0-.273,1.973,5.368,5.368,0,0,0,.273,1.885,1.857,1.857,0,0,0,1.875,1.328,1.653,1.653,0,0,0,1.387-.527,2.625,2.625,0,0,0,.5-1.367h2.842a4.656,4.656,0,0,1-.918,2.4,4.462,4.462,0,0,1-3.877,1.826,4.535,4.535,0,0,1-3.779-1.523,6.164,6.164,0,0,1-1.211-3.955A6.255,6.255,0,0,1,46.9,5.625,4.657,4.657,0,0,1,50.59,4.1a5.558,5.558,0,0,1,3.276.9A4.179,4.179,0,0,1,55.375,8.174ZM60.15,4.355V15H57.328V4.355Zm0-3.838V3.086H57.328V.518ZM71.957,11.875a3.531,3.531,0,0,1-.986,1.924,4.832,4.832,0,0,1-3.828,1.553,5.4,5.4,0,0,1-3.584-1.309,5.278,5.278,0,0,1-1.553-4.258,5.918,5.918,0,0,1,1.4-4.238,4.792,4.792,0,0,1,3.638-1.475,5.579,5.579,0,0,1,2.393.5A4.191,4.191,0,0,1,71.2,6.143a5.364,5.364,0,0,1,.811,2.2,14.19,14.19,0,0,1,.088,2.109H64.809A2.645,2.645,0,0,0,65.814,12.7a2.369,2.369,0,0,0,1.387.4,2,2,0,0,0,1.4-.488,2.319,2.319,0,0,0,.518-.732ZM69.2,8.613a2.423,2.423,0,0,0-.669-1.675,2.077,2.077,0,0,0-1.489-.571,1.89,1.89,0,0,0-1.5.605,3.022,3.022,0,0,0-.669,1.641Zm9.775-2.2a1.938,1.938,0,0,0-1.943,1.2,4.126,4.126,0,0,0-.273,1.621V15H73.988V4.375h2.686V5.928a4.725,4.725,0,0,1,1.016-1.182A3.53,3.53,0,0,1,79.867,4.1a4.109,4.109,0,0,1,2.7.864,3.514,3.514,0,0,1,1.05,2.866V15H80.766V8.525a2.954,2.954,0,0,0-.225-1.289A1.58,1.58,0,0,0,78.979,6.416ZM95.395,8.174H92.543a2.47,2.47,0,0,0-.4-1.074,1.679,1.679,0,0,0-1.455-.645,1.916,1.916,0,0,0-1.924,1.4,5.839,5.839,0,0,0-.273,1.973,5.369,5.369,0,0,0,.273,1.885,1.857,1.857,0,0,0,1.875,1.328,1.653,1.653,0,0,0,1.387-.527,2.625,2.625,0,0,0,.5-1.367h2.842a4.656,4.656,0,0,1-.918,2.4,4.462,4.462,0,0,1-3.877,1.826,4.535,4.535,0,0,1-3.779-1.523A6.165,6.165,0,0,1,85.58,9.893a6.255,6.255,0,0,1,1.338-4.268A4.657,4.657,0,0,1,90.609,4.1a5.558,5.558,0,0,1,3.276.9A4.179,4.179,0,0,1,95.395,8.174Zm4.775-3.818V15H97.348V4.355Zm0-3.838V3.086H97.348V.518Zm3.1,4.99A4.545,4.545,0,0,1,107.055,4.1a6.732,6.732,0,0,1,3.105.693,2.662,2.662,0,0,1,1.357,2.617v4.883q0,.508.02,1.23a1.547,1.547,0,0,0,.166.742,1,1,0,0,0,.41.322V15h-3.027a3.1,3.1,0,0,1-.176-.605q-.049-.283-.078-.645a5.718,5.718,0,0,1-1.328,1.064,4,4,0,0,1-2.031.518,3.492,3.492,0,0,1-2.388-.825,2.943,2.943,0,0,1-.942-2.339,3.036,3.036,0,0,1,1.514-2.842,6.721,6.721,0,0,1,2.441-.684l.947-.117a4.344,4.344,0,0,0,1.1-.244.837.837,0,0,0,.6-.791.939.939,0,0,0-.454-.9,2.837,2.837,0,0,0-1.333-.249,1.737,1.737,0,0,0-1.4.488,2.029,2.029,0,0,0-.391.977h-2.686A4.084,4.084,0,0,1,103.266,5.508Zm2.07,7.48a1.454,1.454,0,0,0,.957.322,2.835,2.835,0,0,0,1.655-.527,2.249,2.249,0,0,0,.786-1.924V9.824a3.024,3.024,0,0,1-.532.269,4.451,4.451,0,0,1-.737.19l-.625.117a4.036,4.036,0,0,0-1.26.381,1.277,1.277,0,0,0-.645,1.182A1.222,1.222,0,0,0,105.336,12.988Z" transform="translate(734.046 679)" fill="#212429"/>
    <path id="Trazado_986899" data-name="Trazado 986899" d="M18.127,8.711H11.135v3.7H19.1V15H8.2V.605H18.752V3.154H11.135V6.211h6.992Zm10.43-3.867A3.429,3.429,0,0,1,29.992,7.6H27.209a1.646,1.646,0,0,0-.3-.85,1.9,1.9,0,0,0-1.562-.566,2.245,2.245,0,0,0-1.294.283.815.815,0,0,0-.386.664.727.727,0,0,0,.41.693,17.756,17.756,0,0,0,2.9.771,5.327,5.327,0,0,1,2.49,1.182,2.683,2.683,0,0,1,.82,2,3.235,3.235,0,0,1-1.177,2.583,5.529,5.529,0,0,1-3.638,1,5.476,5.476,0,0,1-3.706-1.06,3.447,3.447,0,0,1-1.2-2.7h2.822a1.859,1.859,0,0,0,.381,1.055,2.575,2.575,0,0,0,1.914.557,2.918,2.918,0,0,0,1.3-.244.819.819,0,0,0,.093-1.445,15.891,15.891,0,0,0-2.9-.84,6.041,6.041,0,0,1-2.549-1.123,2.435,2.435,0,0,1-.742-1.914,3.32,3.32,0,0,1,1.157-2.534A4.648,4.648,0,0,1,25.3,4.053,6.03,6.03,0,0,1,28.557,4.844Zm13,3.33H38.7A2.47,2.47,0,0,0,38.3,7.1a1.679,1.679,0,0,0-1.455-.645,1.916,1.916,0,0,0-1.924,1.4,5.839,5.839,0,0,0-.273,1.973,5.368,5.368,0,0,0,.273,1.885A1.857,1.857,0,0,0,36.8,13.037a1.653,1.653,0,0,0,1.387-.527,2.625,2.625,0,0,0,.5-1.367h2.842a4.656,4.656,0,0,1-.918,2.4,4.462,4.462,0,0,1-3.877,1.826,4.535,4.535,0,0,1-3.779-1.523A6.164,6.164,0,0,1,31.74,9.893a6.255,6.255,0,0,1,1.338-4.268A4.657,4.657,0,0,1,36.77,4.1a5.558,5.558,0,0,1,3.276.9A4.179,4.179,0,0,1,41.555,8.174Zm2.314-2.666A4.545,4.545,0,0,1,47.658,4.1a6.732,6.732,0,0,1,3.105.693,2.662,2.662,0,0,1,1.357,2.617v4.883q0,.508.02,1.23a1.547,1.547,0,0,0,.166.742,1,1,0,0,0,.41.322V15H49.689a3.1,3.1,0,0,1-.176-.605q-.049-.283-.078-.645a5.718,5.718,0,0,1-1.328,1.064,4,4,0,0,1-2.031.518,3.492,3.492,0,0,1-2.388-.825,2.943,2.943,0,0,1-.942-2.339A3.036,3.036,0,0,1,44.26,9.326,6.721,6.721,0,0,1,46.7,8.643l.947-.117a4.344,4.344,0,0,0,1.1-.244.837.837,0,0,0,.6-.791.939.939,0,0,0-.454-.9,2.837,2.837,0,0,0-1.333-.249,1.737,1.737,0,0,0-1.4.488,2.03,2.03,0,0,0-.391.977H43.088A4.085,4.085,0,0,1,43.869,5.508Zm2.07,7.48a1.454,1.454,0,0,0,.957.322,2.835,2.835,0,0,0,1.655-.527,2.249,2.249,0,0,0,.786-1.924V9.824a3.025,3.025,0,0,1-.532.269,4.451,4.451,0,0,1-.737.19l-.625.117a4.036,4.036,0,0,0-1.26.381,1.277,1.277,0,0,0-.645,1.182A1.222,1.222,0,0,0,45.939,12.988ZM54.65.605h2.783V15H54.65Zm5.9,4.9A4.545,4.545,0,0,1,64.338,4.1a6.732,6.732,0,0,1,3.105.693A2.662,2.662,0,0,1,68.8,7.412v4.883q0,.508.02,1.23a1.547,1.547,0,0,0,.166.742,1,1,0,0,0,.41.322V15H66.369a3.1,3.1,0,0,1-.176-.605q-.049-.283-.078-.645a5.718,5.718,0,0,1-1.328,1.064,4,4,0,0,1-2.031.518,3.492,3.492,0,0,1-2.388-.825,2.943,2.943,0,0,1-.942-2.339,3.036,3.036,0,0,1,1.514-2.842,6.721,6.721,0,0,1,2.441-.684l.947-.117a4.344,4.344,0,0,0,1.1-.244.837.837,0,0,0,.6-.791.939.939,0,0,0-.454-.9,2.837,2.837,0,0,0-1.333-.249,1.737,1.737,0,0,0-1.4.488,2.03,2.03,0,0,0-.391.977H59.768A4.085,4.085,0,0,1,60.549,5.508Zm2.07,7.48a1.454,1.454,0,0,0,.957.322,2.835,2.835,0,0,0,1.655-.527,2.249,2.249,0,0,0,.786-1.924V9.824a3.024,3.024,0,0,1-.532.269,4.451,4.451,0,0,1-.737.19l-.625.117a4.036,4.036,0,0,0-1.26.381,1.277,1.277,0,0,0-.645,1.182A1.222,1.222,0,0,0,62.619,12.988Zm14.434,2.295a3.8,3.8,0,0,1-2.119-.527A4.233,4.233,0,0,1,73.9,13.662V15H71.174V.625h2.773V5.742a4.061,4.061,0,0,1,1.162-1.133,3.452,3.452,0,0,1,1.914-.488A3.943,3.943,0,0,1,80.31,5.635,6.145,6.145,0,0,1,81.5,9.541a6.868,6.868,0,0,1-1.172,4.111A3.8,3.8,0,0,1,77.053,15.283Zm1.523-5.449a5.151,5.151,0,0,0-.293-1.875,2.041,2.041,0,0,0-2.051-1.406,2.071,2.071,0,0,0-2.08,1.377,5.168,5.168,0,0,0-.293,1.895,3.968,3.968,0,0,0,.605,2.266,2.073,2.073,0,0,0,1.846.9,1.91,1.91,0,0,0,1.67-.869A3.969,3.969,0,0,0,78.576,9.834ZM86.35,4.355V15H83.527V4.355Zm0-3.838V3.086H83.527V.518ZM89.1.605h2.783V15H89.1Zm8.359,3.75V15H94.641V4.355Zm0-3.838V3.086H94.641V.518Zm12.383.107V15h-2.705V13.525a3.926,3.926,0,0,1-1.357,1.377,3.811,3.811,0,0,1-1.895.43,3.956,3.956,0,0,1-3.14-1.509,5.794,5.794,0,0,1-1.274-3.872,6.664,6.664,0,0,1,1.255-4.287A4.083,4.083,0,0,1,104.084,4.1a3.433,3.433,0,0,1,1.719.425A3.381,3.381,0,0,1,107.023,5.7V.625Zm-7.5,9.121a4.185,4.185,0,0,0,.586,2.354,1.951,1.951,0,0,0,1.758.889,2.055,2.055,0,0,0,1.8-.879,3.883,3.883,0,0,0,.615-2.275,3.49,3.49,0,0,0-.986-2.793,2.123,2.123,0,0,0-1.406-.508,1.955,1.955,0,0,0-1.792.923A4.276,4.276,0,0,0,102.346,9.746Zm10.43-4.238A4.545,4.545,0,0,1,116.564,4.1a6.732,6.732,0,0,1,3.105.693,2.662,2.662,0,0,1,1.357,2.617v4.883q0,.508.02,1.23a1.547,1.547,0,0,0,.166.742,1,1,0,0,0,.41.322V15H118.6a3.1,3.1,0,0,1-.176-.605q-.049-.283-.078-.645a5.718,5.718,0,0,1-1.328,1.064,4,4,0,0,1-2.031.518,3.492,3.492,0,0,1-2.388-.825,2.943,2.943,0,0,1-.942-2.339,3.036,3.036,0,0,1,1.514-2.842,6.721,6.721,0,0,1,2.441-.684l.947-.117a4.344,4.344,0,0,0,1.1-.244.837.837,0,0,0,.6-.791.939.939,0,0,0-.454-.9,2.837,2.837,0,0,0-1.333-.249,1.737,1.737,0,0,0-1.4.488,2.029,2.029,0,0,0-.391.977h-2.686A4.084,4.084,0,0,1,112.775,5.508Zm2.07,7.48a1.454,1.454,0,0,0,.957.322,2.835,2.835,0,0,0,1.655-.527,2.249,2.249,0,0,0,.786-1.924V9.824a3.024,3.024,0,0,1-.532.269,4.451,4.451,0,0,1-.737.19l-.625.117a4.036,4.036,0,0,0-1.26.381,1.277,1.277,0,0,0-.645,1.182A1.222,1.222,0,0,0,114.846,12.988ZM133.186.625V15H130.48V13.525a3.926,3.926,0,0,1-1.357,1.377,3.811,3.811,0,0,1-1.895.43,3.956,3.956,0,0,1-3.14-1.509,5.794,5.794,0,0,1-1.274-3.872,6.664,6.664,0,0,1,1.255-4.287A4.083,4.083,0,0,1,127.424,4.1a3.433,3.433,0,0,1,1.719.425A3.381,3.381,0,0,1,130.363,5.7V.625Zm-7.5,9.121a4.185,4.185,0,0,0,.586,2.354,1.951,1.951,0,0,0,1.758.889,2.055,2.055,0,0,0,1.8-.879,3.883,3.883,0,0,0,.615-2.275,3.49,3.49,0,0,0-.986-2.793,2.123,2.123,0,0,0-1.406-.508,1.955,1.955,0,0,0-1.792.923A4.276,4.276,0,0,0,125.686,9.746Z" transform="translate(1149.046 648)" fill="#212429"/>
    <g id="_019-database_management_system" data-name="019-database management system" transform="translate(719.828 567.503)">
      <g id="Grupo_1148937" data-name="Grupo 1148937" transform="translate(42.557 0.898)">
        <path id="Trazado_986831" data-name="Trazado 986831" d="M378.818,400.889,370.7,412.344l-10.83,6.253,5.482-15.276Z" transform="translate(-303.588 -329.754)" fill="#d7e9f7"/>
        <path id="Trazado_986832" data-name="Trazado 986832" d="M267.752,441.273l-2.863,5.557-10.83,6.253-3.728-11.511Z" transform="translate(-213.735 -362.882)" fill="#b0d5f0"/>
        <path id="Trazado_986833" data-name="Trazado 986833" d="M365.188,296.912a29.048,29.048,0,0,1-.526,5.673l-13.6,11.855a148.905,148.905,0,0,0,0-17.555l7.391-5.354,6.606,2.286C365.143,294.86,365.188,295.894,365.188,296.912Z" transform="translate(-296.364 -240.045)" fill="#d7e9f7"/>
        <path id="Trazado_986834" data-name="Trazado 986834" d="M324.451,167.29l-10.83,9.607-10.13-2.493,14.02-6.523Z" transform="translate(-257.343 -138.129)" fill="#b0d5f0"/>
        <path id="Trazado_986835" data-name="Trazado 986835" d="M274,57.2v9.185l-12,9.4-.566-14.346Z" transform="translate(-222.847 -47.824)" fill="#d7e9f7"/>
        <path id="Trazado_986836" data-name="Trazado 986836" d="M96.153,31.89,91.861,18.812l10.83-6.253,7.556,9.368Z" transform="translate(-83.739 -11.201)" fill="#b0d5f0"/>
        <g id="Grupo_1148936" data-name="Grupo 1148936" transform="translate(0 11.01)">
          <path id="Trazado_986837" data-name="Trazado 986837" d="M144.141,72.362l-8.116,2.6-5.541-3.489,9.016-5.205Z" transform="translate(-115.422 -66.272)" fill="#b0d5f0"/>
          <path id="Trazado_986838" data-name="Trazado 986838" d="M46.659,200.212l10.829-6.254-4.622,11.594Z" transform="translate(-46.659 -171.015)" fill="#b0d5f0"/>
          <path id="Trazado_986839" data-name="Trazado 986839" d="M271.076,114.576l10.83-6.253a58.538,58.538,0,0,1,9.014,11.187l-10.83,6.251-6.949-3.152Z" transform="translate(-230.752 -100.767)" fill="#b0d5f0"/>
          <path id="Trazado_986840" data-name="Trazado 986840" d="M377.922,188.125l-10.83,6.253-8.318-8.693.2-12.142,10.83-6.253Z" transform="translate(-302.691 -149.139)" fill="#b0d5f0"/>
        </g>
        <path id="Trazado_986841" data-name="Trazado 986841" d="M384.247,361.65l-10.83,6.253-6.885-1.943-.047-6.651,10.83-6.253Z" transform="translate(-309.017 -290.515)" fill="#b0d5f0"/>
        <path id="Trazado_986842" data-name="Trazado 986842" d="M207.73,14.38,196.9,20.633l-9.892-.816-6.356-8.565L191.484,5Z" transform="translate(-156.576 -5)" fill="#b0d5f0"/>
        <path id="Trazado_986843" data-name="Trazado 986843" d="M104.653,96.667a39.356,39.356,0,0,0-.526-6.281l6.933-.59-8.123-20.834L96,69.553a58.559,58.559,0,0,0-9.016-11.187V49.181L70.736,39.8v9.185a14.892,14.892,0,0,0-9.016.776l-6.938-8.6L46.659,52.614l6.933,8.6a29.059,29.059,0,0,0-.526,5.673,39.355,39.355,0,0,0,.526,6.281l-6.933.59,8.123,20.834L61.721,94a58.564,58.564,0,0,0,9.016,11.187v9.185l16.246,9.379v-9.185A14.893,14.893,0,0,0,96,113.787l6.939,8.6,8.123-11.455-6.933-8.6A29.055,29.055,0,0,0,104.653,96.667Zm-7.5,4.161a19.211,19.211,0,0,1-7.508-2.637c-10.9-6.29-19.727-21.525-19.727-34.027A18.906,18.906,0,0,1,71.351,56.5a19.211,19.211,0,0,1,7.508,2.637,33.015,33.015,0,0,1,6.5,5.013c1.351,1.32-2.309,7.565-1.111,9.1.975,1.252,6.836-2.232,7.689-.873,4.077,6.5,6.646,14.039,6.646,20.782a18.9,18.9,0,0,1-1.435,7.664Z" transform="translate(-46.659 -33.548)" fill="#3c97da"/>
        <path id="Trazado_986844" data-name="Trazado 986844" d="M126.858,140.075a18.906,18.906,0,0,1,1.435-7.664c-7.171-.751-12.22,4.433-12.22,13.885,0,12.5,8.832,27.736,19.727,34.027,8.278,4.779,15.365,3.02,18.292-3.584a19.211,19.211,0,0,1-7.508-2.637C135.691,167.812,126.858,152.578,126.858,140.075Z" transform="translate(-103.601 -109.459)" fill="#b0d5f0"/>
        <path id="Trazado_986845" data-name="Trazado 986845" d="M140.429,214.193l28.6.1v25.086c0,2.1-1.384,4.2-4.156,5.8-5.566,3.214-14.619,3.2-20.22-.036-2.812-1.623-4.219-3.749-4.219-5.87Z" transform="translate(-123.58 -176.604)" fill="#82aee3"/>
        <path id="Trazado_986846" data-name="Trazado 986846" d="M162.283,169.758c-5.5-1.961-12.836-1.553-17.635,1.218-5.6,3.234-5.629,8.46-.063,11.674s14.619,3.2,20.22-.036a8,8,0,0,0,4.056-4.624A44.981,44.981,0,0,0,162.283,169.758Z" transform="translate(-123.58 -139.155)" fill="#c0d6f2"/>
      </g>
      <g id="Grupo_1148938" data-name="Grupo 1148938" transform="translate(41.658 0)">
        <path id="Trazado_986847" data-name="Trazado 986847" d="M118.486,71.468,111.814,63.2a30.441,30.441,0,0,0,.464-5.433c0-.844-.031-1.717-.091-2.6l6.049-3.492a.891.891,0,0,0,.4-1.085h0L110.508,29.75a.9.9,0,0,0-.946-.584l-6.369.543a59.045,59.045,0,0,0-8.584-10.627v-8.79a.9.9,0,0,0-.466-.8L77.914.12a.9.9,0,0,0-.9,0L66.184,6.373a.889.889,0,0,0-.128.09l-3.848-4.77a.9.9,0,0,0-1.149-.214L50.23,7.731a.894.894,0,0,0-.3.289l-8.1,11.425a.9.9,0,0,0,.034,1.084L48.529,28.8a30.468,30.468,0,0,0-.464,5.433c0,.849.031,1.721.092,2.6l-6.049,3.493a.9.9,0,0,0-.388,1.1l8.123,20.834a.9.9,0,0,0,.913.569l6.395-.544c.434.681.884,1.358,1.342,2.019a.9.9,0,0,0,.074.093c.32,2.229,1.928,4.271,4.609,5.819l.063.036a.9.9,0,0,0,.153.232c.763.84,1.55,1.655,2.344,2.427v8.8a.9.9,0,0,0,.449.778L82.42,91.871a.9.9,0,0,0,.91.006h0l10.83-6.253a.9.9,0,0,0,.128-.089l3.834,4.753a.9.9,0,0,0,1.141.243l10.851-6.265a.9.9,0,0,0,.284-.258l8.119-11.45h0A.9.9,0,0,0,118.486,71.468Zm-2.057.312-9.255,5.344-5.791-7.18,9.255-5.343ZM101.056,58.55,107,58.044a.894.894,0,0,0,.406-.119l3.039-1.755c.024.54.037,1.073.037,1.595a28.655,28.655,0,0,1-.434,5.1l-8.837,5.1a31.856,31.856,0,0,0,.238-3.951A39.615,39.615,0,0,0,101.056,58.55ZM103,31.529l2.723-.232-7.165,4.137-2.725.232Zm6.207-.169L116.67,50.5l-9.256,5.344L99.951,36.7Zm-7.744-1.019-9.272,5.352a59.3,59.3,0,0,0-7.837-9.79l9.218-5.322A57.2,57.2,0,0,1,101.464,30.341Zm-8.652-11.4-9.034,5.216V17.05l9.034-5.216ZM77.465,1.936l14.449,8.343L82.88,15.494,68.43,7.151ZM61.292,3.419l4.443,5.509v2.462l-7.9,4.561-5.8-7.188Zm4.443,10.045v1.809a18.021,18.021,0,0,0-2.81-.186ZM48.342,38.8q.053.448.116.9l-1.963.167ZM87.1,48.7a7.955,7.955,0,0,1-3.527,3.593c-5.409,3.123-14.237,3.106-19.681-.036A8.082,8.082,0,0,1,60.3,48.6V42.4a10.622,10.622,0,0,0,2.988,2.464,21.1,21.1,0,0,0,10.321,2.46,21.348,21.348,0,0,0,10.437-2.5A10.736,10.736,0,0,0,87.1,42.3Zm-26.8,1.97a10.781,10.781,0,0,0,3.051,2.52,21.346,21.346,0,0,0,10.437,2.5,21.106,21.106,0,0,0,10.321-2.46A10.623,10.623,0,0,0,87.1,50.757v6.3a7.954,7.954,0,0,1-3.527,3.593c-5.409,3.123-14.237,3.107-19.681-.036a8.082,8.082,0,0,1-3.59-3.655Zm27.2,16.885a19.226,19.226,0,0,0,4.188,1.335,9.24,9.24,0,0,1-3.343,3.469c-2.77,1.626-6.349,1.627-10.269.044a18.949,18.949,0,0,0,6.211-2.141A10.811,10.811,0,0,0,87.505,67.55Zm4.981-.351a16.859,16.859,0,0,1-4.063-1.209,5.917,5.917,0,0,0,.476-2.316V43.369a38.058,38.058,0,0,1,4.687,17.146,18.745,18.745,0,0,1-1.1,6.685ZM83.512,43.89c-5.443,3.143-14.272,3.159-19.681.036A7.953,7.953,0,0,1,60.3,40.334s0-1.82,0-1.828c.04-1.849,1.378-3.628,3.769-5.009,4.439-2.562,11.3-3.064,16.683-1.22l.022.007a44.133,44.133,0,0,1,6.32,7.951,8.069,8.069,0,0,1-3.587,3.655ZM66.737,30.413a17.743,17.743,0,0,1,1.082-5.589,19.075,19.075,0,0,1,6.489,2.442,29.515,29.515,0,0,1,3.582,2.451A24.921,24.921,0,0,0,66.737,30.413Zm-1.818.662a16.04,16.04,0,0,0-1.744.865c-2.937,1.7-4.592,3.994-4.666,6.478,0,.022,0,.045,0,.068V50.248a35.249,35.249,0,0,1-2.579-12.513c0-5.685,1.876-9.9,5.283-11.867a9.284,9.284,0,0,1,4.751-1.2,20.543,20.543,0,0,0-1.043,6.406ZM60.3,63.572V59.027a10.781,10.781,0,0,0,3.051,2.52,21.343,21.343,0,0,0,10.437,2.5,21.107,21.107,0,0,0,10.322-2.46A10.619,10.619,0,0,0,87.1,59.119v4.556c0,1.861-1.317,3.645-3.707,5.026-5.309,3.066-13.977,3.049-19.321-.036C61.643,67.261,60.3,65.452,60.3,63.572ZM67.271,71.9a24.541,24.541,0,0,0,6.521.858q.438,0,.876-.015a18.642,18.642,0,0,0,8.949,2.634A11,11,0,0,0,89.261,73.9c3.948-2.318,6.122-7.073,6.122-13.389,0-12.809-8.977-28.338-20.177-34.8-5.582-3.223-10.872-3.719-14.893-1.4-3.986,2.3-6.182,7.069-6.182,13.423a38.905,38.905,0,0,0,4.376,16.957v6.382l-.127-.2a.9.9,0,0,0-.838-.419l-6.27.534L43.83,41.9l5.735-.488a.9.9,0,0,0,.811-1.039,38.521,38.521,0,0,1-.515-6.137,28.266,28.266,0,0,1,.509-5.5.9.9,0,0,0-.182-.74L43.683,19.93,50.726,10l6.193,7.679A.9.9,0,0,0,58,17.928a13.948,13.948,0,0,1,8.464-.71.9.9,0,0,0,1.072-.882V8.707L81.981,17.05v8.666a.9.9,0,0,0,.248.62l.018.019.011.011a57.317,57.317,0,0,1,8.875,11.014.9.9,0,0,0,.838.419l6.27-.534,7.442,19.089-5.735.488a.9.9,0,0,0-.811,1.039,38.568,38.568,0,0,1,.515,6.137,28.278,28.278,0,0,1-.505,5.478.9.9,0,0,0,.2.784l6.486,8.041-7.043,9.932-6.193-7.679a.9.9,0,0,0-1.064-.257,13.944,13.944,0,0,1-8.478.716.9.9,0,0,0-1.072.882v7.629L67.533,81.2V72.534a.9.9,0,0,0-.261-.633ZM93.154,84.129l-9.376,5.414V82.978a15.505,15.505,0,0,0,7.839-.753Zm15.891-1.322-7.1,4.1,5.632-7.942,7.1-4.1Z" transform="translate(-41.658 0)" fill="#072f75"/>
        <circle id="Elipse_11598" data-name="Elipse 11598" cx="0.898" cy="0.898" r="0.898" transform="translate(41.225 47.64)" fill="#072f75"/>
        <circle id="Elipse_11599" data-name="Elipse 11599" cx="0.898" cy="0.898" r="0.898" transform="translate(38.216 48.973)" fill="#072f75"/>
        <circle id="Elipse_11600" data-name="Elipse 11600" cx="0.898" cy="0.898" r="0.898" transform="translate(41.225 56.002)" fill="#072f75"/>
        <circle id="Elipse_11601" data-name="Elipse 11601" cx="0.898" cy="0.898" r="0.898" transform="translate(38.216 57.335)" fill="#072f75"/>
        <circle id="Elipse_11602" data-name="Elipse 11602" cx="0.898" cy="0.898" r="0.898" transform="translate(41.225 64.364)" fill="#072f75"/>
        <circle id="Elipse_11603" data-name="Elipse 11603" cx="0.898" cy="0.898" r="0.898" transform="translate(38.216 65.697)" fill="#072f75"/>
      </g>
    </g>
    <g id="_042-veracity" data-name="042-veracity" transform="translate(302.038 524.002)">
      <g id="Grupo_1148984" data-name="Grupo 1148984" transform="translate(32.288 0.765)">
        <g id="Grupo_1148940" data-name="Grupo 1148940" transform="translate(16.912 17.923)">
          <g id="Grupo_1148939" data-name="Grupo 1148939">
            <path id="Trazado_986848" data-name="Trazado 986848" d="M192.522,104.008l-62.01.223v54.4h0c0,4.562,3,9.115,9.013,12.585,12.071,6.969,31.7,6.934,43.848-.079,6.1-3.521,9.149-8.13,9.149-12.73h0Z" transform="translate(-130.512 -104.008)" fill="#82aee3"/>
          </g>
        </g>
        <g id="Grupo_1148942" data-name="Grupo 1148942" transform="translate(45.503 42.237)">
          <g id="Grupo_1148941" data-name="Grupo 1148941">
            <path id="Trazado_986849" data-name="Trazado 986849" d="M300.1,239.331v4.248a53.2,53.2,0,0,1-10.466.6v-4.248A53.2,53.2,0,0,0,300.1,239.331Z" transform="translate(-289.638 -239.331)" fill="#0573ce"/>
          </g>
        </g>
        <g id="Grupo_1148944" data-name="Grupo 1148944" transform="translate(67.144 36.929)">
          <g id="Grupo_1148943" data-name="Grupo 1148943">
            <path id="Trazado_986850" data-name="Trazado 986850" d="M413.814,209.791v4.247q-.531.34-1.1.667-1.264.728-2.629,1.357v-4.248q1.364-.628,2.629-1.357Q413.283,210.131,413.814,209.791Z" transform="translate(-410.088 -209.791)" fill="#5de1c4"/>
          </g>
        </g>
        <g id="Grupo_1148946" data-name="Grupo 1148946" transform="translate(59.693 40.427)">
          <g id="Grupo_1148945" data-name="Grupo 1148945" transform="translate(0)">
            <path id="Trazado_986851" data-name="Trazado 986851" d="M372.344,229.261v4.247c-1.207.41-2.453.765-3.726,1.071v-4.247C369.892,230.026,371.137,229.671,372.344,229.261Z" transform="translate(-368.618 -229.261)" fill="#fff0ad"/>
          </g>
        </g>
        <g id="Grupo_1148948" data-name="Grupo 1148948" transform="translate(45.503 60.37)">
          <g id="Grupo_1148947" data-name="Grupo 1148947">
            <path id="Trazado_986852" data-name="Trazado 986852" d="M300.1,340.253V344.5a53.2,53.2,0,0,1-10.466.6v-4.248A53.19,53.19,0,0,0,300.1,340.253Z" transform="translate(-289.638 -340.253)" fill="#0573ce"/>
          </g>
        </g>
        <g id="Grupo_1148950" data-name="Grupo 1148950" transform="translate(67.144 55.062)">
          <g id="Grupo_1148949" data-name="Grupo 1148949">
            <path id="Trazado_986853" data-name="Trazado 986853" d="M413.814,310.713v4.247q-.531.34-1.1.667-1.264.728-2.629,1.357v-4.247q1.364-.628,2.629-1.357Q413.283,311.054,413.814,310.713Z" transform="translate(-410.088 -310.713)" fill="#5de1c4"/>
          </g>
        </g>
        <g id="Grupo_1148952" data-name="Grupo 1148952" transform="translate(59.693 58.56)">
          <g id="Grupo_1148951" data-name="Grupo 1148951" transform="translate(0)">
            <path id="Trazado_986854" data-name="Trazado 986854" d="M372.344,330.183v4.248c-1.207.41-2.453.765-3.726,1.071v-4.247C369.892,330.948,371.137,330.593,372.344,330.183Z" transform="translate(-368.618 -330.183)" fill="#fff0ad"/>
          </g>
        </g>
        <g id="Grupo_1148954" data-name="Grupo 1148954" transform="translate(45.503 78.503)">
          <g id="Grupo_1148953" data-name="Grupo 1148953">
            <path id="Trazado_986855" data-name="Trazado 986855" d="M300.1,441.176v4.248a53.2,53.2,0,0,1-10.466.6v-4.248A53.211,53.211,0,0,0,300.1,441.176Z" transform="translate(-289.638 -441.176)" fill="#0573ce"/>
          </g>
        </g>
        <g id="Grupo_1148956" data-name="Grupo 1148956" transform="translate(67.144 73.195)">
          <g id="Grupo_1148955" data-name="Grupo 1148955">
            <path id="Trazado_986856" data-name="Trazado 986856" d="M413.814,411.636v4.248q-.531.34-1.1.667-1.264.728-2.629,1.357v-4.247q1.364-.628,2.629-1.357Q413.283,411.977,413.814,411.636Z" transform="translate(-410.088 -411.636)" fill="#5de1c4"/>
          </g>
        </g>
        <g id="Grupo_1148958" data-name="Grupo 1148958" transform="translate(59.693 76.694)">
          <g id="Grupo_1148957" data-name="Grupo 1148957" transform="translate(0)">
            <path id="Trazado_986857" data-name="Trazado 986857" d="M372.344,431.105v4.247c-1.207.41-2.453.765-3.726,1.071v-4.247C369.892,431.871,371.137,431.515,372.344,431.105Z" transform="translate(-368.618 -431.105)" fill="#fff0ad"/>
          </g>
        </g>
        <g id="Grupo_1148960" data-name="Grupo 1148960" transform="translate(16.816 0)">
          <g id="Grupo_1148959" data-name="Grupo 1148959" transform="translate(0)">
            <ellipse id="Elipse_11604" data-name="Elipse 11604" cx="31.005" cy="17.9" rx="31.005" ry="17.9" transform="translate(0 0.31) rotate(-0.286)" fill="#c0d6f2"/>
          </g>
        </g>
        <g id="Grupo_1148962" data-name="Grupo 1148962" transform="translate(16.253 40.163)">
          <g id="Grupo_1148961" data-name="Grupo 1148961">
            <path id="Trazado_986858" data-name="Trazado 986858" d="M126.845,229.852l2.437-.554,6.581-1.511a29.734,29.734,0,0,1,10.924,18.842l-5.941,6.523Z" transform="translate(-126.845 -227.787)" fill="#fd9468"/>
          </g>
        </g>
        <g id="Grupo_1148964" data-name="Grupo 1148964" transform="translate(6.608 42.228)">
          <g id="Grupo_1148963" data-name="Grupo 1148963">
            <path id="Trazado_986859" data-name="Trazado 986859" d="M96.81,262.582l-7.166,7.868L76.323,259.078l-3.159-17.6,9.645-2.193,9.018,10.9Z" transform="translate(-73.164 -239.282)" fill="#fd5426"/>
          </g>
        </g>
        <g id="Grupo_1148966" data-name="Grupo 1148966" transform="translate(26.92 63.576)">
          <g id="Grupo_1148965" data-name="Grupo 1148965">
            <path id="Trazado_986860" data-name="Trazado 986860" d="M188.4,358.1l4.771,5.064a6.211,6.211,0,0,1-1.321,1.022l-5.638,3.256v0Z" transform="translate(-186.212 -358.099)" fill="#fd6930"/>
          </g>
        </g>
        <g id="Grupo_1148968" data-name="Grupo 1148968" transform="translate(33.74 61.788)">
          <g id="Grupo_1148967" data-name="Grupo 1148967">
            <path id="Trazado_986861" data-name="Trazado 986861" d="M225.812,355.862l5.637-3.255v-4.464l-4.905.236-.732,3.019-1.638,2.248Z" transform="translate(-224.174 -348.144)" fill="#fd5426"/>
          </g>
        </g>
        <g id="Grupo_1148970" data-name="Grupo 1148970" transform="translate(29.414 59.005)">
          <g id="Grupo_1148969" data-name="Grupo 1148969">
            <path id="Trazado_986862" data-name="Trazado 986862" d="M200.093,336.573l6.782-3.915,4.82,2.783-5.637,3.255Z" transform="translate(-200.093 -332.657)" fill="#fead8a"/>
          </g>
        </g>
        <g id="Grupo_1148972" data-name="Grupo 1148972" transform="translate(17.689 69.697)">
          <g id="Grupo_1148971" data-name="Grupo 1148971">
            <path id="Trazado_986863" data-name="Trazado 986863" d="M136.783,400.95l5.637-3.255v-5.531l-7.582,2.077Z" transform="translate(-134.838 -392.165)" fill="#fd5426"/>
          </g>
        </g>
        <g id="Grupo_1148974" data-name="Grupo 1148974" transform="translate(17.345 34.632)">
          <g id="Grupo_1148973" data-name="Grupo 1148973">
            <path id="Trazado_986864" data-name="Trazado 986864" d="M140.852,202.536l-5.637,3.255-2.289-2.64,2.289-2.891,2.259-3.255h3.379Z" transform="translate(-132.926 -197.005)" fill="#fd5426"/>
          </g>
        </g>
        <g id="Grupo_1148976" data-name="Grupo 1148976" transform="translate(15.744 32.386)">
          <g id="Grupo_1148975" data-name="Grupo 1148975">
            <path id="Trazado_986865" data-name="Trazado 986865" d="M124.013,187.76l5.637-3.255,3.89,2.246-5.637,3.255-2.673.585Z" transform="translate(-124.013 -184.505)" fill="#fead8a"/>
          </g>
        </g>
        <g id="Grupo_1148978" data-name="Grupo 1148978" transform="translate(0 41.362)">
          <g id="Grupo_1148977" data-name="Grupo 1148977">
            <path id="Trazado_986866" data-name="Trazado 986866" d="M36.388,237.719l5.637-3.255,4.82,2.783-5.536,5.022Z" transform="translate(-36.388 -234.464)" fill="#fead8a"/>
          </g>
        </g>
        <g id="Grupo_1148980" data-name="Grupo 1148980" transform="translate(8.458 37.292)">
          <g id="Grupo_1148979" data-name="Grupo 1148979">
            <path id="Trazado_986867" data-name="Trazado 986867" d="M83.463,215.725v0l5.611-3.24v0a6.271,6.271,0,0,1,1.675-.676l1.945,5.855Z" transform="translate(-83.463 -211.81)" fill="#fead8a"/>
          </g>
        </g>
        <g id="Grupo_1148983" data-name="Grupo 1148983" transform="translate(0 35.641)">
          <g id="Grupo_1148982" data-name="Grupo 1148982">
            <g id="Grupo_1148981" data-name="Grupo 1148981">
              <path id="Trazado_986868" data-name="Trazado 986868" d="M71.767,232.022l-4.82-2.783A29.734,29.734,0,0,0,56.023,210.4v-5.531l-3.89-2.246v5.531c-5.63-2.282-10.08.255-10.924,6.228l-4.82-2.783v4.464l4.82,2.783a29.734,29.734,0,0,0,10.924,18.842v5.531l3.89,2.246v-5.531c5.63,2.282,10.08-.255,10.924-6.228l4.82,2.783Zm-15.744,3.768V230.4l-3.89-2.246v4.689a27.371,27.371,0,0,1-6.723-11.578l4.1,2.368v-4.464l-4.712-2.72c.223-4.552,3.245-6.266,7.333-4.16v5.386l3.89,2.246v-4.689a27.369,27.369,0,0,1,6.723,11.578l-4.1-2.368v4.464l4.712,2.72C63.132,236.181,60.11,237.9,56.023,235.789Z" transform="translate(-36.389 -202.62)" fill="#fe7d43"/>
            </g>
          </g>
        </g>
      </g>
      <g id="Grupo_1148985" data-name="Grupo 1148985" transform="translate(31.389 0)">
        <path id="Trazado_986869" data-name="Trazado 986869" d="M287.154,242.255q1.126.046,2.249.046a53.171,53.171,0,0,0,8.324-.649.539.539,0,0,0,.455-.532v-4.247a.539.539,0,0,0-.623-.532,52.5,52.5,0,0,1-10.359.59.527.527,0,0,0-.4.15.539.539,0,0,0-.166.389v4.248a.539.539,0,0,0,.517.538Zm.561-4.227a53.64,53.64,0,0,0,9.388-.528v3.158a52.458,52.458,0,0,1-9.388.539Z" transform="translate(-240.776 -193.87)" fill="#072f75"/>
        <path id="Trazado_986870" data-name="Trazado 986870" d="M407.336,214.056a.539.539,0,0,0,.516.036c.918-.423,1.817-.887,2.673-1.379.379-.218.755-.447,1.119-.68a.539.539,0,0,0,.249-.454v-4.248a.539.539,0,0,0-.829-.454c-.35.224-.712.444-1.076.653-.829.477-1.7.926-2.585,1.334a.539.539,0,0,0-.314.49V213.6A.539.539,0,0,0,407.336,214.056Zm.83-4.358c.808-.382,1.6-.8,2.359-1.233l.29-.169v2.986c-.272.169-.549.336-.828.5-.588.338-1.2.663-1.821.97Z" transform="translate(-339.585 -169.637)" fill="#072f75"/>
        <path id="Trazado_986871" data-name="Trazado 986871" d="M365.823,232.544a.538.538,0,0,0,.459.1c1.307-.313,2.577-.678,3.774-1.085a.539.539,0,0,0,.366-.51V226.8a.539.539,0,0,0-.712-.51c-1.166.4-2.4.751-3.679,1.057a.539.539,0,0,0-.413.524v4.248A.538.538,0,0,0,365.823,232.544Zm.873-4.248c.907-.226,1.793-.477,2.648-.749v3.115c-.852.279-1.739.537-2.648.77Z" transform="translate(-305.566 -185.61)" fill="#072f75"/>
        <path id="Trazado_986872" data-name="Trazado 986872" d="M297.992,337.383a.542.542,0,0,0-.434-.123,52.51,52.51,0,0,1-10.36.59.539.539,0,0,0-.561.539v4.248a.539.539,0,0,0,.517.538q1.126.046,2.249.046a53.163,53.163,0,0,0,8.323-.649.539.539,0,0,0,.454-.532v-4.247A.539.539,0,0,0,297.992,337.383Zm-.889,4.2a52.472,52.472,0,0,1-9.388.539v-3.169a53.615,53.615,0,0,0,9.388-.528Z" transform="translate(-240.775 -276.659)" fill="#072f75"/>
        <path id="Trazado_986873" data-name="Trazado 986873" d="M411.611,307.78a.539.539,0,0,0-.549.019c-.35.224-.712.444-1.076.654-.827.476-1.7.925-2.585,1.334a.539.539,0,0,0-.314.49v4.247a.539.539,0,0,0,.765.49c.918-.423,1.817-.887,2.672-1.379.379-.218.755-.447,1.119-.68a.539.539,0,0,0,.249-.454v-4.247A.54.54,0,0,0,411.611,307.78Zm-.8,4.423c-.272.169-.549.336-.828.5-.588.339-1.2.663-1.821.97v-3.051c.809-.383,1.6-.8,2.359-1.233l.29-.169Z" transform="translate(-339.584 -252.425)" fill="#072f75"/>
        <path id="Trazado_986874" data-name="Trazado 986874" d="M370.2,327.285a.54.54,0,0,0-.487-.072c-1.166.4-2.4.751-3.679,1.057a.539.539,0,0,0-.413.524v4.247a.539.539,0,0,0,.539.539.531.531,0,0,0,.126-.015c1.305-.313,2.575-.678,3.774-1.085a.539.539,0,0,0,.366-.51v-4.247A.539.539,0,0,0,370.2,327.285Zm-.853,4.3c-.853.28-1.74.538-2.648.77v-3.135c.907-.226,1.793-.477,2.648-.749Z" transform="translate(-305.566 -268.398)" fill="#072f75"/>
        <path id="Trazado_986875" data-name="Trazado 986875" d="M297.993,438.306a.543.543,0,0,0-.434-.123,52.5,52.5,0,0,1-10.359.59.527.527,0,0,0-.4.15.539.539,0,0,0-.166.389v4.248a.539.539,0,0,0,.517.538q1.126.046,2.249.046a53.163,53.163,0,0,0,8.323-.649.539.539,0,0,0,.454-.532v-4.247A.54.54,0,0,0,297.993,438.306Zm-.889,4.2a52.537,52.537,0,0,1-9.388.539v-3.169a53.573,53.573,0,0,0,9.388-.528Z" transform="translate(-240.776 -359.448)" fill="#072f75"/>
        <path id="Trazado_986876" data-name="Trazado 986876" d="M411.611,408.7a.539.539,0,0,0-.549.019c-.35.224-.712.444-1.076.654-.827.476-1.7.925-2.585,1.334a.539.539,0,0,0-.314.49v4.248a.539.539,0,0,0,.765.49c.916-.422,1.815-.886,2.673-1.379.382-.221.759-.449,1.119-.68a.539.539,0,0,0,.249-.454v-4.248a.54.54,0,0,0-.28-.473Zm-.8,4.423c-.269.168-.547.335-.828.5-.589.339-1.2.664-1.821.97V411.54c.809-.383,1.6-.8,2.359-1.233l.29-.169Z" transform="translate(-339.584 -335.214)" fill="#072f75"/>
        <path id="Trazado_986877" data-name="Trazado 986877" d="M370.2,428.207a.54.54,0,0,0-.487-.072c-1.168.4-2.405.752-3.679,1.057a.539.539,0,0,0-.413.524v4.248a.539.539,0,0,0,.665.524c1.305-.313,2.575-.678,3.774-1.084a.539.539,0,0,0,.366-.51v-4.248A.54.54,0,0,0,370.2,428.207Zm-.853,4.3c-.853.28-1.74.538-2.648.77v-3.135c.906-.226,1.793-.477,2.648-.749Z" transform="translate(-305.566 -351.187)" fill="#072f75"/>
        <path id="Trazado_986878" data-name="Trazado 986878" d="M87.331,265.717l2.093,1.209v4.868a.9.9,0,0,0,.487.8,8.019,8.019,0,0,0,3.625.988,4.689,4.689,0,0,0,2.371-.6c1.583-.913,2.522-2.795,2.645-5.3a.9.9,0,0,0-.448-.822l-4.263-2.461V262l2.754,1.59a.9.9,0,0,0,1.316-1.013A28.12,28.12,0,0,0,90.958,250.6a.9.9,0,0,0-1.533.635v3.133l-2.093-1.209V248.3a.9.9,0,0,0-.487-.8c-2.269-1.169-4.4-1.306-6-.385s-2.522,2.795-2.645,5.3a.9.9,0,0,0,.448.822l4.262,2.461v2.389l-2.754-1.59a.9.9,0,0,0-1.316,1.013A28.12,28.12,0,0,0,85.8,269.485a.9.9,0,0,0,1.533-.635Zm-.449-2.334a.9.9,0,0,0-1.348.778v2.35a27.568,27.568,0,0,1-4.233-7.283l2.062,1.19a.9.9,0,0,0,1.348-.778v-4.464a.9.9,0,0,0-.449-.778l-4.221-2.437a4.119,4.119,0,0,1,1.705-3.291,4.213,4.213,0,0,1,3.789.192v4.821a.9.9,0,0,0,.449.778l3.89,2.246a.9.9,0,0,0,1.348-.778v-2.35a27.563,27.563,0,0,1,4.233,7.283l-2.062-1.191a.9.9,0,0,0-1.348.778v4.464a.9.9,0,0,0,.449.778l4.221,2.437a4.12,4.12,0,0,1-1.705,3.292,4.216,4.216,0,0,1-3.789-.192v-4.821a.9.9,0,0,0-.449-.778Z" transform="translate(-69.791 -202.218)" fill="#072f75"/>
        <path id="Trazado_986879" data-name="Trazado 986879" d="M112.108,18.688c0-5.095-3.36-9.841-9.462-13.363C96.673,1.876,88.729-.018,80.3,0S63.908,1.934,57.9,5.4c-6.19,3.574-9.6,8.371-9.6,13.508v16.3l-.71.41a.9.9,0,0,0-.457.8v.97a7.114,7.114,0,0,0-1.181.54l-.045.024-5.641,3.258a7.13,7.13,0,0,0-.963.675l-.93-.537a.9.9,0,0,0-.9,0l-5.62,3.245a.9.9,0,0,0-.467.8v4.451a.9.9,0,0,0,.449.778l4.436,2.561a30.591,30.591,0,0,0,10.859,18.73V77a.9.9,0,0,0,.449.778l2.236,1.291c.012.027.024.053.039.079a20.244,20.244,0,0,0,7.907,7.524C63.713,90.109,71.61,92,80.01,92h.1c8.436-.015,16.392-1.934,22.4-5.4,6.19-3.574,9.6-8.371,9.6-13.508Zm-1.8,38.938c-.976,3.6-3.917,6.933-8.52,9.592-8.911,5.143-22.319,6.593-33.668,3.826l5.629-3.25a.9.9,0,0,0,.449-.778V62.566a.9.9,0,0,0-.45-.791l-4.436-2.561A26.476,26.476,0,0,0,68,53.991a51.459,51.459,0,0,0,11.958,1.376c8.2,0,16.316-1.851,22.375-5.349a20.21,20.21,0,0,0,7.981-7.635ZM53.669,34.188,55.762,35.4l-3.841,2.217-2.093-1.209Zm2.992,6.22L52.82,42.626V39.171l3.841-2.217Zm.826,1.6A29.2,29.2,0,0,1,67.511,59.294l-3.975,2.295A30.881,30.881,0,0,0,53.513,44.3Zm11,18.8,3.023,1.745L67.665,64.77l-3.023-1.745Zm.081,5.519L72.4,64.109V66.5l-3.841,2.218ZM64.4,69.649l-1.412.815a11.226,11.226,0,0,0,.505-1.567l1.1.635c-.063.04-.128.079-.193.117Zm1.891.864.144.083-.181-.052ZM58.8,6.959C70.676.1,89.943.066,101.747,6.88c5.522,3.188,8.564,7.382,8.564,11.807,0,4.468-3.09,8.713-8.7,11.952-5.965,3.444-13.79,5.167-21.6,5.167-7.744,0-15.472-1.7-21.349-5.088C53.139,27.53,50.1,23.337,50.1,18.911c0-4.468,3.09-8.713,8.7-11.952Zm-8.7,16.7c1.4,3,4.132,5.75,8.025,8,6.026,3.479,13.948,5.217,21.888,5.217,8,0,16.027-1.767,22.139-5.3,3.966-2.29,6.746-5.083,8.161-8.131V39.493c-.976,3.6-3.917,6.933-8.52,9.59-9.014,5.2-22.719,6.663-34.267,3.678a30.579,30.579,0,0,0-9.067-12.278V35.41a.9.9,0,0,0-.466-.8l-3.874-2.236a.9.9,0,0,0-.9,0l-3.122,1.8ZM46.76,39.535l.05-.027q.158-.092.323-.174v1.336a11.391,11.391,0,0,0-1.7-.367Zm-8.835,3.629.119.069a9.927,9.927,0,0,0-1.581,3.522l-2.379-1.374ZM48.57,70.752A28.947,28.947,0,0,1,38,52.52a.9.9,0,0,0-.443-.67l-4.37-2.523V46.938l3.472,2A.9.9,0,0,0,38,48.29a8.162,8.162,0,0,1,2.063-4.662l0,0a5.386,5.386,0,0,1,1.132-.876l.013-.008.012-.006c1.737-.991,3.976-.979,6.475.034a.9.9,0,0,0,1.236-.832V37.962l2.093,1.208v5a.9.9,0,0,0,.373.742A28.949,28.949,0,0,1,61.953,63.129a.9.9,0,0,0,.424.662l4.39,2.535v2.389l-3.472-2a.9.9,0,0,0-1.339.652c-.8,5.641-4.836,7.492-9.7,5.521a.9.9,0,0,0-1.236.832v3.974L48.93,76.483V71.471a.9.9,0,0,0-.36-.719ZM56.66,75.4v.071L52.82,77.691V74.983A10.13,10.13,0,0,0,56.66,75.4Zm44.95,9.636c-11.878,6.858-31.146,6.893-42.949.079a20.661,20.661,0,0,1-6.146-5.176l5.492-3.171a.9.9,0,0,0,.449-.778v-.982c1.115-.392,1.593-.819,6.638-3.69A50.011,50.011,0,0,0,79.958,73.5c8.171,0,16.29-1.835,22.372-5.345a20.22,20.22,0,0,0,7.981-7.637V73.087C110.311,77.555,107.221,81.8,101.611,85.039Z" transform="translate(-31.389 0)" fill="#072f75"/>
      </g>
    </g>
    <g id="_043-structured_data" data-name="043-structured data" transform="translate(1081.131 512.408)">
      <g id="Grupo_1149008" data-name="Grupo 1149008" transform="translate(115.541 1.211)">
        <g id="Grupo_1148987" data-name="Grupo 1148987" transform="translate(33.863 33.559)">
          <g id="Grupo_1148986" data-name="Grupo 1148986">
            <path id="Trazado_986880" data-name="Trazado 986880" d="M291.424,143.489v44.542l-8.088,4.669-24.263-49.212Z" transform="translate(-259.073 -143.489)" fill="#feebdb"/>
          </g>
        </g>
        <g id="Grupo_1148989" data-name="Grupo 1148989" transform="translate(0)">
          <g id="Grupo_1148988" data-name="Grupo 1148988">
            <path id="Trazado_986881" data-name="Trazado 986881" d="M185.544,38.559,127.418,5,119.33,9.669l23.936,34.621,34.191-1.062Z" transform="translate(-119.33 -5)" fill="#fef4ec"/>
          </g>
        </g>
        <g id="Grupo_1148991" data-name="Grupo 1148991" transform="translate(11.2 79.36)">
          <g id="Grupo_1148990" data-name="Grupo 1148990">
            <path id="Trazado_986882" data-name="Trazado 986882" d="M201.76,332.5l-36.212.13v31.767c0,2.664,1.753,5.323,5.263,7.349,7.049,4.07,18.513,4.049,25.605-.046,3.561-2.056,5.343-4.748,5.343-7.434V332.5Z" transform="translate(-165.548 -332.497)" fill="#82aee3"/>
          </g>
        </g>
        <g id="Grupo_1148993" data-name="Grupo 1148993" transform="translate(11.117 68.905)">
          <g id="Grupo_1148992" data-name="Grupo 1148992" transform="translate(0 0)">
            <ellipse id="Elipse_11605" data-name="Elipse 11605" cx="18.106" cy="10.453" rx="18.106" ry="10.453" transform="translate(0 0.181) rotate(-0.286)" fill="#c0d6f2"/>
          </g>
        </g>
        <g id="Grupo_1148995" data-name="Grupo 1148995" transform="translate(0 4.669)">
          <g id="Grupo_1148994" data-name="Grupo 1148994">
            <path id="Trazado_986883" data-name="Trazado 986883" d="M177.456,57.828,119.33,24.269V68.811L141.8,81.787l6.589,11.364,6.589-3.757,22.475,12.976Z" transform="translate(-119.33 -24.269)" fill="#fee1ca"/>
          </g>
        </g>
        <g id="Grupo_1148997" data-name="Grupo 1148997" transform="translate(5.581 14.296)">
          <g id="Grupo_1148996" data-name="Grupo 1148996">
            <path id="Trazado_986884" data-name="Trazado 986884" d="M152.617,81.683l-10.255-5.921V63.995l10.255,5.921Z" transform="translate(-142.362 -63.995)" fill="#ffd15b"/>
          </g>
        </g>
        <g id="Grupo_1148999" data-name="Grupo 1148999" transform="translate(23.936 24.893)">
          <g id="Grupo_1148998" data-name="Grupo 1148998">
            <path id="Trazado_986885" data-name="Trazado 986885" d="M228.361,125.414l-10.255-5.921V107.726l10.255,5.921Z" transform="translate(-218.106 -107.726)" fill="#ffd15b"/>
          </g>
        </g>
        <g id="Grupo_1149001" data-name="Grupo 1149001" transform="translate(42.29 35.49)">
          <g id="Grupo_1149000" data-name="Grupo 1149000">
            <path id="Trazado_986886" data-name="Trazado 986886" d="M304.1,169.145l-10.255-5.921V151.457l10.255,5.921Z" transform="translate(-293.85 -151.457)" fill="#ffd15b"/>
          </g>
        </g>
        <g id="Grupo_1149003" data-name="Grupo 1149003" transform="translate(5.581 34.262)">
          <g id="Grupo_1149002" data-name="Grupo 1149002">
            <path id="Trazado_986887" data-name="Trazado 986887" d="M152.617,164.077l-10.255-5.921V146.389l10.255,5.921Z" transform="translate(-142.362 -146.389)" fill="#ffd15b"/>
          </g>
        </g>
        <g id="Grupo_1149005" data-name="Grupo 1149005" transform="translate(23.936 44.859)">
          <g id="Grupo_1149004" data-name="Grupo 1149004">
            <path id="Trazado_986888" data-name="Trazado 986888" d="M228.361,207.808l-10.255-5.921V190.12l10.255,5.921Z" transform="translate(-218.106 -190.12)" fill="#ffd15b"/>
          </g>
        </g>
        <g id="Grupo_1149007" data-name="Grupo 1149007" transform="translate(42.29 55.456)">
          <g id="Grupo_1149006" data-name="Grupo 1149006">
            <path id="Trazado_986889" data-name="Trazado 986889" d="M304.1,251.539l-10.255-5.921V233.851l10.255,5.921Z" transform="translate(-293.85 -233.851)" fill="#ffd15b"/>
          </g>
        </g>
      </g>
      <g id="Grupo_1149009" data-name="Grupo 1149009" transform="translate(114.329 -0.001)">
        <circle id="Elipse_11606" data-name="Elipse 11606" cx="1.212" cy="1.212" r="1.212" transform="translate(42.069 92.089)" fill="#072f75"/>
        <circle id="Elipse_11607" data-name="Elipse 11607" cx="1.212" cy="1.212" r="1.212" transform="translate(38.258 93.778)" fill="#072f75"/>
        <circle id="Elipse_11608" data-name="Elipse 11608" cx="1.212" cy="1.212" r="1.212" transform="translate(42.069 102.678)" fill="#072f75"/>
        <circle id="Elipse_11609" data-name="Elipse 11609" cx="1.212" cy="1.212" r="1.212" transform="translate(38.258 104.367)" fill="#072f75"/>
        <circle id="Elipse_11610" data-name="Elipse 11610" cx="1.212" cy="1.212" r="1.212" transform="translate(42.069 113.267)" fill="#072f75"/>
        <circle id="Elipse_11611" data-name="Elipse 11611" cx="1.212" cy="1.212" r="1.212" transform="translate(38.258 114.956)" fill="#072f75"/>
        <path id="Trazado_986890" data-name="Trazado 986890" d="M150.707,67.013l-10.255-5.921a.727.727,0,0,0-1.09.63V73.489a.727.727,0,0,0,.363.63l10.255,5.921a.727.727,0,0,0,1.09-.63V67.642A.726.726,0,0,0,150.707,67.013Zm-1.09,11.137-8.8-5.081V62.981l8.8,5.082Z" transform="translate(-133.296 -46.214)" fill="#072f75"/>
        <path id="Trazado_986891" data-name="Trazado 986891" d="M215.469,117.848l10.255,5.921a.727.727,0,0,0,1.09-.63V111.372a.727.727,0,0,0-.364-.63L216.2,104.822a.727.727,0,0,0-1.09.63v11.767a.726.726,0,0,0,.363.63Zm1.09-11.138,8.8,5.081v10.089l-8.8-5.082Z" transform="translate(-190.685 -79.347)" fill="#072f75"/>
        <path id="Trazado_986892" data-name="Trazado 986892" d="M291.213,161.58l10.255,5.921a.727.727,0,0,0,1.09-.63V155.1a.727.727,0,0,0-.363-.63l-10.255-5.921a.727.727,0,0,0-1.09.63V160.95A.727.727,0,0,0,291.213,161.58Zm1.09-11.138,8.8,5.081v10.089l-8.8-5.081Z" transform="translate(-248.075 -112.481)" fill="#072f75"/>
        <path id="Trazado_986893" data-name="Trazado 986893" d="M150.707,149.407l-10.255-5.921a.727.727,0,0,0-1.09.63v11.768a.727.727,0,0,0,.363.63l10.255,5.921a.727.727,0,0,0,1.09-.63V150.036A.727.727,0,0,0,150.707,149.407Zm-1.09,11.138-8.8-5.082V145.375l8.8,5.081Z" transform="translate(-133.296 -108.642)" fill="#072f75"/>
        <path id="Trazado_986894" data-name="Trazado 986894" d="M226.088,206.261a.727.727,0,0,0,.727-.727V193.766a.727.727,0,0,0-.364-.63L216.2,187.216a.727.727,0,0,0-1.09.63v11.768a.727.727,0,0,0,.363.63l10.255,5.921A.727.727,0,0,0,226.088,206.261Zm-.727-1.986-8.8-5.081V189.1l8.8,5.082Z" transform="translate(-190.685 -141.775)" fill="#072f75"/>
        <path id="Trazado_986895" data-name="Trazado 986895" d="M291.213,243.973l10.255,5.921a.727.727,0,0,0,1.09-.63V237.5a.727.727,0,0,0-.363-.63l-10.255-5.921a.727.727,0,0,0-1.09.63v11.768A.726.726,0,0,0,291.213,243.973Zm1.09-11.138,8.8,5.081v10.089l-8.8-5.082Z" transform="translate(-248.075 -174.909)" fill="#072f75"/>
        <path id="Trazado_986896" data-name="Trazado 986896" d="M182.337,33.707,124.235.162a1.212,1.212,0,0,0-1.212,0L114.954,4.82A1.213,1.213,0,0,0,114.33,5.9V50.422a1.212,1.212,0,0,0,.606,1.049L137.13,64.286l2.932,5.058a24.832,24.832,0,0,0-8.584,2.875c-3.836,2.215-5.949,5.227-5.949,8.483v31.768c0,3.231,2.084,6.214,5.869,8.4a27.267,27.267,0,0,0,13.335,3.179,27.57,27.57,0,0,0,13.482-3.225c3.836-2.215,5.949-5.227,5.949-8.483V80.572q0-.349-.033-.7l8.93,5.156a1.212,1.212,0,0,0,1.212,0l8.087-4.67a1.212,1.212,0,0,0,.606-1.049V34.788a1.212,1.212,0,0,0-.63-1.081ZM123.629,2.61l55.7,32.16-5.665,3.27-55.7-32.16Zm14.992,59.739L116.753,49.723V7.979l55.7,32.16V81.884L151.8,69.957a1.212,1.212,0,0,0-1.206,0l-5.544,3.161L139.064,62.79a1.215,1.215,0,0,0-.442-.442Zm23.12,41.675a10.274,10.274,0,0,1-4.495,4.531c-6.881,3.972-18.042,3.993-24.879.046a10.108,10.108,0,0,1-4.415-4.452V96.271a13.648,13.648,0,0,0,3.688,3,26.769,26.769,0,0,0,13.093,3.121,27.079,27.079,0,0,0,13.239-3.167,13.854,13.854,0,0,0,3.768-3.07v7.869Zm0-10.589a10.274,10.274,0,0,1-4.495,4.531c-6.881,3.972-18.042,3.993-24.879.046a10.108,10.108,0,0,1-4.415-4.452V84.894a12.6,12.6,0,0,0,3.93,3.367,26.271,26.271,0,0,0,12.851,3.063,26.579,26.579,0,0,0,13-3.109,12.793,12.793,0,0,0,4.01-3.439v8.658ZM157,118.723c-6.747,3.9-17.69,3.916-24.394.046-3-1.734-4.657-3.972-4.657-6.3v-5.61a13.648,13.648,0,0,0,3.688,3,26.769,26.769,0,0,0,13.093,3.121,27.079,27.079,0,0,0,13.239-3.167,13.854,13.854,0,0,0,3.768-3.07v5.6c0,2.353-1.682,4.621-4.737,6.384Zm4.737-38.152c0,2.353-1.682,4.621-4.737,6.385-6.747,3.9-17.69,3.916-24.394.046-3-1.734-4.657-3.972-4.657-6.3h0c0-2.353,1.682-4.621,4.737-6.385a23,23,0,0,1,8.686-2.708l2.181,3.761a1.212,1.212,0,0,0,1.648.445l5.985-3.412,9.937,5.737A5.419,5.419,0,0,1,161.741,80.572Zm13.138,1.312V40.139l5.665-3.27V78.613Z" transform="translate(-114.329 0.001)" fill="#072f75"/>
      </g>
    </g>
  </g>
</svg>
