<svg xmlns="http://www.w3.org/2000/svg" xmlns:xlink="http://www.w3.org/1999/xlink" width="108" height="108" viewBox="0 0 108 108">
  <defs>
    <filter id="Fondo" x="0" y="0" width="108" height="108" filterUnits="userSpaceOnUse">
      <feOffset dy="3" input="SourceAlpha"/>
      <feGaussianBlur stdDeviation="3" result="blur"/>
      <feFlood flood-opacity="0.161"/>
      <feComposite operator="in" in2="blur"/>
      <feComposite in="SourceGraphic"/>
    </filter>
    <clipPath id="clip-path">
      <rect id="Rect치ngulo_408321" data-name="Rect치ngulo 408321" width="52.647" height="52.701" fill="none"/>
    </clipPath>
  </defs>
  <g id="Icono" transform="translate(9 -689)">
    <g transform="matrix(1, 0, 0, 1, -9, 689)" filter="url(#Fondo)">
      <g id="Fondo-2" data-name="Fondo" transform="translate(9 6)" fill="#fee1ca">
        <path d="M 45 88.5 C 39.12687683105469 88.5 33.43022537231445 87.35007476806641 28.06830024719238 85.08217620849609 C 22.88852500915527 82.89131164550781 18.23629951477051 79.75458526611328 14.2408504486084 75.75914764404297 C 10.24541282653809 71.76370239257812 7.108687400817871 67.11147308349609 4.917825222015381 61.93170166015625 C 2.649924993515015 56.56977462768555 1.5 50.87312316894531 1.5 45 C 1.5 39.12687683105469 2.649924993515015 33.43022537231445 4.917825222015381 28.06830024719238 C 7.108687400817871 22.88852500915527 10.24541282653809 18.23629951477051 14.2408504486084 14.2408504486084 C 18.23629951477051 10.24541282653809 22.88852500915527 7.108687400817871 28.06830024719238 4.917825222015381 C 33.43022537231445 2.649924993515015 39.12687683105469 1.5 45 1.5 C 50.87312316894531 1.5 56.56977462768555 2.649924993515015 61.93170166015625 4.917825222015381 C 67.11147308349609 7.108687400817871 71.76370239257812 10.24541282653809 75.75914764404297 14.2408504486084 C 79.75458526611328 18.23629951477051 82.89131164550781 22.88852500915527 85.08217620849609 28.06830024719238 C 87.35007476806641 33.43022537231445 88.5 39.12687683105469 88.5 45 C 88.5 50.87312316894531 87.35007476806641 56.56977462768555 85.08217620849609 61.93170166015625 C 82.89131164550781 67.11147308349609 79.75458526611328 71.76370239257812 75.75914764404297 75.75914764404297 C 71.76370239257812 79.75458526611328 67.11147308349609 82.89131164550781 61.93170166015625 85.08217620849609 C 56.56977462768555 87.35007476806641 50.87312316894531 88.5 45 88.5 Z" stroke="none"/>
        <path d="M 45 3 C 39.32871246337891 3 33.82865524291992 4.110054016113281 28.65262985229492 6.299339294433594 C 23.65165710449219 8.414573669433594 19.15968322753906 11.44334411621094 15.301513671875 15.301513671875 C 11.44334411621094 19.15968322753906 8.414573669433594 23.65165710449219 6.299339294433594 28.65262985229492 C 4.110054016113281 33.82865524291992 3 39.32871246337891 3 45 C 3 50.67128753662109 4.110054016113281 56.17134475708008 6.299339294433594 61.34737396240234 C 8.414573669433594 66.34834289550781 11.44334411621094 70.84031677246094 15.301513671875 74.698486328125 C 19.15968322753906 78.55665588378906 23.65165710449219 81.58542633056641 28.65262985229492 83.70066070556641 C 33.82865524291992 85.88994598388672 39.32871246337891 87 45 87 C 50.67128753662109 87 56.17134475708008 85.88994598388672 61.34737396240234 83.70066070556641 C 66.34834289550781 81.58542633056641 70.84031677246094 78.55665588378906 74.698486328125 74.698486328125 C 78.55665588378906 70.84031677246094 81.58542633056641 66.34834289550781 83.70066070556641 61.34737396240234 C 85.88994598388672 56.17134475708008 87 50.67128753662109 87 45 C 87 39.32871246337891 85.88994598388672 33.82865524291992 83.70066070556641 28.65262985229492 C 81.58542633056641 23.65165710449219 78.55665588378906 19.15968322753906 74.698486328125 15.301513671875 C 70.84031677246094 11.44334411621094 66.34834289550781 8.414573669433594 61.34737396240234 6.299339294433594 C 56.17134475708008 4.110054016113281 50.67128753662109 3 45 3 M 45 0 C 69.85281372070312 0 90 20.14718627929688 90 45 C 90 69.85281372070312 69.85281372070312 90 45 90 C 20.14718627929688 90 0 69.85281372070312 0 45 C 0 20.14718627929688 20.14718627929688 0 45 0 Z" stroke="none" fill="#8a552c"/>
      </g>
    </g>
    <g id="Grupo_1148912" data-name="Grupo 1148912" transform="translate(18 716.329)">
      <g id="Grupo_1148911" data-name="Grupo 1148911" transform="translate(0 0.001)" clip-path="url(#clip-path)">
        <path id="Trazado_986510" data-name="Trazado 986510" d="M1,41.018H6.614A10.711,10.711,0,0,0,16.7,33.91a9.012,9.012,0,0,1,7.3-5.9A15.108,15.108,0,0,0,35.352,20.1,15.107,15.107,0,0,1,48.7,12.062h3.189V49.793H1Z" transform="translate(-0.123 -1.479)" fill="#f47c94"/>
        <path id="Trazado_986511" data-name="Trazado 986511" d="M1,45.018H7.491A10.711,10.711,0,0,0,17.578,37.91a9.012,9.012,0,0,1,7.3-5.9A15.108,15.108,0,0,0,36.23,24.1a15.107,15.107,0,0,1,13.351-8.039h2.311V50.283H1Z" transform="translate(-0.123 -1.969)" fill="#f15574"/>
        <rect id="Rect치ngulo_408320" data-name="Rect치ngulo 408320" width="50.892" height="3.51" transform="translate(0.877 48.314)" fill="#a2bdcd"/>
        <path id="Trazado_986512" data-name="Trazado 986512" d="M6.265,56.817A1.754,1.754,0,0,1,4.51,55.062H1v3.51H51.892V56.817Z" transform="translate(-0.123 -6.748)" fill="#769fb6"/>
        <path id="Trazado_986513" data-name="Trazado 986513" d="M52.26,54.062H4.877a.877.877,0,1,0,0,1.755H51.383v1.755H42.608a.877.877,0,1,0,0,1.755H52.26a.877.877,0,0,0,.877-.877v-3.51a.877.877,0,0,0-.877-.877" transform="translate(-0.49 -6.625)" fill="#464a51"/>
        <path id="Trazado_986514" data-name="Trazado 986514" d="M37.731,52.3H1.755V46.16H3.51a.877.877,0,0,0,0-1.755H1.755V41.773H6.491A11.614,11.614,0,0,0,17.4,34.081a8.106,8.106,0,0,1,6.586-5.327,16.017,16.017,0,0,0,12.015-8.366,14.2,14.2,0,0,1,12.576-7.572H51.77a.877.877,0,1,0,0-1.755H48.581a15.95,15.95,0,0,0-14.127,8.505,14.259,14.259,0,0,1-10.7,7.448,9.853,9.853,0,0,0-8.007,6.477,9.853,9.853,0,0,1-9.261,6.526H1.755V37.386H3.51a.877.877,0,0,0,0-1.755H1.755V33H3.51a.877.877,0,1,0,0-1.755H1.755V28.611H3.51a.877.877,0,0,0,0-1.755H1.755V24.224H3.51a.877.877,0,1,0,0-1.755H1.755V19.837H3.51a.877.877,0,0,0,0-1.755H1.755a.877.877,0,1,0-1.755,0v35.1a.877.877,0,0,0,.877.877H37.731a.877.877,0,0,0,0-1.755" transform="translate(0 -1.356)" fill="#464a51"/>
        <path id="Trazado_986515" data-name="Trazado 986515" d="M.877,14.1H3.51a.877.877,0,1,0,0-1.755H1.755V9.714H3.51a.877.877,0,1,0,0-1.755H1.755V5.327H3.51a.877.877,0,0,0,0-1.755H1.755V.939A.877.877,0,1,0,0,.939V13.224a.877.877,0,0,0,.877.877" transform="translate(0 -0.008)" fill="#464a51"/>
        <path id="Trazado_986516" data-name="Trazado 986516" d="M10.694,51.949a.877.877,0,0,0,.877-.877v-.439h.439a.877.877,0,1,0,0-1.755h-.439v-.439a.877.877,0,1,0-1.755,0v.439H9.377a.877.877,0,1,0,0,1.755h.439v.439a.877.877,0,0,0,.877.877" transform="translate(-1.042 -5.829)" fill="#464a51"/>
        <path id="Trazado_986517" data-name="Trazado 986517" d="M20.694,47.949a.877.877,0,0,0,.877-.877v-.439h.439a.877.877,0,1,0,0-1.755h-.439v-.439a.877.877,0,1,0-1.755,0v.439h-.439a.877.877,0,1,0,0,1.755h.439v.439a.877.877,0,0,0,.877.877" transform="translate(-2.267 -5.339)" fill="#464a51"/>
        <path id="Trazado_986518" data-name="Trazado 986518" d="M29.694,40.387a.877.877,0,0,0,.877-.877v-.439h.439a.877.877,0,0,0,0-1.755h-.439v-.439a.877.877,0,1,0-1.755,0v.439h-.439a.877.877,0,0,0,0,1.755h.439v.439a.877.877,0,0,0,.877.877" transform="translate(-3.37 -4.412)" fill="#464a51"/>
        <path id="Trazado_986519" data-name="Trazado 986519" d="M37.694,45.387a.877.877,0,0,0,.877-.877v-.439h.439a.877.877,0,0,0,0-1.755h-.439v-.439a.877.877,0,1,0-1.755,0v.439h-.439a.877.877,0,0,0,0,1.755h.439v.439a.877.877,0,0,0,.877.877" transform="translate(-4.35 -5.025)" fill="#464a51"/>
        <path id="Trazado_986520" data-name="Trazado 986520" d="M41.694,33.387a.877.877,0,0,0,.877-.877v-.439h.439a.877.877,0,0,0,0-1.755h-.439v-.439a.877.877,0,0,0-1.755,0v.439h-.439a.877.877,0,0,0,0,1.755h.439v.439a.877.877,0,0,0,.877.877" transform="translate(-4.84 -3.554)" fill="#464a51"/>
        <path id="Trazado_986521" data-name="Trazado 986521" d="M50.571,26.51v-.439h.439a.877.877,0,1,0,0-1.755h-.439v-.439a.877.877,0,1,0-1.755,0v.439h-.439a.877.877,0,0,0,0,1.755h.439v.439a.877.877,0,0,0,1.755,0" transform="translate(-5.821 -2.819)" fill="#464a51"/>
        <path id="Trazado_986522" data-name="Trazado 986522" d="M55.694,20.387a.877.877,0,0,0,.877-.877v-.439h.439a.877.877,0,0,0,0-1.755h-.439v-.439a.877.877,0,1,0-1.755,0v.439h-.439a.877.877,0,0,0,0,1.755h.439v.439a.877.877,0,0,0,.877.877" transform="translate(-6.556 -1.961)" fill="#464a51"/>
        <path id="Trazado_986523" data-name="Trazado 986523" d="M47.694,39.387a.877.877,0,0,0,.877-.877v-.439h.439a.877.877,0,0,0,0-1.755h-.439v-.439a.877.877,0,0,0-1.755,0v.439h-.439a.877.877,0,1,0,0,1.755h.439v.439a.877.877,0,0,0,.877.877" transform="translate(-5.576 -4.289)" fill="#464a51"/>
        <path id="Trazado_986524" data-name="Trazado 986524" d="M29.377,23.071h.439v.439a.877.877,0,0,0,1.755,0v-.439h.439a.877.877,0,0,0,0-1.755h-.439v-.439a.877.877,0,0,0-1.755,0v.439h-.439a.877.877,0,0,0,0,1.755" transform="translate(-3.492 -2.451)" fill="#464a51"/>
        <path id="Trazado_986525" data-name="Trazado 986525" d="M24.377,12.071h.439v.439a.877.877,0,0,0,1.755,0v-.439h.439a.877.877,0,0,0,0-1.755h-.439V9.877a.877.877,0,0,0-1.755,0v.439h-.439a.877.877,0,1,0,0,1.755" transform="translate(-2.88 -1.103)" fill="#464a51"/>
        <path id="Trazado_986526" data-name="Trazado 986526" d="M41.377,10.071h.439v.439a.877.877,0,1,0,1.755,0v-.439h.439a.877.877,0,1,0,0-1.755h-.439V7.877a.877.877,0,0,0-1.755,0v.439h-.439a.877.877,0,1,0,0,1.755" transform="translate(-4.963 -0.858)" fill="#464a51"/>
        <path id="Trazado_986527" data-name="Trazado 986527" d="M52.377,6.071h.439V6.51a.877.877,0,1,0,1.755,0V6.071h.439a.877.877,0,0,0,0-1.755h-.439V3.877a.877.877,0,0,0-1.755,0v.439h-.439a.877.877,0,1,0,0,1.755" transform="translate(-6.311 -0.368)" fill="#464a51"/>
        <path id="Trazado_986528" data-name="Trazado 986528" d="M45.377,3.071h.439V3.51a.877.877,0,1,0,1.755,0V3.071h.439a.877.877,0,1,0,0-1.755h-.439V.877a.877.877,0,0,0-1.755,0v.439h-.439a.877.877,0,1,0,0,1.755" transform="translate(-5.453 0)" fill="#464a51"/>
        <path id="Trazado_986529" data-name="Trazado 986529" d="M33.377,15.071h.439v.439a.877.877,0,0,0,1.755,0v-.439h.439a.877.877,0,1,0,0-1.755h-.439v-.439a.877.877,0,0,0-1.755,0v.439h-.439a.877.877,0,1,0,0,1.755" transform="translate(-3.983 -1.471)" fill="#464a51"/>
        <path id="Trazado_986530" data-name="Trazado 986530" d="M10.377,36.071h.439v.439a.877.877,0,0,0,1.755,0v-.439h.439a.877.877,0,0,0,0-1.755h-.439v-.439a.877.877,0,1,0-1.755,0v.439h-.439a.877.877,0,0,0,0,1.755" transform="translate(-1.164 -4.044)" fill="#464a51"/>
        <path id="Trazado_986531" data-name="Trazado 986531" d="M17.377,28.071h.439v.439a.877.877,0,0,0,1.755,0v-.439h.439a.877.877,0,1,0,0-1.755h-.439v-.439a.877.877,0,0,0-1.755,0v.439h-.439a.877.877,0,1,0,0,1.755" transform="translate(-2.022 -3.064)" fill="#464a51"/>
        <path id="Trazado_986532" data-name="Trazado 986532" d="M11.377,22.071h.439v.439a.877.877,0,1,0,1.755,0v-.439h.439a.877.877,0,0,0,0-1.755h-.439v-.439a.877.877,0,1,0-1.755,0v.439h-.439a.877.877,0,1,0,0,1.755" transform="translate(-1.287 -2.329)" fill="#464a51"/>
        <path id="Trazado_986533" data-name="Trazado 986533" d="M21.377,21.071h.439v.439a.877.877,0,0,0,1.755,0v-.439h.439a.877.877,0,1,0,0-1.755h-.439v-.439a.877.877,0,1,0-1.755,0v.439h-.439a.877.877,0,1,0,0,1.755" transform="translate(-2.512 -2.206)" fill="#464a51"/>
      </g>
    </g>
  </g>
</svg>
