<svg xmlns="http://www.w3.org/2000/svg" xmlns:xlink="http://www.w3.org/1999/xlink" width="108" height="108" viewBox="0 0 108 108">
  <defs>
    <filter id="Fondo" x="0" y="0" width="108" height="108" filterUnits="userSpaceOnUse">
      <feOffset dy="3" input="SourceAlpha"/>
      <feGaussianBlur stdDeviation="3" result="blur"/>
      <feFlood flood-opacity="0.161"/>
      <feComposite operator="in" in2="blur"/>
      <feComposite in="SourceGraphic"/>
    </filter>
    <clipPath id="clip-path">
      <rect id="Rectángulo_408328" data-name="Rectángulo 408328" width="60" height="60" fill="none"/>
    </clipPath>
  </defs>
  <g id="Icono" transform="translate(9 -689)">
    <g transform="matrix(1, 0, 0, 1, -9, 689)" filter="url(#Fondo)">
      <g id="Fondo-2" data-name="Fondo" transform="translate(9 6)" fill="#fee1ca">
        <path d="M 45 88.5 C 39.12687683105469 88.5 33.43022537231445 87.35007476806641 28.06830024719238 85.08217620849609 C 22.88852500915527 82.89131164550781 18.23629951477051 79.75458526611328 14.2408504486084 75.75914764404297 C 10.24541282653809 71.76370239257812 7.108687400817871 67.11147308349609 4.917825222015381 61.93170166015625 C 2.649924993515015 56.56977462768555 1.5 50.87312316894531 1.5 45 C 1.5 39.12687683105469 2.649924993515015 33.43022537231445 4.917825222015381 28.06830024719238 C 7.108687400817871 22.88852500915527 10.24541282653809 18.23629951477051 14.2408504486084 14.2408504486084 C 18.23629951477051 10.24541282653809 22.88852500915527 7.108687400817871 28.06830024719238 4.917825222015381 C 33.43022537231445 2.649924993515015 39.12687683105469 1.5 45 1.5 C 50.87312316894531 1.5 56.56977462768555 2.649924993515015 61.93170166015625 4.917825222015381 C 67.11147308349609 7.108687400817871 71.76370239257812 10.24541282653809 75.75914764404297 14.2408504486084 C 79.75458526611328 18.23629951477051 82.89131164550781 22.88852500915527 85.08217620849609 28.06830024719238 C 87.35007476806641 33.43022537231445 88.5 39.12687683105469 88.5 45 C 88.5 50.87312316894531 87.35007476806641 56.56977462768555 85.08217620849609 61.93170166015625 C 82.89131164550781 67.11147308349609 79.75458526611328 71.76370239257812 75.75914764404297 75.75914764404297 C 71.76370239257812 79.75458526611328 67.11147308349609 82.89131164550781 61.93170166015625 85.08217620849609 C 56.56977462768555 87.35007476806641 50.87312316894531 88.5 45 88.5 Z" stroke="none"/>
        <path d="M 45 3 C 39.32871246337891 3 33.82865524291992 4.110054016113281 28.65262985229492 6.299339294433594 C 23.65165710449219 8.414573669433594 19.15968322753906 11.44334411621094 15.301513671875 15.301513671875 C 11.44334411621094 19.15968322753906 8.414573669433594 23.65165710449219 6.299339294433594 28.65262985229492 C 4.110054016113281 33.82865524291992 3 39.32871246337891 3 45 C 3 50.67128753662109 4.110054016113281 56.17134475708008 6.299339294433594 61.34737396240234 C 8.414573669433594 66.34834289550781 11.44334411621094 70.84031677246094 15.301513671875 74.698486328125 C 19.15968322753906 78.55665588378906 23.65165710449219 81.58542633056641 28.65262985229492 83.70066070556641 C 33.82865524291992 85.88994598388672 39.32871246337891 87 45 87 C 50.67128753662109 87 56.17134475708008 85.88994598388672 61.34737396240234 83.70066070556641 C 66.34834289550781 81.58542633056641 70.84031677246094 78.55665588378906 74.698486328125 74.698486328125 C 78.55665588378906 70.84031677246094 81.58542633056641 66.34834289550781 83.70066070556641 61.34737396240234 C 85.88994598388672 56.17134475708008 87 50.67128753662109 87 45 C 87 39.32871246337891 85.88994598388672 33.82865524291992 83.70066070556641 28.65262985229492 C 81.58542633056641 23.65165710449219 78.55665588378906 19.15968322753906 74.698486328125 15.301513671875 C 70.84031677246094 11.44334411621094 66.34834289550781 8.414573669433594 61.34737396240234 6.299339294433594 C 56.17134475708008 4.110054016113281 50.67128753662109 3 45 3 M 45 0 C 69.85281372070312 0 90 20.14718627929688 90 45 C 90 69.85281372070312 69.85281372070312 90 45 90 C 20.14718627929688 90 0 69.85281372070312 0 45 C 0 20.14718627929688 20.14718627929688 0 45 0 Z" stroke="none" fill="#8a552c"/>
      </g>
    </g>
    <g id="Grupo_1148915" data-name="Grupo 1148915" transform="translate(17 713.491)">
      <rect id="Rectángulo_408322" data-name="Rectángulo 408322" width="52" height="48" transform="translate(1 1)" fill="#a2bdcd"/>
      <g id="Grupo_1148914" data-name="Grupo 1148914">
        <g id="Grupo_1148913" data-name="Grupo 1148913" clip-path="url(#clip-path)">
          <path id="Trazado_986534" data-name="Trazado 986534" d="M42,26A21,21,0,0,1,21,5V1H1V49H53V26Z" fill="#769fb6"/>
          <path id="Trazado_986535" data-name="Trazado 986535" d="M9,26H5A15,15,0,0,0,20,41V37A11,11,0,0,1,9,26" fill="#f47c94"/>
          <path id="Trazado_986536" data-name="Trazado 986536" d="M20,37v4A15,15,0,0,0,35,26H31A11,11,0,0,1,20,37" fill="#fd9"/>
          <path id="Trazado_986537" data-name="Trazado 986537" d="M24,7v4A11,11,0,0,1,35,22h4A15,15,0,0,0,24,7" fill="#e9f1f2"/>
          <path id="Trazado_986538" data-name="Trazado 986538" d="M5,26H9a10.962,10.962,0,0,1,3.222-7.778L9.393,15.393A14.957,14.957,0,0,0,5,26" fill="#e9f1f2"/>
          <path id="Trazado_986539" data-name="Trazado 986539" d="M20,11A14.957,14.957,0,0,0,9.393,15.393l2.829,2.829A10.962,10.962,0,0,1,20,15Z" fill="#f6b98d"/>
          <rect id="Rectángulo_408323" data-name="Rectángulo 408323" width="6" height="4" transform="translate(43 5)" fill="#ffc857"/>
          <rect id="Rectángulo_408324" data-name="Rectángulo 408324" width="6" height="4" transform="translate(47 22)" fill="#ee2f56"/>
          <rect id="Rectángulo_408325" data-name="Rectángulo 408325" width="6" height="4" transform="translate(47 26)" fill="#f15574"/>
          <rect id="Rectángulo_408326" data-name="Rectángulo 408326" width="6" height="4" transform="translate(47 30)" fill="#f47c94"/>
          <path id="Trazado_986540" data-name="Trazado 986540" d="M24,9v2A11,11,0,0,1,35,22h2A13,13,0,0,0,24,9" fill="#d0d8da"/>
          <path id="Trazado_986541" data-name="Trazado 986541" d="M9,26H7A13,13,0,0,0,20,39V37A11,11,0,0,1,9,26" fill="#f15574"/>
          <path id="Trazado_986542" data-name="Trazado 986542" d="M20,37v2A13,13,0,0,0,33,26H31A11,11,0,0,1,20,37" fill="#ffc857"/>
          <path id="Trazado_986543" data-name="Trazado 986543" d="M12.222,18.222l-1.414-1.414A12.956,12.956,0,0,0,7,26H9a10.965,10.965,0,0,1,3.222-7.778" fill="#d0d8da"/>
          <path id="Trazado_986544" data-name="Trazado 986544" d="M12.222,18.222A10.965,10.965,0,0,1,20,15V13a12.956,12.956,0,0,0-9.192,3.808Z" fill="#f3a268"/>
          <rect id="Rectángulo_408327" data-name="Rectángulo 408327" width="3" height="4" transform="translate(43 5)" fill="#ffb41f"/>
          <path id="Trazado_986545" data-name="Trazado 986545" d="M59,47S49.15,59,37,59,15,47,15,47s9.85-12,22-12S59,47,59,47" fill="#e9f1f2"/>
          <path id="Trazado_986546" data-name="Trazado 986546" d="M46,51C34.649,51,25.308,40.529,24.128,39.152A41.82,41.82,0,0,0,15,47s9.85,12,22,12S59,47,59,47s-.045-.055-.128-.152A24.6,24.6,0,0,1,46,51" fill="#d0d8da"/>
          <path id="Trazado_986547" data-name="Trazado 986547" d="M48,47A11,11,0,1,1,37,36,11,11,0,0,1,48,47" fill="#7b828e"/>
          <path id="Trazado_986548" data-name="Trazado 986548" d="M42,47a5,5,0,1,1-5-5,5,5,0,0,1,5,5" fill="#656b76"/>
          <path id="Trazado_986549" data-name="Trazado 986549" d="M37,47l6.637-2.212a7,7,0,0,0-4.425-4.425Z" fill="#d0d8da"/>
          <path id="Trazado_986550" data-name="Trazado 986550" d="M46,51c-8.03,0-15.049-5.238-18.89-8.792A10.991,10.991,0,1,0,47.261,50.94c-.419.028-.837.06-1.261.06" fill="#656b76"/>
          <path id="Trazado_986551" data-name="Trazado 986551" d="M32.084,46.165a4.974,4.974,0,0,0,8.67,4.1,29.287,29.287,0,0,1-8.67-4.1" fill="#545a63"/>
          <path id="Trazado_986552" data-name="Trazado 986552" d="M1,18a1,1,0,0,0,1-1V2H52V21H47a1,1,0,0,0-1,1V34a1,1,0,0,0,1,1h5v2.073a1,1,0,0,0,2,0V1a1,1,0,0,0-1-1H1A1,1,0,0,0,0,1V17a1,1,0,0,0,1,1m47,9h4v2H48Zm0-4h4v2H48Zm0,8h4v2H48Z" fill="#464a51"/>
          <path id="Trazado_986553" data-name="Trazado 986553" d="M24,14a1,1,0,0,0,0,2,6.006,6.006,0,0,1,6,6,1,1,0,0,0,2,0,8.009,8.009,0,0,0-8-8" fill="#464a51"/>
          <path id="Trazado_986554" data-name="Trazado 986554" d="M8,10A1,1,0,0,0,8,8H5a1,1,0,0,0,0,2Z" fill="#464a51"/>
          <path id="Trazado_986555" data-name="Trazado 986555" d="M39,6a1,1,0,0,0,0-2H34a1,1,0,0,0-.781.376l-2.5,3.118A15.9,15.9,0,0,0,24,6a1,1,0,0,0-1,1v4a1,1,0,0,0,1,1A10.011,10.011,0,0,1,34,22a1,1,0,0,0,1,1h4a1,1,0,0,0,1-1,16,16,0,0,0-2.042-7.809,1,1,0,1,0-1.744.978A14.011,14.011,0,0,1,37.964,21H35.959A12.02,12.02,0,0,0,25,10.042V8.035a13.888,13.888,0,0,1,4.435,1.071l-.216.27a1,1,0,1,0,1.562,1.248l.471-.588a14.11,14.11,0,0,1,2.719,2.144,1,1,0,1,0,1.425-1.4,16.159,16.159,0,0,0-2.888-2.311L34.48,6Z" fill="#464a51"/>
          <path id="Trazado_986556" data-name="Trazado 986556" d="M43,10h6a1,1,0,0,0,1-1V5a1,1,0,0,0-1-1H43a1,1,0,0,0-1,1V9a1,1,0,0,0,1,1m1-4h4V8H44Z" fill="#464a51"/>
          <path id="Trazado_986557" data-name="Trazado 986557" d="M43,14h6a1,1,0,0,0,0-2H43a1,1,0,0,0,0,2" fill="#464a51"/>
          <path id="Trazado_986558" data-name="Trazado 986558" d="M44,18h5a1,1,0,0,0,0-2H44a1,1,0,0,0,0,2" fill="#464a51"/>
          <path id="Trazado_986559" data-name="Trazado 986559" d="M20,23H15a1,1,0,0,0,0,2h5a1,1,0,0,0,0-2" fill="#464a51"/>
          <path id="Trazado_986560" data-name="Trazado 986560" d="M25,32a1,1,0,0,0,0-2H23a1,1,0,0,0,0,2Z" fill="#464a51"/>
          <path id="Trazado_986561" data-name="Trazado 986561" d="M8,44a1,1,0,0,0,0-2H5a1,1,0,0,0,0,2Z" fill="#464a51"/>
          <path id="Trazado_986562" data-name="Trazado 986562" d="M59.773,46.366C59.358,45.861,49.479,34,37,34a20.517,20.517,0,0,0-3.327.278A15.95,15.95,0,0,0,36,26a1,1,0,0,0-1-1H31a1,1,0,0,0-1,1,9.973,9.973,0,0,1-.279,2.307l-2.014-2.014A1,1,0,0,0,27,26H23a1,1,0,0,0,0,2h3.586l2.387,2.387A9.991,9.991,0,1,1,11.347,21H20a1,1,0,0,0,0-2H12.864c.023-.023.042-.048.065-.071A9.936,9.936,0,0,1,20,16a1,1,0,0,0,1-1V11a1,1,0,0,0-1-1,16.049,16.049,0,0,0-4.321.6L11.848,4.47A1,1,0,0,0,11,4H5A1,1,0,0,0,5,6h5.445l3.3,5.272A15.974,15.974,0,0,0,9,37.587L8.586,38H5a1,1,0,0,0,0,2H9a1,1,0,0,0,.707-.293l.833-.833a15.888,15.888,0,0,0,8.13,3.059,39.632,39.632,0,0,0-4.443,4.433,1,1,0,0,0,0,1.268c.035.043.144.174.311.366H2V21a1,1,0,0,0-2,0V49a1,1,0,0,0,1,1H16.428C20.066,53.6,27.828,60,37,60c4.572,0,9.317-1.6,14.1-4.755a1,1,0,1,0-1.1-1.67,29.786,29.786,0,0,1-5.816,3.013A11.955,11.955,0,0,0,44.173,37.4c6.663,2.534,11.841,7.782,13.5,9.6a42.272,42.272,0,0,1-4.524,4.265,1,1,0,0,0,1.262,1.552,40.941,40.941,0,0,0,5.365-5.183,1,1,0,0,0,0-1.269M30.478,31.83a.989.989,0,0,0,1.229-1.537l-.373-.373A11.845,11.845,0,0,0,31.959,27h2.005a13.991,13.991,0,0,1-3.247,7.974A32.178,32.178,0,0,0,21,40.061v-2.1a12.014,12.014,0,0,0,9.478-6.128M15.152,13.53a1,1,0,1,0,1.7-1.06l-.058-.093A14.139,14.139,0,0,1,19,12.035v2.006a11.881,11.881,0,0,0-6.747,2.8l-1.414-1.414A13.87,13.87,0,0,1,14.821,13ZM9.425,16.839l1.413,1.414c-.2.241-.4.492-.58.747H9a1,1,0,0,0,0,2h.086a11.911,11.911,0,0,0-1.045,4H6.035a13.864,13.864,0,0,1,3.39-8.161M6.035,27H8.041A12.02,12.02,0,0,0,19,37.958v2.007a13.914,13.914,0,0,1-7.1-2.555A.982.982,0,0,0,10.436,36.2a13.958,13.958,0,0,1-4.4-9.2M47,47a10,10,0,1,1-19.805-1.965,1,1,0,1,0-1.961-.39A12.148,12.148,0,0,0,25,47a11.979,11.979,0,0,0,4.827,9.6c-6.663-2.534-11.841-7.782-13.5-9.6,1.652-1.816,6.82-7.059,13.481-9.593a12.083,12.083,0,0,0-2.948,3.188,1,1,0,0,0,1.69,1.07A9.993,9.993,0,0,1,47,47" fill="#464a51"/>
          <path id="Trazado_986563" data-name="Trazado 986563" d="M39.529,39.414a1,1,0,0,0-1.264.632l-.348,1.042A5.44,5.44,0,0,0,37,41a6,6,0,1,0,6,6,5.457,5.457,0,0,0-.087-.917l1.041-.347a1,1,0,0,0,.632-1.265,8.035,8.035,0,0,0-5.057-5.057m.289,2.294a6.054,6.054,0,0,1,2.474,2.474l-3.711,1.237ZM41,47a4,4,0,1,1-4-4c.089,0,.182.014.273.021l-1.221,3.663A1,1,0,0,0,37,48a1.014,1.014,0,0,0,.316-.051l3.662-1.221c.008.091.022.184.022.272" fill="#464a51"/>
        </g>
      </g>
    </g>
  </g>
</svg>
