<svg xmlns="http://www.w3.org/2000/svg" xmlns:xlink="http://www.w3.org/1999/xlink" width="108" height="108" viewBox="0 0 108 108">
  <defs>
    <filter id="Fondo" x="0" y="0" width="108" height="108" filterUnits="userSpaceOnUse">
      <feOffset dy="3" input="SourceAlpha"/>
      <feGaussianBlur stdDeviation="3" result="blur"/>
      <feFlood flood-opacity="0.161"/>
      <feComposite operator="in" in2="blur"/>
      <feComposite in="SourceGraphic"/>
    </filter>
    <clipPath id="clip-path">
      <rect id="Rectángulo_408332" data-name="Rectángulo 408332" width="60" height="60" fill="none"/>
    </clipPath>
  </defs>
  <g id="Icono" transform="translate(9 -689)">
    <g transform="matrix(1, 0, 0, 1, -9, 689)" filter="url(#Fondo)">
      <g id="Fondo-2" data-name="Fondo" transform="translate(9 6)" fill="#fee1ca">
        <path d="M 45 88.5 C 39.12687683105469 88.5 33.43022537231445 87.35007476806641 28.06830024719238 85.08217620849609 C 22.88852500915527 82.89131164550781 18.23629951477051 79.75458526611328 14.2408504486084 75.75914764404297 C 10.24541282653809 71.76370239257812 7.108687400817871 67.11147308349609 4.917825222015381 61.93170166015625 C 2.649924993515015 56.56977462768555 1.5 50.87312316894531 1.5 45 C 1.5 39.12687683105469 2.649924993515015 33.43022537231445 4.917825222015381 28.06830024719238 C 7.108687400817871 22.88852500915527 10.24541282653809 18.23629951477051 14.2408504486084 14.2408504486084 C 18.23629951477051 10.24541282653809 22.88852500915527 7.108687400817871 28.06830024719238 4.917825222015381 C 33.43022537231445 2.649924993515015 39.12687683105469 1.5 45 1.5 C 50.87312316894531 1.5 56.56977462768555 2.649924993515015 61.93170166015625 4.917825222015381 C 67.11147308349609 7.108687400817871 71.76370239257812 10.24541282653809 75.75914764404297 14.2408504486084 C 79.75458526611328 18.23629951477051 82.89131164550781 22.88852500915527 85.08217620849609 28.06830024719238 C 87.35007476806641 33.43022537231445 88.5 39.12687683105469 88.5 45 C 88.5 50.87312316894531 87.35007476806641 56.56977462768555 85.08217620849609 61.93170166015625 C 82.89131164550781 67.11147308349609 79.75458526611328 71.76370239257812 75.75914764404297 75.75914764404297 C 71.76370239257812 79.75458526611328 67.11147308349609 82.89131164550781 61.93170166015625 85.08217620849609 C 56.56977462768555 87.35007476806641 50.87312316894531 88.5 45 88.5 Z" stroke="none"/>
        <path d="M 45 3 C 39.32871246337891 3 33.82865524291992 4.110054016113281 28.65262985229492 6.299339294433594 C 23.65165710449219 8.414573669433594 19.15968322753906 11.44334411621094 15.301513671875 15.301513671875 C 11.44334411621094 19.15968322753906 8.414573669433594 23.65165710449219 6.299339294433594 28.65262985229492 C 4.110054016113281 33.82865524291992 3 39.32871246337891 3 45 C 3 50.67128753662109 4.110054016113281 56.17134475708008 6.299339294433594 61.34737396240234 C 8.414573669433594 66.34834289550781 11.44334411621094 70.84031677246094 15.301513671875 74.698486328125 C 19.15968322753906 78.55665588378906 23.65165710449219 81.58542633056641 28.65262985229492 83.70066070556641 C 33.82865524291992 85.88994598388672 39.32871246337891 87 45 87 C 50.67128753662109 87 56.17134475708008 85.88994598388672 61.34737396240234 83.70066070556641 C 66.34834289550781 81.58542633056641 70.84031677246094 78.55665588378906 74.698486328125 74.698486328125 C 78.55665588378906 70.84031677246094 81.58542633056641 66.34834289550781 83.70066070556641 61.34737396240234 C 85.88994598388672 56.17134475708008 87 50.67128753662109 87 45 C 87 39.32871246337891 85.88994598388672 33.82865524291992 83.70066070556641 28.65262985229492 C 81.58542633056641 23.65165710449219 78.55665588378906 19.15968322753906 74.698486328125 15.301513671875 C 70.84031677246094 11.44334411621094 66.34834289550781 8.414573669433594 61.34737396240234 6.299339294433594 C 56.17134475708008 4.110054016113281 50.67128753662109 3 45 3 M 45 0 C 69.85281372070312 0 90 20.14718627929688 90 45 C 90 69.85281372070312 69.85281372070312 90 45 90 C 20.14718627929688 90 0 69.85281372070312 0 45 C 0 20.14718627929688 20.14718627929688 0 45 0 Z" stroke="none" fill="#8a552c"/>
      </g>
    </g>
    <g id="Grupo_1148918" data-name="Grupo 1148918" transform="translate(16 709.491)">
      <rect id="Rectángulo_408329" data-name="Rectángulo 408329" width="42" height="36" transform="translate(3 5)" fill="#d0d8da"/>
      <g id="Grupo_1148917" data-name="Grupo 1148917">
        <g id="Grupo_1148916" data-name="Grupo 1148916" clip-path="url(#clip-path)">
          <path id="Trazado_986564" data-name="Trazado 986564" d="M33,36A22,22,0,0,1,11,14V11a3,3,0,0,1,3-3H45V5H3V41H45V36Z" fill="#b8bebf"/>
          <path id="Trazado_986565" data-name="Trazado 986565" d="M3,5H45a2,2,0,0,0,0-4H3A2,2,0,0,0,3,5" fill="#e9f1f2"/>
          <path id="Trazado_986566" data-name="Trazado 986566" d="M3,45H45a2,2,0,0,0,0-4H3a2,2,0,0,0,0,4" fill="#e9f1f2"/>
          <path id="Trazado_986567" data-name="Trazado 986567" d="M26,54a2,2,0,1,1-2-2,2,2,0,0,1,2,2" fill="#e9f1f2"/>
          <path id="Trazado_986568" data-name="Trazado 986568" d="M25,55a2,2,0,0,1-2-2,1.974,1.974,0,0,1,.18-.82,2,2,0,1,0,2.64,2.64A1.974,1.974,0,0,1,25,55" fill="#d0d8da"/>
          <path id="Trazado_986569" data-name="Trazado 986569" d="M19,13A12,12,0,1,0,31,25H19Z" fill="#f47c94"/>
          <path id="Trazado_986570" data-name="Trazado 986570" d="M7,25a11.99,11.99,0,0,0,18.887,9.818,22.01,22.01,0,0,1-14.793-18.83A11.961,11.961,0,0,0,7,25" fill="#f15574"/>
          <path id="Trazado_986571" data-name="Trazado 986571" d="M15,22a2,2,0,1,1-2-2,2,2,0,0,1,2,2" fill="#a2bdcd"/>
          <path id="Trazado_986572" data-name="Trazado 986572" d="M13,24a1.965,1.965,0,0,0,.394-.04,21.753,21.753,0,0,1-1.457-3.648A2,2,0,0,0,13,24" fill="#769fb6"/>
          <path id="Trazado_986573" data-name="Trazado 986573" d="M23,9V21H35A12,12,0,0,0,23,9" fill="#a2bdcd"/>
          <rect id="Rectángulo_408330" data-name="Rectángulo 408330" width="4" height="4" transform="translate(37 9)" fill="#f47c94"/>
          <path id="Trazado_986574" data-name="Trazado 986574" d="M47,3a2.006,2.006,0,0,1-2,2H3a1.955,1.955,0,0,1-1.41-.59A1.955,1.955,0,0,1,1,3,2.006,2.006,0,0,1,3,1a1.955,1.955,0,0,0,.59,1.41A1.955,1.955,0,0,0,5,3Z" fill="#d0d8da"/>
          <path id="Trazado_986575" data-name="Trazado 986575" d="M47,43a2.006,2.006,0,0,1-2,2H3a1.955,1.955,0,0,1-1.41-.59A1.955,1.955,0,0,1,1,43a2.006,2.006,0,0,1,2-2,2.015,2.015,0,0,0,2,2Z" fill="#d0d8da"/>
          <path id="Trazado_986576" data-name="Trazado 986576" d="M53,41H40l-2.927-.488.878,6.146L40,48V59H59V47a6,6,0,0,0-6-6" fill="#769fb6"/>
          <path id="Trazado_986577" data-name="Trazado 986577" d="M59,54v5H40V48l-2.05-1.34-.88-6.15L40,41h3v7a6,6,0,0,0,6,6Z" fill="#608ea9"/>
          <path id="Trazado_986578" data-name="Trazado 986578" d="M52,55h2V48a2,2,0,0,0-2,2Z" fill="#608ea9"/>
          <path id="Trazado_986579" data-name="Trazado 986579" d="M48,24H42v6H54a6,6,0,0,0-6-6" fill="#7b828e"/>
          <path id="Trazado_986580" data-name="Trazado 986580" d="M54,30H42V24h2.13A3.992,3.992,0,0,0,48,27h5.19A5.857,5.857,0,0,1,54,30" fill="#656b76"/>
          <path id="Trazado_986581" data-name="Trazado 986581" d="M51,42l-3,3-3-3V39h6Z" fill="#f6b98d"/>
          <path id="Trazado_986582" data-name="Trazado 986582" d="M51,40.47a6.021,6.021,0,0,1-3.37,1.5,5.98,5.98,0,0,0,2.44.96L48,45l-3-3V39h6Z" fill="#f3a268"/>
          <path id="Trazado_986583" data-name="Trazado 986583" d="M48,41h0a6,6,0,0,1-6-6V30a4.828,4.828,0,0,0,3.414-1.414L46,28a6.826,6.826,0,0,0,4.828,2H54v5a6,6,0,0,1-6,6" fill="#f9cdae"/>
          <path id="Trazado_986584" data-name="Trazado 986584" d="M44,31.55V33a6,6,0,0,0,9.11,5.13A5.994,5.994,0,0,1,42,35V30a4.829,4.829,0,0,0,3.41-1.41L46,28a6.835,6.835,0,0,0,4.83,2H54v2H50.83A6.835,6.835,0,0,1,46,30l-.59.59a4.829,4.829,0,0,1-1.41.96" fill="#f6b98d"/>
          <rect id="Rectángulo_408331" data-name="Rectángulo 408331" width="5" height="8" transform="translate(54 51)" fill="#f9cdae"/>
          <path id="Trazado_986585" data-name="Trazado 986585" d="M53,41l-2,7-3-3,3-3V41Z" fill="#608ea9"/>
          <path id="Trazado_986586" data-name="Trazado 986586" d="M43,41v7l5-3-3-3V41Z" fill="#608ea9"/>
          <path id="Trazado_986587" data-name="Trazado 986587" d="M37.073,40.512,34,40V34a2,2,0,0,0-4,0v7.12a4,4,0,0,0,2.731,3.793l5.22,1.745Z" fill="#f9cdae"/>
          <path id="Trazado_986588" data-name="Trazado 986588" d="M53,41l-1,6-4-2,3-3V41Z" fill="#a2bdcd"/>
          <path id="Trazado_986589" data-name="Trazado 986589" d="M43,41l1,6,4-2-3-3V41Z" fill="#a2bdcd"/>
          <path id="Trazado_986590" data-name="Trazado 986590" d="M59,51v1a3,3,0,0,0-3,3v4H54V51Z" fill="#f6b98d"/>
          <path id="Trazado_986591" data-name="Trazado 986591" d="M37.95,46.66l-5.22-1.75A3.991,3.991,0,0,1,30,41.12V34a2.015,2.015,0,0,1,2-2v6.98a4,4,0,0,0,2.9,3.85,1.032,1.032,0,0,0,.3.04,1.1,1.1,0,0,0,1.09-1.22l-.14-1.29.92.15Z" fill="#f6b98d"/>
          <path id="Trazado_986592" data-name="Trazado 986592" d="M20,33a1,1,0,1,0,1-1,1,1,0,0,0-1,1" fill="#464a51"/>
          <path id="Trazado_986593" data-name="Trazado 986593" d="M16,28a1,1,0,1,0,1,1,1,1,0,0,0-1-1" fill="#464a51"/>
          <path id="Trazado_986594" data-name="Trazado 986594" d="M19.2,28.4l-3,4a1,1,0,1,0,1.6,1.2l3-4a1,1,0,1,0-1.6-1.2" fill="#464a51"/>
          <path id="Trazado_986595" data-name="Trazado 986595" d="M13,19a3,3,0,1,0,3,3,3,3,0,0,0-3-3m0,4a1,1,0,1,1,1-1,1,1,0,0,1-1,1" fill="#464a51"/>
          <path id="Trazado_986596" data-name="Trazado 986596" d="M42,9a1,1,0,0,0-1-1H37a1,1,0,0,0-1,1v1H33a1,1,0,0,0-.781.376l-.678.847A12.935,12.935,0,0,0,23,8a1,1,0,0,0-1,1V21a1,1,0,0,0,2,0V10.045a10.949,10.949,0,0,1,6.293,2.738l-2.074,2.593a1,1,0,1,0,1.562,1.248l1.893-2.366A10.932,10.932,0,0,1,33.955,20H27a1,1,0,0,0,0,2h8a1,1,0,0,0,1-1,12.937,12.937,0,0,0-3.044-8.344L33.48,12H36v1a1,1,0,0,0,1,1h4a1,1,0,0,0,1-1Zm-2,3H38V10h2Z" fill="#464a51"/>
          <path id="Trazado_986597" data-name="Trazado 986597" d="M41,16H38a1,1,0,0,0,0,2h3a1,1,0,0,0,0-2" fill="#464a51"/>
          <path id="Trazado_986598" data-name="Trazado 986598" d="M41,20H40a1,1,0,0,0,0,2h1a1,1,0,0,0,0-2" fill="#464a51"/>
          <path id="Trazado_986599" data-name="Trazado 986599" d="M38,25H35a1,1,0,0,0,0,2h3a1,1,0,0,0,0-2" fill="#464a51"/>
          <path id="Trazado_986600" data-name="Trazado 986600" d="M38,29H36a1,1,0,0,0,0,2h2a1,1,0,0,0,0-2" fill="#464a51"/>
          <path id="Trazado_986601" data-name="Trazado 986601" d="M6,9A1,1,0,1,0,7,8,1,1,0,0,0,6,9" fill="#464a51"/>
          <path id="Trazado_986602" data-name="Trazado 986602" d="M10,9a1,1,0,1,0,1-1,1,1,0,0,0-1,1" fill="#464a51"/>
          <path id="Trazado_986603" data-name="Trazado 986603" d="M14,9a1,1,0,1,0,1-1,1,1,0,0,0-1,1" fill="#464a51"/>
          <path id="Trazado_986604" data-name="Trazado 986604" d="M8,37a1,1,0,1,0-1,1,1,1,0,0,0,1-1" fill="#464a51"/>
          <path id="Trazado_986605" data-name="Trazado 986605" d="M35,39.153V34a3,3,0,0,0-3-3,2.972,2.972,0,0,0-1.858.663A12.906,12.906,0,0,0,32,25a1,1,0,0,0-1-1H20V13a1,1,0,0,0-1-1A13,13,0,0,0,7.511,31.078a1,1,0,1,0,1.767-.937A10.871,10.871,0,0,1,8,25,11.015,11.015,0,0,1,18,14.045V25a1,1,0,0,0,1,1H29.955a10.987,10.987,0,0,1-18.438,7.046,1,1,0,1,0-1.362,1.464,12.96,12.96,0,0,0,19-1.415A2.947,2.947,0,0,0,29,34v6H4V6H44V20a1,1,0,0,0,2,0V5.816A2.993,2.993,0,0,0,45,0H37a1,1,0,0,0,0,2h8a1,1,0,0,1,0,2H3A1,1,0,0,1,3,2H33a1,1,0,0,0,0-2H3A2.993,2.993,0,0,0,2,5.816V40.184A2.993,2.993,0,0,0,3,46h9a1,1,0,0,0,0-2H3a1,1,0,0,1,0-2H29.083a4.986,4.986,0,0,0,.832,2H16a1,1,0,0,0,0,2h7v5.184a3,3,0,1,0,2,0V46h7.828l4.683,1.566L39,48.54V59a1,1,0,0,0,2,0V48a1,1,0,0,0-.452-.836L38.877,46.07,38.4,42.725l-.143-1,1.58.263A.893.893,0,0,0,40,42h2.153l.86,5.165a1,1,0,0,0,1.434.73L47,46.618V59a1,1,0,0,0,2,0V46.618L51.552,47.9a1,1,0,0,0,1.434-.73l.847-5.081A5,5,0,0,1,58,47v3H55V49a1,1,0,0,0-2,0V59a1,1,0,0,0,2,0V52h3v7a1,1,0,0,0,2,0V47a7.008,7.008,0,0,0-7-7h-.111A6.977,6.977,0,0,0,55,35V34a1,1,0,0,0-2,0v1a5,5,0,0,1-10,0V30.912a5.887,5.887,0,0,0,3.044-1.543A7.761,7.761,0,0,0,50.828,31H54a1,1,0,0,0,1-1,7.008,7.008,0,0,0-7-7H42a1,1,0,0,0-1,1V35a6.977,6.977,0,0,0,2.11,5H40.083ZM43,25h5a5.009,5.009,0,0,1,4.9,4H50.828a5.787,5.787,0,0,1-4.121-1.707,1,1,0,0,0-1.414,0l-.586.586A3.847,3.847,0,0,1,43,28.865ZM24,55a1,1,0,1,1,1-1,1,1,0,0,1-1,1m7-21a1,1,0,0,1,2,0v6a1,1,0,0,0,.836.986l2.35.392.546,3.819-3.683-1.232A3,3,0,0,1,31,41.12Zm18.839,7.747L48,43.586l-1.84-1.839a6.814,6.814,0,0,0,3.679,0M44.763,45.5,44.3,42.713l2.012,2.013Zm6.473,0-1.548-.774L51.7,42.713Z" fill="#464a51"/>
          <path id="Trazado_986606" data-name="Trazado 986606" d="M45,34a1,1,0,1,0,1-1,1,1,0,0,0-1,1" fill="#464a51"/>
          <path id="Trazado_986607" data-name="Trazado 986607" d="M50,33a1,1,0,1,0,1,1,1,1,0,0,0-1-1" fill="#464a51"/>
        </g>
      </g>
    </g>
  </g>
</svg>
