<svg xmlns="http://www.w3.org/2000/svg" xmlns:xlink="http://www.w3.org/1999/xlink" width="108" height="108" viewBox="0 0 108 108">
  <defs>
    <filter id="Trazado_982547" x="0" y="0" width="108" height="108" filterUnits="userSpaceOnUse">
      <feOffset dy="3" input="SourceAlpha"/>
      <feGaussianBlur stdDeviation="3" result="blur"/>
      <feFlood flood-opacity="0.161"/>
      <feComposite operator="in" in2="blur"/>
      <feComposite in="SourceGraphic"/>
    </filter>
    <clipPath id="clip-path">
      <rect id="Rectángulo_408336" data-name="Rectángulo 408336" width="53" height="60" fill="none"/>
    </clipPath>
  </defs>
  <g id="Grupo_1148883" data-name="Grupo 1148883" transform="translate(9 6)">
    <g id="Grupo_1146701" data-name="Grupo 1146701">
      <g id="Grupo_1146627" data-name="Grupo 1146627">
        <g transform="matrix(1, 0, 0, 1, -9, -6)" filter="url(#Trazado_982547)">
          <g id="Trazado_982547-2" data-name="Trazado 982547" transform="translate(9 6)" fill="#eaf4fb">
            <path d="M 45 88.5 C 39.12687683105469 88.5 33.43022537231445 87.35007476806641 28.06830024719238 85.08217620849609 C 22.88852500915527 82.89131164550781 18.23629951477051 79.75458526611328 14.2408504486084 75.75914764404297 C 10.24541282653809 71.76370239257812 7.108687400817871 67.11147308349609 4.917825222015381 61.93170166015625 C 2.649924993515015 56.56977462768555 1.5 50.87312316894531 1.5 45 C 1.5 39.12687683105469 2.649924993515015 33.43022537231445 4.917825222015381 28.06830024719238 C 7.108687400817871 22.88852500915527 10.24541282653809 18.23629951477051 14.2408504486084 14.2408504486084 C 18.23629951477051 10.24541282653809 22.88852500915527 7.108687400817871 28.06830024719238 4.917825222015381 C 33.43022537231445 2.649924993515015 39.12687683105469 1.5 45 1.5 C 50.87312316894531 1.5 56.56977462768555 2.649924993515015 61.93170166015625 4.917825222015381 C 67.11147308349609 7.108687400817871 71.76370239257812 10.24541282653809 75.75914764404297 14.2408504486084 C 79.75458526611328 18.23629951477051 82.89131164550781 22.88852500915527 85.08217620849609 28.06830024719238 C 87.35007476806641 33.43022537231445 88.5 39.12687683105469 88.5 45 C 88.5 50.87312316894531 87.35007476806641 56.56977462768555 85.08217620849609 61.93170166015625 C 82.89131164550781 67.11147308349609 79.75458526611328 71.76370239257812 75.75914764404297 75.75914764404297 C 71.76370239257812 79.75458526611328 67.11147308349609 82.89131164550781 61.93170166015625 85.08217620849609 C 56.56977462768555 87.35007476806641 50.87312316894531 88.5 45 88.5 Z" stroke="none"/>
            <path d="M 45 3 C 39.32871246337891 3 33.82865524291992 4.110054016113281 28.65262985229492 6.299339294433594 C 23.65165710449219 8.414573669433594 19.15968322753906 11.44334411621094 15.301513671875 15.301513671875 C 11.44334411621094 19.15968322753906 8.414573669433594 23.65165710449219 6.299339294433594 28.65262985229492 C 4.110054016113281 33.82865524291992 3 39.32871246337891 3 45 C 3 50.67128753662109 4.110054016113281 56.17134475708008 6.299339294433594 61.34737396240234 C 8.414573669433594 66.34834289550781 11.44334411621094 70.84031677246094 15.301513671875 74.698486328125 C 19.15968322753906 78.55665588378906 23.65165710449219 81.58542633056641 28.65262985229492 83.70066070556641 C 33.82865524291992 85.88994598388672 39.32871246337891 87 45 87 C 50.67128753662109 87 56.17134475708008 85.88994598388672 61.34737396240234 83.70066070556641 C 66.34834289550781 81.58542633056641 70.84031677246094 78.55665588378906 74.698486328125 74.698486328125 C 78.55665588378906 70.84031677246094 81.58542633056641 66.34834289550781 83.70066070556641 61.34737396240234 C 85.88994598388672 56.17134475708008 87 50.67128753662109 87 45 C 87 39.32871246337891 85.88994598388672 33.82865524291992 83.70066070556641 28.65262985229492 C 81.58542633056641 23.65165710449219 78.55665588378906 19.15968322753906 74.698486328125 15.301513671875 C 70.84031677246094 11.44334411621094 66.34834289550781 8.414573669433594 61.34737396240234 6.299339294433594 C 56.17134475708008 4.110054016113281 50.67128753662109 3 45 3 M 45 0 C 69.85281372070312 0 90 20.14718627929688 90 45 C 90 69.85281372070312 69.85281372070312 90 45 90 C 20.14718627929688 90 0 69.85281372070312 0 45 C 0 20.14718627929688 20.14718627929688 0 45 0 Z" stroke="none" fill="#205277"/>
          </g>
        </g>
        <g id="Grupo_1148920" data-name="Grupo 1148920" transform="translate(15 15.133)">
          <g id="Grupo_1148919" data-name="Grupo 1148919" clip-path="url(#clip-path)">
            <path id="Trazado_986608" data-name="Trazado 986608" d="M48,49H12a4,4,0,0,1-4-4V21a4,4,0,0,1,4-4H48a4,4,0,0,1,4,4V45a4,4,0,0,1-4,4" fill="#a2bdcd"/>
            <path id="Trazado_986609" data-name="Trazado 986609" d="M28,17H12a4,4,0,0,0-4,4V45a4,4,0,0,0,4,4H48a4,4,0,0,0,4-4V41Z" fill="#769fb6"/>
            <rect id="Rectángulo_408333" data-name="Rectángulo 408333" width="36" height="24" transform="translate(12 21)" fill="#e9f1f2"/>
            <path id="Trazado_986610" data-name="Trazado 986610" d="M48,37,32,21H12V45H48Z" fill="#d0d8da"/>
            <path id="Trazado_986611" data-name="Trazado 986611" d="M45.5,55h-31a4,4,0,0,0-4,4h39a4,4,0,0,0-4-4" fill="#e9f1f2"/>
            <path id="Trazado_986612" data-name="Trazado 986612" d="M42,55H18l1.286-.514A5.91,5.91,0,0,0,23,49H37a5.91,5.91,0,0,0,3.714,5.486Z" fill="#d0d8da"/>
            <path id="Trazado_986613" data-name="Trazado 986613" d="M36,23a2,2,0,1,1-2-2,2,2,0,0,1,2,2" fill="#f47c94"/>
            <path id="Trazado_986614" data-name="Trazado 986614" d="M32,23a2,2,0,0,0,3.414,1.414l-2.828-2.828A1.994,1.994,0,0,0,32,23" fill="#f15574"/>
            <path id="Trazado_986615" data-name="Trazado 986615" d="M16,57a2,2,0,0,1-1.995-1.95A3.986,3.986,0,0,0,10.5,59h39a3.955,3.955,0,0,0-.555-2Z" fill="#d0d8da"/>
            <path id="Trazado_986616" data-name="Trazado 986616" d="M22,55H18l1.286-.514A5.91,5.91,0,0,0,23,49H37Z" fill="#b8bebf"/>
            <path id="Trazado_986617" data-name="Trazado 986617" d="M5,16A11,11,0,1,0,16,5V16Z" fill="#f47c94"/>
            <path id="Trazado_986618" data-name="Trazado 986618" d="M1,12H12V1A11,11,0,0,0,1,12" fill="#a2bdcd"/>
            <path id="Trazado_986619" data-name="Trazado 986619" d="M12,5a7,7,0,0,0-7,7h7Z" fill="#769fb6"/>
            <path id="Trazado_986620" data-name="Trazado 986620" d="M16,23A7,7,0,0,0,16,9v7H9a7,7,0,0,0,7,7" fill="#f15574"/>
            <rect id="Rectángulo_408334" data-name="Rectángulo 408334" width="11" height="4" transform="translate(38 1)" fill="#f47c94"/>
            <rect id="Rectángulo_408335" data-name="Rectángulo 408335" width="11" height="2" transform="translate(38 3)" fill="#f15574"/>
            <path id="Trazado_986621" data-name="Trazado 986621" d="M52,31a1,1,0,0,0,1-1V21a5.006,5.006,0,0,0-5-5H28a11.932,11.932,0,0,0-2.551-7.371L28.535,4H34a1,1,0,0,0,0-2H28a1,1,0,0,0-.832.445l-3.12,4.68A11.938,11.938,0,0,0,16,4a1,1,0,0,0-1,1V15H5a1,1,0,0,0-1,1,11.938,11.938,0,0,0,3,7.911V45a5.006,5.006,0,0,0,5,5h9.886a4.871,4.871,0,0,1-2.972,3.557L17.807,54H14.5a5.006,5.006,0,0,0-5,5,1,1,0,0,0,1,1H35a1,1,0,0,0,0-2H11.671A3.006,3.006,0,0,1,14.5,56h31a3,3,0,0,1,2.828,2H39a1,1,0,0,0,0,2H49.5a1,1,0,0,0,1-1,5.006,5.006,0,0,0-5-5H42.192l-1.107-.443A4.87,4.87,0,0,1,38.114,50H48a5.006,5.006,0,0,0,5-5V34a1,1,0,0,0-2,0V45a3,3,0,0,1-3,3H12a3,3,0,0,1-3-3V25.727a11.947,11.947,0,0,0,13.8.157,1,1,0,0,0-1.135-1.647A9.995,9.995,0,0,1,6.05,17H16a1,1,0,0,0,1-1V6.05a9.961,9.961,0,0,1,5.927,2.756l-1.759,2.639a1,1,0,0,0,1.664,1.11L24.268,10.4a9.949,9.949,0,0,1-.032,11.265A1,1,0,0,0,25.884,22.8,11.911,11.911,0,0,0,27.827,18H48a3,3,0,0,1,3,3v9a1,1,0,0,0,1,1M36.071,50a6.862,6.862,0,0,0,2.062,4H21.866a6.854,6.854,0,0,0,2.062-4Z" fill="#464a51"/>
            <path id="Trazado_986622" data-name="Trazado 986622" d="M12,30a1,1,0,0,0-1,1V45a1,1,0,0,0,1,1H48a1,1,0,0,0,0-2H13V31a1,1,0,0,0-1-1" fill="#464a51"/>
            <path id="Trazado_986623" data-name="Trazado 986623" d="M26.625,31.219a1,1,0,0,0-1.331.074l-8,8a1,1,0,0,0,1.415,1.414l7.367-7.367,4.3,3.441a1,1,0,0,0,1.333-.074L45,23.414V25a1,1,0,0,0,2,0V21a1,1,0,0,0-1-1H42a1,1,0,0,0,0,2h1.586L30.926,34.66Z" fill="#464a51"/>
            <path id="Trazado_986624" data-name="Trazado 986624" d="M25,37v4a1,1,0,0,0,2,0V37a1,1,0,0,0-2,0" fill="#464a51"/>
            <path id="Trazado_986625" data-name="Trazado 986625" d="M30,40v1a1,1,0,0,0,2,0V40a1,1,0,0,0-2,0" fill="#464a51"/>
            <path id="Trazado_986626" data-name="Trazado 986626" d="M35,36v5a1,1,0,0,0,2,0V36a1,1,0,0,0-2,0" fill="#464a51"/>
            <path id="Trazado_986627" data-name="Trazado 986627" d="M40,31V41a1,1,0,0,0,2,0V31a1,1,0,0,0-2,0" fill="#464a51"/>
            <path id="Trazado_986628" data-name="Trazado 986628" d="M37,23a3,3,0,1,0-3,3,3,3,0,0,0,3-3m-4,0a1,1,0,1,1,1,1,1,1,0,0,1-1-1" fill="#464a51"/>
            <path id="Trazado_986629" data-name="Trazado 986629" d="M19.793,30.793l-4.5,4.5a1,1,0,1,0,1.414,1.414l4.5-4.5a1,1,0,1,0-1.414-1.414" fill="#464a51"/>
            <path id="Trazado_986630" data-name="Trazado 986630" d="M46,28a1,1,0,0,0-1,1V41a1,1,0,0,0,2,0V29a1,1,0,0,0-1-1" fill="#464a51"/>
            <path id="Trazado_986631" data-name="Trazado 986631" d="M13,12a1,1,0,0,0-1-1H2.05A10.017,10.017,0,0,1,11,2.05V8a1,1,0,0,0,2,0V1a1,1,0,0,0-1-1A12.013,12.013,0,0,0,0,12a1,1,0,0,0,1,1H12a1,1,0,0,0,1-1" fill="#464a51"/>
            <path id="Trazado_986632" data-name="Trazado 986632" d="M38,6H49a1,1,0,0,0,1-1V1a1,1,0,0,0-1-1H38a1,1,0,0,0-1,1V5a1,1,0,0,0,1,1m1-4h9V4H39Z" fill="#464a51"/>
            <path id="Trazado_986633" data-name="Trazado 986633" d="M38,10h7a1,1,0,0,0,0-2H38a1,1,0,0,0,0,2" fill="#464a51"/>
            <path id="Trazado_986634" data-name="Trazado 986634" d="M38,14h7a1,1,0,0,0,0-2H38a1,1,0,0,0,0,2" fill="#464a51"/>
          </g>
        </g>
      </g>
    </g>
  </g>
</svg>
