<svg xmlns="http://www.w3.org/2000/svg" xmlns:xlink="http://www.w3.org/1999/xlink" width="113" height="113" viewBox="0 0 113 113">
  <defs>
    <filter id="Trazado_982547" x="0" y="0" width="113" height="113" filterUnits="userSpaceOnUse">
      <feOffset dy="3" input="SourceAlpha"/>
      <feGaussianBlur stdDeviation="3" result="blur"/>
      <feFlood flood-opacity="0.161"/>
      <feComposite operator="in" in2="blur"/>
      <feComposite in="SourceGraphic"/>
    </filter>
    <clipPath id="clip-path">
      <rect id="Rectángulo_408337" data-name="Rectángulo 408337" width="55" height="55" transform="translate(-0.298 -0.298)" fill="none"/>
    </clipPath>
  </defs>
  <g id="Grupo_1148578" data-name="Grupo 1148578" transform="translate(-324 -3704.178)">
    <g id="Grupo_1147086" data-name="Grupo 1147086" transform="translate(333 3710.178)">
      <g transform="matrix(1, 0, 0, 1, -9, -6)" filter="url(#Trazado_982547)">
        <g id="Trazado_982547-2" data-name="Trazado 982547" transform="translate(9 6)" fill="#fdeffe">
          <path d="M 47.5 93.5 C 41.28937149047852 93.5 35.26533508300781 92.28397369384766 29.59518623352051 89.88570404052734 C 24.11771965026855 87.56893157958984 19.19813346862793 84.25196075439453 14.97309303283691 80.02691650390625 C 10.74804019927979 75.80186462402344 7.431066513061523 70.88229370117188 5.114293098449707 65.40481567382812 C 2.716026782989502 59.73468017578125 1.5 53.71062850952148 1.5 47.5 C 1.5 41.28937149047852 2.716026782989502 35.26533508300781 5.114293098449707 29.59518623352051 C 7.431066513061523 24.11771965026855 10.74804019927979 19.19813346862793 14.97309303283691 14.97309303283691 C 19.19813346862793 10.74804019927979 24.11771965026855 7.431066513061523 29.59518623352051 5.114293098449707 C 35.26533508300781 2.716026782989502 41.28937149047852 1.5 47.5 1.5 C 53.71062850952148 1.5 59.73468017578125 2.716026782989502 65.40481567382812 5.114293098449707 C 70.88229370117188 7.431066513061523 75.80186462402344 10.74804019927979 80.02691650390625 14.97309303283691 C 84.25196075439453 19.19813346862793 87.56893157958984 24.11771965026855 89.88570404052734 29.59518623352051 C 92.28397369384766 35.26533508300781 93.5 41.28937149047852 93.5 47.5 C 93.5 53.71062850952148 92.28397369384766 59.73468017578125 89.88570404052734 65.40481567382812 C 87.56893157958984 70.88229370117188 84.25196075439453 75.80186462402344 80.02691650390625 80.02691650390625 C 75.80186462402344 84.25196075439453 70.88229370117188 87.56893157958984 65.40481567382812 89.88570404052734 C 59.73468017578125 92.28397369384766 53.71062850952148 93.5 47.5 93.5 Z" stroke="none"/>
          <path d="M 47.5 3 C 41.49121475219727 3 35.66376876831055 4.176155090332031 30.17950439453125 6.495796203613281 C 24.88084411621094 8.736953735351562 20.12152099609375 11.94598388671875 16.03375244140625 16.03375244140625 C 11.94598388671875 20.12152099609375 8.736953735351562 24.88084411621094 6.495796203613281 30.17950439453125 C 4.176155090332031 35.66376876831055 3 41.49121475219727 3 47.5 C 3 53.50878524780273 4.176155090332031 59.33623123168945 6.495796203613281 64.82049560546875 C 8.736953735351562 70.11915588378906 11.94598388671875 74.87847900390625 16.03375244140625 78.96624755859375 C 20.12152099609375 83.05401611328125 24.88084411621094 86.26304626464844 30.17950439453125 88.50419616699219 C 35.66376876831055 90.82384490966797 41.49121475219727 92 47.5 92 C 53.50878524780273 92 59.33623123168945 90.82384490966797 64.82049560546875 88.50419616699219 C 70.11915588378906 86.26304626464844 74.87847900390625 83.05401611328125 78.96624755859375 78.96624755859375 C 83.05401611328125 74.87847900390625 86.26304626464844 70.11915588378906 88.50419616699219 64.82049560546875 C 90.82384490966797 59.33623123168945 92 53.50878524780273 92 47.5 C 92 41.49121475219727 90.82384490966797 35.66376876831055 88.50419616699219 30.17950439453125 C 86.26304626464844 24.88084411621094 83.05401611328125 20.12152099609375 78.96624755859375 16.03375244140625 C 74.87847900390625 11.94598388671875 70.11915588378906 8.736953735351562 64.82049560546875 6.495796203613281 C 59.33623123168945 4.176155090332031 53.50878524780273 3 47.5 3 M 47.5 0 C 73.7335205078125 0 95 21.2664794921875 95 47.5 C 95 73.7335205078125 73.7335205078125 95 47.5 95 C 21.2664794921875 95 0 73.7335205078125 0 47.5 C 0 21.2664794921875 21.2664794921875 0 47.5 0 Z" stroke="none" fill="#ee70f7"/>
        </g>
      </g>
      <g id="Grupo_1148922" data-name="Grupo 1148922" transform="translate(19.298 19.839)">
        <g id="Grupo_1148921" data-name="Grupo 1148921" clip-path="url(#clip-path)">
          <path id="Trazado_986635" data-name="Trazado 986635" d="M.864,39.635A.865.865,0,0,1,0,38.772V18.043a.864.864,0,1,1,1.728,0V38.772a.865.865,0,0,1-.864.864" transform="translate(0 2.399)" fill="#2c3d60"/>
          <path id="Trazado_986636" data-name="Trazado 986636" d="M.864,45.744A.864.864,0,0,1,0,44.88V40.274a.864.864,0,0,1,1.728,0V44.88a.864.864,0,0,1-.864.864" transform="translate(0 5.503)" fill="#2c3d60"/>
          <path id="Trazado_986637" data-name="Trazado 986637" d="M47.348,36.345a.865.865,0,0,1-.864-.864V25.116a.864.864,0,0,1,1.728,0V35.481a.865.865,0,0,1-.864.864" transform="translate(6.49 3.386)" fill="#2c3d60"/>
          <path id="Trazado_986638" data-name="Trazado 986638" d="M47.348,23.772a.865.865,0,0,1-.864-.864V7.937a.864.864,0,0,1,1.728,0V22.908a.865.865,0,0,1-.864.864" transform="translate(6.49 0.988)" fill="#2c3d60"/>
          <path id="Trazado_986639" data-name="Trazado 986639" d="M43.85,53.732H9.229A3.419,3.419,0,0,1,5.81,50.314V4.177A3.419,3.419,0,0,1,9.229.758H43.85a3.418,3.418,0,0,1,3.419,3.419V50.314a3.418,3.418,0,0,1-3.419,3.419" transform="translate(0.811 0.106)" fill="#bac4d3"/>
          <path id="Trazado_986640" data-name="Trazado 986640" d="M38.116,50.278H9.23a3.42,3.42,0,0,1-3.419-3.42V4.176A3.419,3.419,0,0,1,9.23.757H40.4a3.419,3.419,0,0,1,3.419,3.419v40.4a5.7,5.7,0,0,1-5.7,5.7" transform="translate(0.811 0.106)" fill="#dfebf7"/>
          <path id="Trazado_986641" data-name="Trazado 986641" d="M43.92,54.7H9.371a4.324,4.324,0,0,1-4.319-4.318V4.319A4.325,4.325,0,0,1,9.371,0H43.92a4.324,4.324,0,0,1,4.318,4.319V50.384A4.323,4.323,0,0,1,43.92,54.7M9.371,1.728A2.594,2.594,0,0,0,6.78,4.319V50.384a2.594,2.594,0,0,0,2.592,2.59H43.92a2.593,2.593,0,0,0,2.59-2.59V4.319a2.593,2.593,0,0,0-2.59-2.592Z" transform="translate(0.705)" fill="#2c3d60"/>
          <path id="Trazado_986642" data-name="Trazado 986642" d="M43.85,12.274H9.229A3.419,3.419,0,0,1,5.81,8.855V4.177A3.419,3.419,0,0,1,9.229.758H43.85a3.418,3.418,0,0,1,3.419,3.419V8.855a3.418,3.418,0,0,1-3.419,3.419" transform="translate(0.811 0.106)" fill="#f4c08e"/>
          <path id="Trazado_986643" data-name="Trazado 986643" d="M43.426,11.851H9.982a1.139,1.139,0,0,1-1.14-1.14V6.068a2.279,2.279,0,0,1,2.279-2.279H45.706a1.139,1.139,0,0,1,1.14,1.14v3.5a3.418,3.418,0,0,1-3.419,3.419" transform="translate(1.235 0.529)" fill="#feb166"/>
          <path id="Trazado_986644" data-name="Trazado 986644" d="M43.92,13.244H9.371A4.324,4.324,0,0,1,5.052,8.926V4.319A4.325,4.325,0,0,1,9.371,0H43.92a4.324,4.324,0,0,1,4.318,4.319V8.926a4.323,4.323,0,0,1-4.318,4.318M9.371,1.728A2.594,2.594,0,0,0,6.78,4.319V8.926a2.6,2.6,0,0,0,2.592,2.592H43.92a2.594,2.594,0,0,0,2.59-2.592V4.319a2.593,2.593,0,0,0-2.59-2.592Z" transform="translate(0.705)" fill="#2c3d60"/>
          <path id="Trazado_986645" data-name="Trazado 986645" d="M37.243,8.073a.864.864,0,0,1-.864-.864v-2.3a.864.864,0,1,1,1.728,0v2.3a.863.863,0,0,1-.864.864" transform="translate(5.08 0.564)" fill="#2c3d60"/>
          <path id="Trazado_986646" data-name="Trazado 986646" d="M32.19,8.073a.864.864,0,0,1-.864-.864v-2.3a.864.864,0,1,1,1.728,0v2.3a.864.864,0,0,1-.864.864" transform="translate(4.374 0.564)" fill="#2c3d60"/>
          <path id="Trazado_986647" data-name="Trazado 986647" d="M27.138,8.073a.864.864,0,0,1-.864-.864v-2.3a.864.864,0,0,1,1.728,0v2.3a.864.864,0,0,1-.864.864" transform="translate(3.669 0.564)" fill="#2c3d60"/>
          <path id="Trazado_986648" data-name="Trazado 986648" d="M22.085,8.073a.864.864,0,0,1-.864-.864v-2.3a.864.864,0,1,1,1.728,0v2.3a.863.863,0,0,1-.864.864" transform="translate(2.963 0.564)" fill="#2c3d60"/>
          <path id="Trazado_986649" data-name="Trazado 986649" d="M13.929,22.681c-.1,0-.185-.021-.278-.028a3.444,3.444,0,1,0,2.859-5.7,3.439,3.439,0,0,1-2.581,5.73" transform="translate(1.906 2.367)" fill="#bac4d3"/>
          <path id="Trazado_986650" data-name="Trazado 986650" d="M17.773,19.37a3.455,3.455,0,1,0-3.455,3.454,3.455,3.455,0,0,0,3.455-3.454" transform="translate(1.517 2.222)" fill="#77d982"/>
          <path id="Trazado_986651" data-name="Trazado 986651" d="M14.04,22.8a3.44,3.44,0,0,1,2.581-5.73c.1,0,.185.021.278.028a3.444,3.444,0,1,0-2.859,5.7" transform="translate(1.517 2.222)" fill="#9fe2a0"/>
          <path id="Trazado_986652" data-name="Trazado 986652" d="M14.424,23.8a4.319,4.319,0,1,1,4.319-4.318A4.323,4.323,0,0,1,14.424,23.8m0-6.91a2.591,2.591,0,1,0,2.592,2.592,2.594,2.594,0,0,0-2.592-2.592" transform="translate(1.411 2.116)" fill="#2c3d60"/>
          <path id="Trazado_986653" data-name="Trazado 986653" d="M24.034,22.681c-.1,0-.185-.021-.278-.028a3.444,3.444,0,1,0,2.859-5.7,3.439,3.439,0,0,1-2.581,5.73" transform="translate(3.317 2.367)" fill="#bac4d3"/>
          <path id="Trazado_986654" data-name="Trazado 986654" d="M27.879,19.37a3.455,3.455,0,1,0-3.455,3.454,3.455,3.455,0,0,0,3.455-3.454" transform="translate(2.928 2.222)" fill="#77d982"/>
          <path id="Trazado_986655" data-name="Trazado 986655" d="M24.145,22.8a3.44,3.44,0,0,1,2.581-5.73c.1,0,.185.021.278.028a3.444,3.444,0,1,0-2.859,5.7" transform="translate(2.928 2.222)" fill="#9fe2a0"/>
          <path id="Trazado_986656" data-name="Trazado 986656" d="M24.529,23.8a4.319,4.319,0,1,1,4.318-4.318A4.324,4.324,0,0,1,24.529,23.8m0-6.91a2.591,2.591,0,1,0,2.592,2.592,2.594,2.594,0,0,0-2.592-2.592" transform="translate(2.822 2.116)" fill="#2c3d60"/>
          <path id="Trazado_986657" data-name="Trazado 986657" d="M13.929,32.786c-.1,0-.185-.021-.278-.028a3.444,3.444,0,1,0,2.859-5.7,3.439,3.439,0,0,1-2.581,5.73" transform="translate(1.906 3.778)" fill="#bac4d3"/>
          <path id="Trazado_986658" data-name="Trazado 986658" d="M17.773,29.476a3.455,3.455,0,1,0-3.455,3.455,3.454,3.454,0,0,0,3.455-3.455" transform="translate(1.517 3.633)" fill="#77d982"/>
          <path id="Trazado_986659" data-name="Trazado 986659" d="M14.04,32.9a3.44,3.44,0,0,1,2.581-5.73c.1,0,.185.021.278.028a3.444,3.444,0,1,0-2.859,5.7" transform="translate(1.517 3.633)" fill="#9fe2a0"/>
          <path id="Trazado_986660" data-name="Trazado 986660" d="M14.424,33.9a4.319,4.319,0,1,1,4.319-4.318A4.323,4.323,0,0,1,14.424,33.9m0-6.91a2.591,2.591,0,1,0,2.592,2.592,2.594,2.594,0,0,0-2.592-2.592" transform="translate(1.411 3.527)" fill="#2c3d60"/>
          <path id="Trazado_986661" data-name="Trazado 986661" d="M24.034,32.786c-.1,0-.185-.021-.278-.028a3.444,3.444,0,1,0,2.859-5.7,3.439,3.439,0,0,1-2.581,5.73" transform="translate(3.317 3.778)" fill="#bac4d3"/>
          <path id="Trazado_986662" data-name="Trazado 986662" d="M27.879,29.476a3.455,3.455,0,1,0-3.455,3.455,3.454,3.454,0,0,0,3.455-3.455" transform="translate(2.928 3.633)" fill="#77d982"/>
          <path id="Trazado_986663" data-name="Trazado 986663" d="M24.145,32.9a3.44,3.44,0,0,1,2.581-5.73c.1,0,.185.021.278.028a3.444,3.444,0,1,0-2.859,5.7" transform="translate(2.928 3.633)" fill="#9fe2a0"/>
          <path id="Trazado_986664" data-name="Trazado 986664" d="M24.529,33.9a4.319,4.319,0,1,1,4.318-4.318A4.324,4.324,0,0,1,24.529,33.9m0-6.91a2.591,2.591,0,1,0,2.592,2.592,2.594,2.594,0,0,0-2.592-2.592" transform="translate(2.822 3.527)" fill="#2c3d60"/>
          <path id="Trazado_986665" data-name="Trazado 986665" d="M13.929,42.891c-.1,0-.185-.021-.278-.028a3.444,3.444,0,1,0,2.859-5.7,3.439,3.439,0,0,1-2.581,5.73" transform="translate(1.906 5.189)" fill="#bac4d3"/>
          <path id="Trazado_986666" data-name="Trazado 986666" d="M17.773,39.581a3.455,3.455,0,1,0-3.455,3.455,3.455,3.455,0,0,0,3.455-3.455" transform="translate(1.517 5.044)" fill="#77d982"/>
          <path id="Trazado_986667" data-name="Trazado 986667" d="M14.04,43.008a3.44,3.44,0,0,1,2.581-5.73c.1,0,.185.021.278.028a3.444,3.444,0,1,0-2.859,5.7" transform="translate(1.517 5.044)" fill="#9fe2a0"/>
          <path id="Trazado_986668" data-name="Trazado 986668" d="M14.424,44.005a4.319,4.319,0,1,1,4.319-4.318,4.323,4.323,0,0,1-4.319,4.318m0-6.91a2.591,2.591,0,1,0,2.592,2.592A2.594,2.594,0,0,0,14.424,37.1" transform="translate(1.411 4.938)" fill="#2c3d60"/>
          <path id="Trazado_986669" data-name="Trazado 986669" d="M24.034,42.891c-.1,0-.185-.021-.278-.028a3.444,3.444,0,1,0,2.859-5.7,3.439,3.439,0,0,1-2.581,5.73" transform="translate(3.317 5.189)" fill="#bac4d3"/>
          <path id="Trazado_986670" data-name="Trazado 986670" d="M27.879,39.581a3.455,3.455,0,1,0-3.455,3.455,3.455,3.455,0,0,0,3.455-3.455" transform="translate(2.928 5.044)" fill="#77d982"/>
          <path id="Trazado_986671" data-name="Trazado 986671" d="M24.145,43.008a3.44,3.44,0,0,1,2.581-5.73c.1,0,.185.021.278.028a3.444,3.444,0,1,0-2.859,5.7" transform="translate(2.928 5.044)" fill="#9fe2a0"/>
          <path id="Trazado_986672" data-name="Trazado 986672" d="M24.529,44.005a4.319,4.319,0,1,1,4.318-4.318,4.324,4.324,0,0,1-4.318,4.318m0-6.91a2.591,2.591,0,1,0,2.592,2.592A2.594,2.594,0,0,0,24.529,37.1" transform="translate(2.822 4.938)" fill="#2c3d60"/>
          <path id="Trazado_986673" data-name="Trazado 986673" d="M34.139,22.681c-.1,0-.185-.021-.278-.028a3.444,3.444,0,1,0,2.859-5.7,3.44,3.44,0,0,1-2.581,5.73" transform="translate(4.728 2.367)" fill="#bac4d3"/>
          <path id="Trazado_986674" data-name="Trazado 986674" d="M37.984,19.37a3.455,3.455,0,1,0-3.454,3.454,3.455,3.455,0,0,0,3.454-3.454" transform="translate(4.339 2.222)" fill="#77d982"/>
          <path id="Trazado_986675" data-name="Trazado 986675" d="M34.25,22.8a3.44,3.44,0,0,1,2.581-5.73c.1,0,.185.021.278.028a3.444,3.444,0,1,0-2.859,5.7" transform="translate(4.339 2.222)" fill="#9fe2a0"/>
          <path id="Trazado_986676" data-name="Trazado 986676" d="M34.634,23.8a4.319,4.319,0,1,1,4.318-4.318A4.324,4.324,0,0,1,34.634,23.8m0-6.91a2.591,2.591,0,1,0,2.592,2.592,2.594,2.594,0,0,0-2.592-2.592" transform="translate(4.233 2.116)" fill="#2c3d60"/>
          <path id="Trazado_986677" data-name="Trazado 986677" d="M36.549,46.469h0a3.456,3.456,0,0,1-3.455-3.455V31.5A3.455,3.455,0,0,1,40,31.5V43.013a3.456,3.456,0,0,1-3.455,3.455" transform="translate(4.621 3.916)" fill="#bac4d3"/>
          <path id="Trazado_986678" data-name="Trazado 986678" d="M34.528,44.447h0a3.455,3.455,0,0,1-3.455-3.455V29.475a3.455,3.455,0,0,1,6.91,0V40.991a3.454,3.454,0,0,1-3.454,3.455" transform="translate(4.339 3.633)" fill="#9fe2a0"/>
          <path id="Trazado_986679" data-name="Trazado 986679" d="M35.4,43.966h0a2.3,2.3,0,0,1-2.3-2.3V29.193a1.151,1.151,0,0,1,1.152-1.151H35.4a2.3,2.3,0,0,1,2.3,2.3V41.663a2.3,2.3,0,0,1-2.3,2.3" transform="translate(4.621 3.915)" fill="#77d982"/>
          <path id="Trazado_986680" data-name="Trazado 986680" d="M34.634,45.417A4.325,4.325,0,0,1,30.315,41.1V29.582a4.319,4.319,0,1,1,8.637,0V41.1a4.324,4.324,0,0,1-4.318,4.319m0-18.427a2.594,2.594,0,0,0-2.592,2.592V41.1a2.592,2.592,0,0,0,5.183,0V29.582a2.594,2.594,0,0,0-2.592-2.592" transform="translate(4.233 3.527)" fill="#2c3d60"/>
        </g>
      </g>
    </g>
  </g>
</svg>
