<svg xmlns="http://www.w3.org/2000/svg" xmlns:xlink="http://www.w3.org/1999/xlink" width="108" height="108" viewBox="0 0 108 108">
  <defs>
    <filter id="Fondo" x="0" y="0" width="108" height="108" filterUnits="userSpaceOnUse">
      <feOffset dy="3" input="SourceAlpha"/>
      <feGaussianBlur stdDeviation="3" result="blur"/>
      <feFlood flood-opacity="0.161"/>
      <feComposite operator="in" in2="blur"/>
      <feComposite in="SourceGraphic"/>
    </filter>
    <clipPath id="clip-path">
      <rect id="Rectángulo_408357" data-name="Rectángulo 408357" width="48" height="48" fill="none"/>
    </clipPath>
  </defs>
  <g id="Icono" transform="translate(9 -689)">
    <g transform="matrix(1, 0, 0, 1, -9, 689)" filter="url(#Fondo)">
      <g id="Fondo-2" data-name="Fondo" transform="translate(9 6)" fill="#d7e9f7">
        <path d="M 45 88.5 C 39.12687683105469 88.5 33.43022537231445 87.35007476806641 28.06830024719238 85.08217620849609 C 22.88852500915527 82.89131164550781 18.23629951477051 79.75458526611328 14.2408504486084 75.75914764404297 C 10.24541282653809 71.76370239257812 7.108687400817871 67.11147308349609 4.917825222015381 61.93170166015625 C 2.649924993515015 56.56977462768555 1.5 50.87312316894531 1.5 45 C 1.5 39.12687683105469 2.649924993515015 33.43022537231445 4.917825222015381 28.06830024719238 C 7.108687400817871 22.88852500915527 10.24541282653809 18.23629951477051 14.2408504486084 14.2408504486084 C 18.23629951477051 10.24541282653809 22.88852500915527 7.108687400817871 28.06830024719238 4.917825222015381 C 33.43022537231445 2.649924993515015 39.12687683105469 1.5 45 1.5 C 50.87312316894531 1.5 56.56977462768555 2.649924993515015 61.93170166015625 4.917825222015381 C 67.11147308349609 7.108687400817871 71.76370239257812 10.24541282653809 75.75914764404297 14.2408504486084 C 79.75458526611328 18.23629951477051 82.89131164550781 22.88852500915527 85.08217620849609 28.06830024719238 C 87.35007476806641 33.43022537231445 88.5 39.12687683105469 88.5 45 C 88.5 50.87312316894531 87.35007476806641 56.56977462768555 85.08217620849609 61.93170166015625 C 82.89131164550781 67.11147308349609 79.75458526611328 71.76370239257812 75.75914764404297 75.75914764404297 C 71.76370239257812 79.75458526611328 67.11147308349609 82.89131164550781 61.93170166015625 85.08217620849609 C 56.56977462768555 87.35007476806641 50.87312316894531 88.5 45 88.5 Z" stroke="none"/>
        <path d="M 45 3 C 39.32871246337891 3 33.82865524291992 4.110054016113281 28.65262985229492 6.299339294433594 C 23.65165710449219 8.414573669433594 19.15968322753906 11.44334411621094 15.301513671875 15.301513671875 C 11.44334411621094 19.15968322753906 8.414573669433594 23.65165710449219 6.299339294433594 28.65262985229492 C 4.110054016113281 33.82865524291992 3 39.32871246337891 3 45 C 3 50.67128753662109 4.110054016113281 56.17134475708008 6.299339294433594 61.34737396240234 C 8.414573669433594 66.34834289550781 11.44334411621094 70.84031677246094 15.301513671875 74.698486328125 C 19.15968322753906 78.55665588378906 23.65165710449219 81.58542633056641 28.65262985229492 83.70066070556641 C 33.82865524291992 85.88994598388672 39.32871246337891 87 45 87 C 50.67128753662109 87 56.17134475708008 85.88994598388672 61.34737396240234 83.70066070556641 C 66.34834289550781 81.58542633056641 70.84031677246094 78.55665588378906 74.698486328125 74.698486328125 C 78.55665588378906 70.84031677246094 81.58542633056641 66.34834289550781 83.70066070556641 61.34737396240234 C 85.88994598388672 56.17134475708008 87 50.67128753662109 87 45 C 87 39.32871246337891 85.88994598388672 33.82865524291992 83.70066070556641 28.65262985229492 C 81.58542633056641 23.65165710449219 78.55665588378906 19.15968322753906 74.698486328125 15.301513671875 C 70.84031677246094 11.44334411621094 66.34834289550781 8.414573669433594 61.34737396240234 6.299339294433594 C 56.17134475708008 4.110054016113281 50.67128753662109 3 45 3 M 45 0 C 69.85281372070312 0 90 20.14718627929688 90 45 C 90 69.85281372070312 69.85281372070312 90 45 90 C 20.14718627929688 90 0 69.85281372070312 0 45 C 0 20.14718627929688 20.14718627929688 0 45 0 Z" stroke="none" fill="#205277"/>
      </g>
    </g>
    <g id="Grupo_1148933" data-name="Grupo 1148933" transform="translate(21 716)">
      <g id="Grupo_1148932" data-name="Grupo 1148932" clip-path="url(#clip-path)">
        <path id="Trazado_986751" data-name="Trazado 986751" d="M43.242,16.926H4.758a4,4,0,0,1-4-4V4.758a4,4,0,0,1,4-4H43.242a4,4,0,0,1,4,4v8.168a4,4,0,0,1-4,4" fill="#bac4d3"/>
        <path id="Trazado_986752" data-name="Trazado 986752" d="M43.242,11.874H4.758a4,4,0,0,1-4-4V4.758a4,4,0,0,1,4-4H43.242a4,4,0,0,1,4,4V7.874a4,4,0,0,1-4,4" fill="#fff"/>
        <path id="Trazado_986753" data-name="Trazado 986753" d="M43.242,13.9H4.758a4,4,0,0,1-4-4V7.79a4,4,0,0,1,4-4H43.242a4,4,0,0,1,4,4V9.9a4,4,0,0,1-4,4" fill="#dfebf7"/>
        <path id="Trazado_986754" data-name="Trazado 986754" d="M43.2,17.684H4.8a4.805,4.805,0,0,1-4.8-4.8V4.8A4.806,4.806,0,0,1,4.8,0H43.2A4.806,4.806,0,0,1,48,4.8v8.084a4.805,4.805,0,0,1-4.8,4.8M4.8,1.516A3.287,3.287,0,0,0,1.516,4.8v8.084A3.288,3.288,0,0,0,4.8,16.169H43.2a3.288,3.288,0,0,0,3.284-3.285V4.8A3.287,3.287,0,0,0,43.2,1.516Z" fill="#2c3d60"/>
        <path id="Trazado_986755" data-name="Trazado 986755" d="M43.2,47.242H4.8A4.042,4.042,0,0,1,.758,43.2V33.1A4.042,4.042,0,0,0,4.8,37.137H43.2A4.042,4.042,0,0,0,47.242,33.1V43.2A4.042,4.042,0,0,1,43.2,47.242" fill="#8396ff"/>
        <path id="Trazado_986756" data-name="Trazado 986756" d="M43.2,44.211H4.8A4.043,4.043,0,0,1,.758,40.168V33.094A4.043,4.043,0,0,0,4.8,37.137H43.2a4.043,4.043,0,0,0,4.042-4.043v7.074A4.043,4.043,0,0,1,43.2,44.211" fill="#8eb6ff"/>
        <path id="Trazado_986757" data-name="Trazado 986757" d="M43.2,48H4.8A4.805,4.805,0,0,1,0,43.2V33.1a.758.758,0,0,1,1.516,0A3.288,3.288,0,0,0,4.8,36.379H43.2A3.288,3.288,0,0,0,46.484,33.1.758.758,0,0,1,48,33.1V43.2A4.805,4.805,0,0,1,43.2,48M1.516,36.592V43.2A3.287,3.287,0,0,0,4.8,46.484H43.2A3.287,3.287,0,0,0,46.484,43.2V36.592A4.784,4.784,0,0,1,43.2,37.9H4.8a4.784,4.784,0,0,1-3.284-1.3" fill="#2c3d60"/>
        <path id="Trazado_986758" data-name="Trazado 986758" d="M5.558,40.674a.758.758,0,1,1-.758-.758.758.758,0,0,1,.758.758" fill="#2c3d60"/>
        <path id="Trazado_986759" data-name="Trazado 986759" d="M5.558,43.705a.758.758,0,1,1-.758-.758.758.758,0,0,1,.758.758" fill="#2c3d60"/>
        <path id="Trazado_986760" data-name="Trazado 986760" d="M8.59,40.674a.758.758,0,1,1-.758-.758.758.758,0,0,1,.758.758" fill="#2c3d60"/>
        <path id="Trazado_986761" data-name="Trazado 986761" d="M8.59,43.705a.758.758,0,1,1-.758-.758.758.758,0,0,1,.758.758" fill="#2c3d60"/>
        <path id="Trazado_986762" data-name="Trazado 986762" d="M11.621,40.674a.758.758,0,1,1-.758-.758.758.758,0,0,1,.758.758" fill="#2c3d60"/>
        <path id="Trazado_986763" data-name="Trazado 986763" d="M11.621,43.705a.758.758,0,1,1-.758-.758.758.758,0,0,1,.758.758" fill="#2c3d60"/>
        <path id="Trazado_986764" data-name="Trazado 986764" d="M14.653,40.674a.758.758,0,1,1-.758-.758.758.758,0,0,1,.758.758" fill="#2c3d60"/>
        <path id="Trazado_986765" data-name="Trazado 986765" d="M14.653,43.705a.758.758,0,1,1-.758-.758.758.758,0,0,1,.758.758" fill="#2c3d60"/>
        <path id="Trazado_986766" data-name="Trazado 986766" d="M17.684,40.674a.758.758,0,1,1-.758-.758.758.758,0,0,1,.758.758" fill="#2c3d60"/>
        <path id="Trazado_986767" data-name="Trazado 986767" d="M17.684,43.705a.758.758,0,1,1-.758-.758.758.758,0,0,1,.758.758" fill="#2c3d60"/>
        <path id="Trazado_986768" data-name="Trazado 986768" d="M20.716,40.674a.758.758,0,1,1-.758-.758.758.758,0,0,1,.758.758" fill="#2c3d60"/>
        <path id="Trazado_986769" data-name="Trazado 986769" d="M20.716,43.705a.758.758,0,1,1-.758-.758.758.758,0,0,1,.758.758" fill="#2c3d60"/>
        <path id="Trazado_986770" data-name="Trazado 986770" d="M42.189,41.432H34.1a.758.758,0,0,1,0-1.516h8.084a.758.758,0,0,1,0,1.516" fill="#2c3d60"/>
        <path id="Trazado_986771" data-name="Trazado 986771" d="M42.189,44.463H34.1a.758.758,0,0,1,0-1.516h8.084a.758.758,0,0,1,0,1.516" fill="#2c3d60"/>
        <path id="Trazado_986772" data-name="Trazado 986772" d="M43.2,37.137H4.8A4.042,4.042,0,0,1,.758,33.1V22.99A4.042,4.042,0,0,0,4.8,27.032H43.2a4.042,4.042,0,0,0,4.042-4.042V33.1A4.042,4.042,0,0,1,43.2,37.137" fill="#8396ff"/>
        <path id="Trazado_986773" data-name="Trazado 986773" d="M43.2,34.1H4.8A4.042,4.042,0,0,1,.758,30.063V22.989A4.042,4.042,0,0,0,4.8,27.031H43.2a4.042,4.042,0,0,0,4.042-4.042v7.074A4.042,4.042,0,0,1,43.2,34.1" fill="#8eb6ff"/>
        <path id="Trazado_986774" data-name="Trazado 986774" d="M43.2,37.9H4.8A4.805,4.805,0,0,1,0,33.1V22.99a.758.758,0,0,1,1.516,0A3.288,3.288,0,0,0,4.8,26.274H43.2a3.288,3.288,0,0,0,3.284-3.284.758.758,0,0,1,1.516,0V33.1a4.805,4.805,0,0,1-4.8,4.8M1.516,26.487V33.1A3.287,3.287,0,0,0,4.8,36.379H43.2A3.287,3.287,0,0,0,46.484,33.1V26.487a4.784,4.784,0,0,1-3.284,1.3H4.8a4.784,4.784,0,0,1-3.284-1.3" fill="#2c3d60"/>
        <path id="Trazado_986775" data-name="Trazado 986775" d="M5.558,30.568A.758.758,0,1,1,4.8,29.81a.758.758,0,0,1,.758.758" fill="#2c3d60"/>
        <path id="Trazado_986776" data-name="Trazado 986776" d="M5.558,33.6a.758.758,0,1,1-.758-.758.758.758,0,0,1,.758.758" fill="#2c3d60"/>
        <path id="Trazado_986777" data-name="Trazado 986777" d="M8.59,30.568a.758.758,0,1,1-.758-.758.758.758,0,0,1,.758.758" fill="#2c3d60"/>
        <path id="Trazado_986778" data-name="Trazado 986778" d="M8.59,33.6a.758.758,0,1,1-.758-.758.758.758,0,0,1,.758.758" fill="#2c3d60"/>
        <path id="Trazado_986779" data-name="Trazado 986779" d="M11.621,30.568a.758.758,0,1,1-.758-.758.758.758,0,0,1,.758.758" fill="#2c3d60"/>
        <path id="Trazado_986780" data-name="Trazado 986780" d="M11.621,33.6a.758.758,0,1,1-.758-.758.758.758,0,0,1,.758.758" fill="#2c3d60"/>
        <path id="Trazado_986781" data-name="Trazado 986781" d="M14.653,30.568a.758.758,0,1,1-.758-.758.758.758,0,0,1,.758.758" fill="#2c3d60"/>
        <path id="Trazado_986782" data-name="Trazado 986782" d="M14.653,33.6a.758.758,0,1,1-.758-.758.758.758,0,0,1,.758.758" fill="#2c3d60"/>
        <path id="Trazado_986783" data-name="Trazado 986783" d="M17.684,30.568a.758.758,0,1,1-.758-.758.758.758,0,0,1,.758.758" fill="#2c3d60"/>
        <path id="Trazado_986784" data-name="Trazado 986784" d="M17.684,33.6a.758.758,0,1,1-.758-.758.758.758,0,0,1,.758.758" fill="#2c3d60"/>
        <path id="Trazado_986785" data-name="Trazado 986785" d="M20.716,30.568a.758.758,0,1,1-.758-.758.758.758,0,0,1,.758.758" fill="#2c3d60"/>
        <path id="Trazado_986786" data-name="Trazado 986786" d="M20.716,33.6a.758.758,0,1,1-.758-.758.758.758,0,0,1,.758.758" fill="#2c3d60"/>
        <path id="Trazado_986787" data-name="Trazado 986787" d="M42.189,31.326H34.1a.758.758,0,0,1,0-1.516h8.084a.758.758,0,0,1,0,1.516" fill="#2c3d60"/>
        <path id="Trazado_986788" data-name="Trazado 986788" d="M42.189,34.358H34.1a.758.758,0,0,1,0-1.516h8.084a.758.758,0,0,1,0,1.516" fill="#2c3d60"/>
        <path id="Trazado_986789" data-name="Trazado 986789" d="M43.2,27.032H4.8A4.042,4.042,0,0,1,.758,22.99v-10.1A4.042,4.042,0,0,0,4.8,16.927H43.2a4.042,4.042,0,0,0,4.042-4.042v10.1A4.042,4.042,0,0,1,43.2,27.032" fill="#8396ff"/>
        <path id="Trazado_986790" data-name="Trazado 986790" d="M43.2,24H4.8A4.042,4.042,0,0,1,.758,19.958V12.884A4.042,4.042,0,0,0,4.8,16.926H43.2a4.042,4.042,0,0,0,4.042-4.042v7.074A4.042,4.042,0,0,1,43.2,24" fill="#8eb6ff"/>
        <path id="Trazado_986791" data-name="Trazado 986791" d="M43.2,27.79H4.8A4.805,4.805,0,0,1,0,22.99v-10.1a.758.758,0,1,1,1.516,0A3.287,3.287,0,0,0,4.8,16.169H43.2a3.287,3.287,0,0,0,3.284-3.284.758.758,0,1,1,1.516,0v10.1a4.805,4.805,0,0,1-4.8,4.8M1.516,16.382V22.99A3.287,3.287,0,0,0,4.8,26.274H43.2a3.287,3.287,0,0,0,3.284-3.284V16.382a4.784,4.784,0,0,1-3.284,1.3H4.8a4.784,4.784,0,0,1-3.284-1.3" fill="#2c3d60"/>
        <path id="Trazado_986792" data-name="Trazado 986792" d="M5.558,20.463A.758.758,0,1,1,4.8,19.7a.758.758,0,0,1,.758.758" fill="#2c3d60"/>
        <path id="Trazado_986793" data-name="Trazado 986793" d="M5.558,23.5a.758.758,0,1,1-.758-.758.758.758,0,0,1,.758.758" fill="#2c3d60"/>
        <path id="Trazado_986794" data-name="Trazado 986794" d="M8.59,20.463a.758.758,0,1,1-.758-.758.758.758,0,0,1,.758.758" fill="#2c3d60"/>
        <path id="Trazado_986795" data-name="Trazado 986795" d="M8.59,23.5a.758.758,0,1,1-.758-.758.758.758,0,0,1,.758.758" fill="#2c3d60"/>
        <path id="Trazado_986796" data-name="Trazado 986796" d="M11.621,20.463a.758.758,0,1,1-.758-.758.758.758,0,0,1,.758.758" fill="#2c3d60"/>
        <path id="Trazado_986797" data-name="Trazado 986797" d="M11.621,23.5a.758.758,0,1,1-.758-.758.758.758,0,0,1,.758.758" fill="#2c3d60"/>
        <path id="Trazado_986798" data-name="Trazado 986798" d="M14.653,20.463A.758.758,0,1,1,13.9,19.7a.758.758,0,0,1,.758.758" fill="#2c3d60"/>
        <path id="Trazado_986799" data-name="Trazado 986799" d="M14.653,23.5a.758.758,0,1,1-.758-.758.758.758,0,0,1,.758.758" fill="#2c3d60"/>
        <path id="Trazado_986800" data-name="Trazado 986800" d="M17.684,20.463a.758.758,0,1,1-.758-.758.758.758,0,0,1,.758.758" fill="#2c3d60"/>
        <path id="Trazado_986801" data-name="Trazado 986801" d="M17.684,23.5a.758.758,0,1,1-.758-.758.758.758,0,0,1,.758.758" fill="#2c3d60"/>
        <path id="Trazado_986802" data-name="Trazado 986802" d="M20.716,20.463a.758.758,0,1,1-.758-.758.758.758,0,0,1,.758.758" fill="#2c3d60"/>
        <path id="Trazado_986803" data-name="Trazado 986803" d="M20.716,23.5a.758.758,0,1,1-.758-.758.758.758,0,0,1,.758.758" fill="#2c3d60"/>
        <path id="Trazado_986804" data-name="Trazado 986804" d="M42.189,21.221H34.1a.758.758,0,0,1,0-1.516h8.084a.758.758,0,0,1,0,1.516" fill="#2c3d60"/>
        <path id="Trazado_986805" data-name="Trazado 986805" d="M42.189,24.253H34.1a.758.758,0,0,1,0-1.516h8.084a.758.758,0,0,1,0,1.516" fill="#2c3d60"/>
      </g>
    </g>
  </g>
</svg>
