<svg xmlns="http://www.w3.org/2000/svg" xmlns:xlink="http://www.w3.org/1999/xlink" width="113" height="113" viewBox="0 0 113 113">
  <defs>
    <filter id="Trazado_982547" x="0" y="0" width="113" height="113" filterUnits="userSpaceOnUse">
      <feOffset dy="3" input="SourceAlpha"/>
      <feGaussianBlur stdDeviation="3" result="blur"/>
      <feFlood flood-opacity="0.161"/>
      <feComposite operator="in" in2="blur"/>
      <feComposite in="SourceGraphic"/>
    </filter>
    <clipPath id="clip-path">
      <rect id="Rectángulo_408338" data-name="Rectángulo 408338" width="61" height="61" transform="translate(0 0.258)" fill="none"/>
    </clipPath>
  </defs>
  <g id="Grupo_1148582" data-name="Grupo 1148582" transform="translate(-744 -3704.178)">
    <g id="Grupo_1147087" data-name="Grupo 1147087" transform="translate(753 3710.178)">
      <g transform="matrix(1, 0, 0, 1, -9, -6)" filter="url(#Trazado_982547)">
        <g id="Trazado_982547-2" data-name="Trazado 982547" transform="translate(9 6)" fill="#fdeffe">
          <path d="M 47.5 93.5 C 41.28937149047852 93.5 35.26533508300781 92.28397369384766 29.59518623352051 89.88570404052734 C 24.11771965026855 87.56893157958984 19.19813346862793 84.25196075439453 14.97309303283691 80.02691650390625 C 10.74804019927979 75.80186462402344 7.431066513061523 70.88229370117188 5.114293098449707 65.40481567382812 C 2.716026782989502 59.73468017578125 1.5 53.71062850952148 1.5 47.5 C 1.5 41.28937149047852 2.716026782989502 35.26533508300781 5.114293098449707 29.59518623352051 C 7.431066513061523 24.11771965026855 10.74804019927979 19.19813346862793 14.97309303283691 14.97309303283691 C 19.19813346862793 10.74804019927979 24.11771965026855 7.431066513061523 29.59518623352051 5.114293098449707 C 35.26533508300781 2.716026782989502 41.28937149047852 1.5 47.5 1.5 C 53.71062850952148 1.5 59.73468017578125 2.716026782989502 65.40481567382812 5.114293098449707 C 70.88229370117188 7.431066513061523 75.80186462402344 10.74804019927979 80.02691650390625 14.97309303283691 C 84.25196075439453 19.19813346862793 87.56893157958984 24.11771965026855 89.88570404052734 29.59518623352051 C 92.28397369384766 35.26533508300781 93.5 41.28937149047852 93.5 47.5 C 93.5 53.71062850952148 92.28397369384766 59.73468017578125 89.88570404052734 65.40481567382812 C 87.56893157958984 70.88229370117188 84.25196075439453 75.80186462402344 80.02691650390625 80.02691650390625 C 75.80186462402344 84.25196075439453 70.88229370117188 87.56893157958984 65.40481567382812 89.88570404052734 C 59.73468017578125 92.28397369384766 53.71062850952148 93.5 47.5 93.5 Z" stroke="none"/>
          <path d="M 47.5 3 C 41.49121475219727 3 35.66376876831055 4.176155090332031 30.17950439453125 6.495796203613281 C 24.88084411621094 8.736953735351562 20.12152099609375 11.94598388671875 16.03375244140625 16.03375244140625 C 11.94598388671875 20.12152099609375 8.736953735351562 24.88084411621094 6.495796203613281 30.17950439453125 C 4.176155090332031 35.66376876831055 3 41.49121475219727 3 47.5 C 3 53.50878524780273 4.176155090332031 59.33623123168945 6.495796203613281 64.82049560546875 C 8.736953735351562 70.11915588378906 11.94598388671875 74.87847900390625 16.03375244140625 78.96624755859375 C 20.12152099609375 83.05401611328125 24.88084411621094 86.26304626464844 30.17950439453125 88.50419616699219 C 35.66376876831055 90.82384490966797 41.49121475219727 92 47.5 92 C 53.50878524780273 92 59.33623123168945 90.82384490966797 64.82049560546875 88.50419616699219 C 70.11915588378906 86.26304626464844 74.87847900390625 83.05401611328125 78.96624755859375 78.96624755859375 C 83.05401611328125 74.87847900390625 86.26304626464844 70.11915588378906 88.50419616699219 64.82049560546875 C 90.82384490966797 59.33623123168945 92 53.50878524780273 92 47.5 C 92 41.49121475219727 90.82384490966797 35.66376876831055 88.50419616699219 30.17950439453125 C 86.26304626464844 24.88084411621094 83.05401611328125 20.12152099609375 78.96624755859375 16.03375244140625 C 74.87847900390625 11.94598388671875 70.11915588378906 8.736953735351562 64.82049560546875 6.495796203613281 C 59.33623123168945 4.176155090332031 53.50878524780273 3 47.5 3 M 47.5 0 C 73.7335205078125 0 95 21.2664794921875 95 47.5 C 95 73.7335205078125 73.7335205078125 95 47.5 95 C 21.2664794921875 95 0 73.7335205078125 0 47.5 C 0 21.2664794921875 21.2664794921875 0 47.5 0 Z" stroke="none" fill="#ee70f7"/>
        </g>
      </g>
      <g id="Grupo_1148924" data-name="Grupo 1148924" transform="translate(17 16.283)">
        <g id="Grupo_1148923" data-name="Grupo 1148923" clip-path="url(#clip-path)">
          <path id="Trazado_986681" data-name="Trazado 986681" d="M42.662,30.819a14.441,14.441,0,0,0,0-4.986l5.65-3.159-1.858-4.485L40.229,19.95A14.437,14.437,0,0,0,36.7,16.427L38.464,10.2,33.979,8.337l-3.16,5.654a14.441,14.441,0,0,0-4.986,0l-3.159-5.65L18.189,10.2l1.761,6.228a14.437,14.437,0,0,0-3.524,3.529L10.2,18.188,8.337,22.674l5.654,3.16a14.417,14.417,0,0,0,0,4.987l-5.65,3.157L10.2,38.463,16.423,36.7a14.415,14.415,0,0,0,3.529,3.524l-1.764,6.232,4.486,1.858,3.16-5.654a14.41,14.41,0,0,0,4.986,0l3.159,5.65,4.485-1.858L36.7,40.229A14.437,14.437,0,0,0,40.226,36.7l6.232,1.764,1.858-4.486Z" transform="translate(2.303 2.303)" fill="#8eb6ff"/>
          <path id="Trazado_986682" data-name="Trazado 986682" d="M30.819,13.991a14.441,14.441,0,0,0-4.986,0l-3.159-5.65L18.189,10.2l1.761,6.228a14.437,14.437,0,0,0-3.524,3.529L10.2,18.188,8.337,22.674l5.654,3.16a14.449,14.449,0,0,0,0,4.987l-5.65,3.157L10.2,38.463,16.423,36.7a14.415,14.415,0,0,0,3.529,3.524S9.307,21.911,30.819,13.991" transform="translate(2.303 2.303)" fill="#b5daff"/>
          <path id="Trazado_986683" data-name="Trazado 986683" d="M38.875,29.068a14.441,14.441,0,0,0,0-4.986l5.65-3.159L42.67,16.438,36.443,18.2a14.437,14.437,0,0,0-3.529-3.524c9.415,20.258-10.867,26.235-10.867,26.235a14.41,14.41,0,0,0,4.986,0l3.159,5.65,4.485-1.858-1.761-6.228a14.437,14.437,0,0,0,3.524-3.529l6.232,1.764,1.858-4.486Z" transform="translate(6.089 4.054)" fill="#8396ff"/>
          <path id="Trazado_986684" data-name="Trazado 986684" d="M34.189,49.493a.97.97,0,0,1-.845-.5l-2.832-5.065a15.289,15.289,0,0,1-3.952,0L23.728,49a.97.97,0,0,1-1.215.422l-4.486-1.858a.965.965,0,0,1-.56-1.156l1.581-5.59a15.317,15.317,0,0,1-2.8-2.79L10.667,39.6a.966.966,0,0,1-1.156-.562L7.653,34.559a.969.969,0,0,1,.422-1.216l5.064-2.831a15.346,15.346,0,0,1,0-3.952L8.075,23.727a.967.967,0,0,1-.422-1.215l1.858-4.486a.966.966,0,0,1,1.156-.56l5.587,1.581a15.357,15.357,0,0,1,2.792-2.795l-1.58-5.585a.972.972,0,0,1,.562-1.159l4.485-1.856a.971.971,0,0,1,1.214.42l2.832,5.067a15.177,15.177,0,0,1,3.952,0l2.832-5.069a.971.971,0,0,1,1.215-.42l4.486,1.856a.971.971,0,0,1,.562,1.159l-1.581,5.587a15.357,15.357,0,0,1,2.8,2.791L46.4,17.467a.965.965,0,0,1,1.156.56l1.858,4.485A.968.968,0,0,1,49,23.727l-5.065,2.832a15.346,15.346,0,0,1,0,3.952L49,33.343a.969.969,0,0,1,.422,1.216L47.56,39.044a.967.967,0,0,1-1.156.562l-5.587-1.582a15.237,15.237,0,0,1-2.791,2.8L39.6,46.4a.968.968,0,0,1-.562,1.156l-4.483,1.858a.972.972,0,0,1-.37.074M19.562,46.1l2.9,1.2,2.74-4.9a.971.971,0,0,1,1.011-.482,13.377,13.377,0,0,0,4.653.005.973.973,0,0,1,1.011.48l2.739,4.9,2.894-1.2-1.526-5.4a.969.969,0,0,1,.375-1.057,13.458,13.458,0,0,0,3.287-3.289.957.957,0,0,1,1.054-.376l5.4,1.529,1.2-2.9-4.9-2.74a.968.968,0,0,1-.481-1.011,13.439,13.439,0,0,0,0-4.653A.968.968,0,0,1,42.4,25.2l4.9-2.739-1.2-2.894L40.7,21.09a.967.967,0,0,1-1.055-.375,13.447,13.447,0,0,0-3.293-3.286.967.967,0,0,1-.375-1.054l1.53-5.406-2.9-1.2-2.74,4.9a.976.976,0,0,1-1.012.481,13.4,13.4,0,0,0-4.652-.006.961.961,0,0,1-1.012-.48l-2.739-4.9-2.9,1.2,1.528,5.4a.967.967,0,0,1-.375,1.055,13.4,13.4,0,0,0-3.286,3.291.961.961,0,0,1-1.055.375l-5.4-1.53-1.2,2.9,4.9,2.741a.963.963,0,0,1,.481,1.009,13.408,13.408,0,0,0,0,4.653.971.971,0,0,1-.481,1.012l-4.9,2.739,1.2,2.9,5.4-1.528a.958.958,0,0,1,1.054.375,13.474,13.474,0,0,0,3.293,3.287.967.967,0,0,1,.376,1.054Z" transform="translate(2.093 2.094)" fill="#2c3d60"/>
          <path id="Trazado_986685" data-name="Trazado 986685" d="M32.628,25.535a7.093,7.093,0,1,1-7.093-7.093,7.093,7.093,0,0,1,7.093,7.093" transform="translate(5.094 5.094)" fill="#fff"/>
          <path id="Trazado_986686" data-name="Trazado 986686" d="M25.745,33.805a8.061,8.061,0,1,1,8.061-8.061,8.069,8.069,0,0,1-8.061,8.061m0-14.186a6.126,6.126,0,1,0,6.126,6.126,6.132,6.132,0,0,0-6.126-6.126" transform="translate(4.884 4.884)" fill="#2c3d60"/>
          <path id="Trazado_986687" data-name="Trazado 986687" d="M22.106,60.518a1.017,1.017,0,0,1-.3-.046C9.172,56.375,0,43.825,0,30.629A30.664,30.664,0,0,1,30.629,0a.967.967,0,1,1,0,1.935A28.727,28.727,0,0,0,1.935,30.629a30.181,30.181,0,0,0,20.47,28,.967.967,0,0,1-.3,1.888" fill="#2c3d60"/>
          <path id="Trazado_986688" data-name="Trazado 986688" d="M20.658,50.373H9.051a.967.967,0,1,1,0-1.935h9.727l-5.355-7.5A.967.967,0,1,1,15,39.816l6.449,9.028a.967.967,0,0,1-.787,1.529" transform="translate(2.233 10.885)" fill="#2c3d60"/>
          <path id="Trazado_986689" data-name="Trazado 986689" d="M24.209,61.1a.967.967,0,1,1,0-1.935A28.726,28.726,0,0,0,52.9,30.469a30.181,30.181,0,0,0-20.47-28,.967.967,0,0,1,.6-1.84c12.636,4.1,21.808,16.646,21.808,29.841A30.663,30.663,0,0,1,24.209,61.1" transform="translate(6.42 0.16)" fill="#2c3d60"/>
          <path id="Trazado_986690" data-name="Trazado 986690" d="M36.721,10.963a.965.965,0,0,1-.787-.407L29.485,1.53A.968.968,0,0,1,30.272,0H41.879a.967.967,0,0,1,0,1.933H32.152l5.355,7.5a.967.967,0,0,1-.786,1.529" transform="translate(8.094)" fill="#2c3d60"/>
        </g>
      </g>
    </g>
  </g>
</svg>
