<svg xmlns="http://www.w3.org/2000/svg" xmlns:xlink="http://www.w3.org/1999/xlink" width="113" height="113" viewBox="0 0 113 113">
  <defs>
    <filter id="Trazado_982547" x="0" y="0" width="113" height="113" filterUnits="userSpaceOnUse">
      <feOffset dy="3" input="SourceAlpha"/>
      <feGaussianBlur stdDeviation="3" result="blur"/>
      <feFlood flood-opacity="0.161"/>
      <feComposite operator="in" in2="blur"/>
      <feComposite in="SourceGraphic"/>
    </filter>
    <clipPath id="clip-path">
      <rect id="Rectángulo_408345" data-name="Rectángulo 408345" width="57" height="57" transform="translate(0 0.375)" fill="none"/>
    </clipPath>
  </defs>
  <g id="Grupo_1148591" data-name="Grupo 1148591" transform="translate(-1164 -3704.178)">
    <g id="Grupo_1147088" data-name="Grupo 1147088" transform="translate(1173 3710.178)">
      <g transform="matrix(1, 0, 0, 1, -9, -6)" filter="url(#Trazado_982547)">
        <g id="Trazado_982547-2" data-name="Trazado 982547" transform="translate(9 6)" fill="#fdeffe">
          <path d="M 47.5 93.5 C 41.28937149047852 93.5 35.26533508300781 92.28397369384766 29.59518623352051 89.88570404052734 C 24.11771965026855 87.56893157958984 19.19813346862793 84.25196075439453 14.97309303283691 80.02691650390625 C 10.74804019927979 75.80186462402344 7.431066513061523 70.88229370117188 5.114293098449707 65.40481567382812 C 2.716026782989502 59.73468017578125 1.5 53.71062850952148 1.5 47.5 C 1.5 41.28937149047852 2.716026782989502 35.26533508300781 5.114293098449707 29.59518623352051 C 7.431066513061523 24.11771965026855 10.74804019927979 19.19813346862793 14.97309303283691 14.97309303283691 C 19.19813346862793 10.74804019927979 24.11771965026855 7.431066513061523 29.59518623352051 5.114293098449707 C 35.26533508300781 2.716026782989502 41.28937149047852 1.5 47.5 1.5 C 53.71062850952148 1.5 59.73468017578125 2.716026782989502 65.40481567382812 5.114293098449707 C 70.88229370117188 7.431066513061523 75.80186462402344 10.74804019927979 80.02691650390625 14.97309303283691 C 84.25196075439453 19.19813346862793 87.56893157958984 24.11771965026855 89.88570404052734 29.59518623352051 C 92.28397369384766 35.26533508300781 93.5 41.28937149047852 93.5 47.5 C 93.5 53.71062850952148 92.28397369384766 59.73468017578125 89.88570404052734 65.40481567382812 C 87.56893157958984 70.88229370117188 84.25196075439453 75.80186462402344 80.02691650390625 80.02691650390625 C 75.80186462402344 84.25196075439453 70.88229370117188 87.56893157958984 65.40481567382812 89.88570404052734 C 59.73468017578125 92.28397369384766 53.71062850952148 93.5 47.5 93.5 Z" stroke="none"/>
          <path d="M 47.5 3 C 41.49121475219727 3 35.66376876831055 4.176155090332031 30.17950439453125 6.495796203613281 C 24.88084411621094 8.736953735351562 20.12152099609375 11.94598388671875 16.03375244140625 16.03375244140625 C 11.94598388671875 20.12152099609375 8.736953735351562 24.88084411621094 6.495796203613281 30.17950439453125 C 4.176155090332031 35.66376876831055 3 41.49121475219727 3 47.5 C 3 53.50878524780273 4.176155090332031 59.33623123168945 6.495796203613281 64.82049560546875 C 8.736953735351562 70.11915588378906 11.94598388671875 74.87847900390625 16.03375244140625 78.96624755859375 C 20.12152099609375 83.05401611328125 24.88084411621094 86.26304626464844 30.17950439453125 88.50419616699219 C 35.66376876831055 90.82384490966797 41.49121475219727 92 47.5 92 C 53.50878524780273 92 59.33623123168945 90.82384490966797 64.82049560546875 88.50419616699219 C 70.11915588378906 86.26304626464844 74.87847900390625 83.05401611328125 78.96624755859375 78.96624755859375 C 83.05401611328125 74.87847900390625 86.26304626464844 70.11915588378906 88.50419616699219 64.82049560546875 C 90.82384490966797 59.33623123168945 92 53.50878524780273 92 47.5 C 92 41.49121475219727 90.82384490966797 35.66376876831055 88.50419616699219 30.17950439453125 C 86.26304626464844 24.88084411621094 83.05401611328125 20.12152099609375 78.96624755859375 16.03375244140625 C 74.87847900390625 11.94598388671875 70.11915588378906 8.736953735351562 64.82049560546875 6.495796203613281 C 59.33623123168945 4.176155090332031 53.50878524780273 3 47.5 3 M 47.5 0 C 73.7335205078125 0 95 21.2664794921875 95 47.5 C 95 73.7335205078125 73.7335205078125 95 47.5 95 C 21.2664794921875 95 0 73.7335205078125 0 47.5 C 0 21.2664794921875 21.2664794921875 0 47.5 0 Z" stroke="none" fill="#ee70f7"/>
        </g>
      </g>
      <g id="Grupo_1148926" data-name="Grupo 1148926" transform="translate(20 15.166)">
        <g id="Grupo_1148925" data-name="Grupo 1148925" clip-path="url(#clip-path)">
          <path id="Trazado_986691" data-name="Trazado 986691" d="M43.821,48.3H10a.906.906,0,1,1,0-1.812H43.821a.906.906,0,1,1,0,1.812" transform="translate(1.776 9.079)" fill="#2c3d60"/>
          <rect id="Rectángulo_408339" data-name="Rectángulo 408339" width="7.247" height="6.04" transform="translate(25.065 15.4)" fill="#bac4d3"/>
          <path id="Trazado_986692" data-name="Trazado 986692" d="M24.592.758h0a3.624,3.624,0,0,0-3.624,3.624V8.005h7.248V4.382A3.624,3.624,0,0,0,24.592.758" transform="translate(4.095 0.148)" fill="#bac4d3"/>
          <rect id="Rectángulo_408340" data-name="Rectángulo 408340" width="7.247" height="6.04" transform="translate(25.065 28.688)" fill="#bac4d3"/>
          <rect id="Rectángulo_408341" data-name="Rectángulo 408341" width="7.247" height="14.494" transform="translate(25.065 41.975)" fill="#bac4d3"/>
          <rect id="Rectángulo_408342" data-name="Rectángulo 408342" width="3.624" height="6.04" transform="translate(25.063 15.4)" fill="#dfebf7"/>
          <path id="Trazado_986693" data-name="Trazado 986693" d="M24.592.758h0a3.624,3.624,0,0,0-3.624,3.624V8.005h3.624Z" transform="translate(4.095 0.148)" fill="#dfebf7"/>
          <rect id="Rectángulo_408343" data-name="Rectángulo 408343" width="3.624" height="6.04" transform="translate(25.063 28.688)" fill="#dfebf7"/>
          <rect id="Rectángulo_408344" data-name="Rectángulo 408344" width="3.624" height="14.494" transform="translate(25.063 41.975)" fill="#dfebf7"/>
          <path id="Trazado_986694" data-name="Trazado 986694" d="M28.364,19.978H21.116a.907.907,0,0,1-.906-.906v-6.04a.907.907,0,0,1,.906-.906h7.248a.906.906,0,0,1,.9.906v6.04a.906.906,0,0,1-.9.906m-6.342-1.812h5.435V13.938H22.022Z" transform="translate(3.947 2.368)" fill="#2c3d60"/>
          <path id="Trazado_986695" data-name="Trazado 986695" d="M28.363,9.059H21.116a.907.907,0,0,1-.906-.906V4.529a4.53,4.53,0,0,1,9.059,0V8.153a.906.906,0,0,1-.906.906M22.022,7.247h5.435V4.529a2.718,2.718,0,0,0-5.435,0Z" transform="translate(3.947)" fill="#2c3d60"/>
          <path id="Trazado_986696" data-name="Trazado 986696" d="M28.364,31.094H21.116a.907.907,0,0,1-.906-.906v-6.04a.907.907,0,0,1,.906-.906h7.248a.906.906,0,0,1,.9.906v6.04a.906.906,0,0,1-.9.906m-6.342-1.812h5.435V25.054H22.022Z" transform="translate(3.947 4.539)" fill="#2c3d60"/>
          <path id="Trazado_986697" data-name="Trazado 986697" d="M28.364,50.664H21.116a.906.906,0,0,1-.906-.906V35.264a.906.906,0,0,1,.906-.906h7.248a.905.905,0,0,1,.9.906V49.758a.905.905,0,0,1-.9.906m-6.342-1.812h5.435V36.169H22.022Z" transform="translate(3.947 6.711)" fill="#2c3d60"/>
          <path id="Trazado_986698" data-name="Trazado 986698" d="M46.658,6.821H4.382L.758,10.445l3.624,3.623H46.658Z" transform="translate(0.148 1.332)" fill="#ea426a"/>
          <path id="Trazado_986699" data-name="Trazado 986699" d="M41.826,6.821H4.382L.758,10.445l3.624,3.623H41.826Z" transform="translate(0.148 1.332)" fill="#fe9e93"/>
          <path id="Trazado_986700" data-name="Trazado 986700" d="M41.037,6.821H8.424L4.8,10.445l3.624,3.623H41.037Z" transform="translate(0.937 1.332)" fill="#ff5d5d"/>
          <path id="Trazado_986701" data-name="Trazado 986701" d="M46.806,15.122H4.529a.907.907,0,0,1-.641-.265L.265,11.233a.9.9,0,0,1,0-1.28L3.888,6.328a.907.907,0,0,1,.641-.265H46.806a.906.906,0,0,1,.906.906v7.247a.907.907,0,0,1-.906.906M4.9,13.31h41V7.875H4.9L2.186,10.592Z" transform="translate(0 1.184)" fill="#2c3d60"/>
          <path id="Trazado_986702" data-name="Trazado 986702" d="M41.826,29.053H4.382L.758,32.677,4.382,36.3H41.826Z" transform="translate(0.148 5.674)" fill="#5aa874"/>
          <path id="Trazado_986703" data-name="Trazado 986703" d="M36.995,29.053H4.382L.758,32.677,4.382,36.3H36.995Z" transform="translate(0.148 5.674)" fill="#9fe2a0"/>
          <path id="Trazado_986704" data-name="Trazado 986704" d="M36.205,29.053H7.941L4.8,32.677,7.941,36.3H36.205Z" transform="translate(0.937 5.674)" fill="#77d982"/>
          <path id="Trazado_986705" data-name="Trazado 986705" d="M41.973,37.354H4.529a.907.907,0,0,1-.641-.265L.265,33.465a.9.9,0,0,1,0-1.28L3.888,28.56a.907.907,0,0,1,.641-.265H41.973a.905.905,0,0,1,.906.906v7.247a.906.906,0,0,1-.906.906M4.9,35.542H41.069V30.107H4.9L2.186,32.824Z" transform="translate(0 5.526)" fill="#2c3d60"/>
          <path id="Trazado_986706" data-name="Trazado 986706" d="M50.724,17.937H10.863v7.247h39.86l3.624-3.623Z" transform="translate(2.122 3.503)" fill="#8396ff"/>
          <path id="Trazado_986707" data-name="Trazado 986707" d="M45.188,17.937H10.863v7.247H45.188l3.12-3.623Z" transform="translate(2.122 3.503)" fill="#b5daff"/>
          <path id="Trazado_986708" data-name="Trazado 986708" d="M44.4,17.937H14.9v7.247H44.4l3.12-3.623Z" transform="translate(2.911 3.503)" fill="#8eb6ff"/>
          <path id="Trazado_986709" data-name="Trazado 986709" d="M50.871,26.238H11.011a.907.907,0,0,1-.906-.906V18.085a.906.906,0,0,1,.906-.906h39.86a.9.9,0,0,1,.641.265l3.624,3.624a.9.9,0,0,1,0,1.28l-3.624,3.624a.9.9,0,0,1-.641.265M11.917,24.426H50.5l2.717-2.718L50.5,18.991H11.917Z" transform="translate(1.974 3.355)" fill="#2c3d60"/>
        </g>
      </g>
    </g>
  </g>
</svg>
