<svg xmlns="http://www.w3.org/2000/svg" xmlns:xlink="http://www.w3.org/1999/xlink" width="108" height="108" viewBox="0 0 108 108">
  <defs>
    <filter id="Fondo" x="0" y="0" width="108" height="108" filterUnits="userSpaceOnUse">
      <feOffset dy="3" input="SourceAlpha"/>
      <feGaussianBlur stdDeviation="3" result="blur"/>
      <feFlood flood-opacity="0.161"/>
      <feComposite operator="in" in2="blur"/>
      <feComposite in="SourceGraphic"/>
    </filter>
    <clipPath id="clip-path">
      <rect id="Rectángulo_408355" data-name="Rectángulo 408355" width="48" height="48" fill="none"/>
    </clipPath>
  </defs>
  <g id="Icono" transform="translate(9 -689)">
    <g transform="matrix(1, 0, 0, 1, -9, 689)" filter="url(#Fondo)">
      <g id="Fondo-2" data-name="Fondo" transform="translate(9 6)" fill="#d7e9f7">
        <path d="M 45 88.5 C 39.12687683105469 88.5 33.43022537231445 87.35007476806641 28.06830024719238 85.08217620849609 C 22.88852500915527 82.89131164550781 18.23629951477051 79.75458526611328 14.2408504486084 75.75914764404297 C 10.24541282653809 71.76370239257812 7.108687400817871 67.11147308349609 4.917825222015381 61.93170166015625 C 2.649924993515015 56.56977462768555 1.5 50.87312316894531 1.5 45 C 1.5 39.12687683105469 2.649924993515015 33.43022537231445 4.917825222015381 28.06830024719238 C 7.108687400817871 22.88852500915527 10.24541282653809 18.23629951477051 14.2408504486084 14.2408504486084 C 18.23629951477051 10.24541282653809 22.88852500915527 7.108687400817871 28.06830024719238 4.917825222015381 C 33.43022537231445 2.649924993515015 39.12687683105469 1.5 45 1.5 C 50.87312316894531 1.5 56.56977462768555 2.649924993515015 61.93170166015625 4.917825222015381 C 67.11147308349609 7.108687400817871 71.76370239257812 10.24541282653809 75.75914764404297 14.2408504486084 C 79.75458526611328 18.23629951477051 82.89131164550781 22.88852500915527 85.08217620849609 28.06830024719238 C 87.35007476806641 33.43022537231445 88.5 39.12687683105469 88.5 45 C 88.5 50.87312316894531 87.35007476806641 56.56977462768555 85.08217620849609 61.93170166015625 C 82.89131164550781 67.11147308349609 79.75458526611328 71.76370239257812 75.75914764404297 75.75914764404297 C 71.76370239257812 79.75458526611328 67.11147308349609 82.89131164550781 61.93170166015625 85.08217620849609 C 56.56977462768555 87.35007476806641 50.87312316894531 88.5 45 88.5 Z" stroke="none"/>
        <path d="M 45 3 C 39.32871246337891 3 33.82865524291992 4.110054016113281 28.65262985229492 6.299339294433594 C 23.65165710449219 8.414573669433594 19.15968322753906 11.44334411621094 15.301513671875 15.301513671875 C 11.44334411621094 19.15968322753906 8.414573669433594 23.65165710449219 6.299339294433594 28.65262985229492 C 4.110054016113281 33.82865524291992 3 39.32871246337891 3 45 C 3 50.67128753662109 4.110054016113281 56.17134475708008 6.299339294433594 61.34737396240234 C 8.414573669433594 66.34834289550781 11.44334411621094 70.84031677246094 15.301513671875 74.698486328125 C 19.15968322753906 78.55665588378906 23.65165710449219 81.58542633056641 28.65262985229492 83.70066070556641 C 33.82865524291992 85.88994598388672 39.32871246337891 87 45 87 C 50.67128753662109 87 56.17134475708008 85.88994598388672 61.34737396240234 83.70066070556641 C 66.34834289550781 81.58542633056641 70.84031677246094 78.55665588378906 74.698486328125 74.698486328125 C 78.55665588378906 70.84031677246094 81.58542633056641 66.34834289550781 83.70066070556641 61.34737396240234 C 85.88994598388672 56.17134475708008 87 50.67128753662109 87 45 C 87 39.32871246337891 85.88994598388672 33.82865524291992 83.70066070556641 28.65262985229492 C 81.58542633056641 23.65165710449219 78.55665588378906 19.15968322753906 74.698486328125 15.301513671875 C 70.84031677246094 11.44334411621094 66.34834289550781 8.414573669433594 61.34737396240234 6.299339294433594 C 56.17134475708008 4.110054016113281 50.67128753662109 3 45 3 M 45 0 C 69.85281372070312 0 90 20.14718627929688 90 45 C 90 69.85281372070312 69.85281372070312 90 45 90 C 20.14718627929688 90 0 69.85281372070312 0 45 C 0 20.14718627929688 20.14718627929688 0 45 0 Z" stroke="none" fill="#205277"/>
      </g>
    </g>
    <g id="Grupo_1148929" data-name="Grupo 1148929" transform="translate(18 716)">
      <rect id="Rectángulo_408346" data-name="Rectángulo 408346" width="6.063" height="22.232" transform="translate(14.905 14.905)" fill="#f4c08e"/>
      <path id="Trazado_986710" data-name="Trazado 986710" d="M20.968,14.905v20.21l-3.032-1.01-1.01-19.2Z" fill="#feb166"/>
      <g id="Grupo_1148928" data-name="Grupo 1148928">
        <g id="Grupo_1148927" data-name="Grupo 1148927" clip-path="url(#clip-path)">
          <path id="Trazado_986711" data-name="Trazado 986711" d="M20.968,37.9H14.9a.759.759,0,0,1-.758-.758V14.9a.759.759,0,0,1,.758-.758h6.063a.758.758,0,0,1,.758.758V37.137a.758.758,0,0,1-.758.758m-5.305-1.516H20.21V15.663H15.663Z" fill="#2c3d60"/>
          <rect id="Rectángulo_408347" data-name="Rectángulo 408347" width="6.063" height="12.126" transform="translate(8.842 25.011)" fill="#f4c08e"/>
          <path id="Trazado_986712" data-name="Trazado 986712" d="M14.905,25.01V35.116l-3.032-1.01-1.01-9.095Z" fill="#feb166"/>
          <path id="Trazado_986713" data-name="Trazado 986713" d="M14.9,37.9H8.842a.759.759,0,0,1-.758-.758V25.01a.758.758,0,0,1,.758-.757H14.9a.757.757,0,0,1,.758.757V37.137a.758.758,0,0,1-.758.758M9.6,36.379h4.547V25.768H9.6Z" fill="#2c3d60"/>
          <rect id="Rectángulo_408348" data-name="Rectángulo 408348" width="6.063" height="16.168" transform="translate(20.969 20.969)" fill="#f4c08e"/>
          <path id="Trazado_986714" data-name="Trazado 986714" d="M27.032,20.968V35.115L24,34.105,22.99,20.968Z" fill="#feb166"/>
          <path id="Trazado_986715" data-name="Trazado 986715" d="M27.032,37.9H20.968a.759.759,0,0,1-.758-.758V20.968a.759.759,0,0,1,.758-.758h6.064a.758.758,0,0,1,.757.758V37.137a.758.758,0,0,1-.757.758m-5.306-1.516h4.547V21.726H21.726Z" fill="#2c3d60"/>
          <rect id="Rectángulo_408349" data-name="Rectángulo 408349" width="6.063" height="36.379" transform="translate(27.032 0.758)" fill="#f4c08e"/>
          <path id="Trazado_986716" data-name="Trazado 986716" d="M33.095.758V35.116L30.064,34.1,29.053.758Z" fill="#feb166"/>
          <path id="Trazado_986717" data-name="Trazado 986717" d="M33.1,37.9H27.032a.758.758,0,0,1-.758-.758V.758A.758.758,0,0,1,27.032,0H33.1a.758.758,0,0,1,.758.758V37.137a.759.759,0,0,1-.758.758m-5.306-1.516h4.547V1.516H27.789Z" fill="#2c3d60"/>
          <rect id="Rectángulo_408350" data-name="Rectángulo 408350" width="6.063" height="23.242" transform="translate(33.095 13.895)" fill="#f4c08e"/>
          <path id="Trazado_986718" data-name="Trazado 986718" d="M39.158,13.895V35.116l-3.032-1.01-1.01-20.211Z" fill="#feb166"/>
          <path id="Trazado_986719" data-name="Trazado 986719" d="M39.158,37.9H33.1a.758.758,0,0,1-.758-.758V13.9a.758.758,0,0,1,.758-.758h6.063a.758.758,0,0,1,.758.758V37.137a.759.759,0,0,1-.758.758m-5.305-1.516H38.4V14.653H33.853Z" fill="#2c3d60"/>
          <rect id="Rectángulo_408351" data-name="Rectángulo 408351" width="6.063" height="30.316" transform="translate(39.158 6.821)" fill="#f4c08e"/>
          <path id="Trazado_986720" data-name="Trazado 986720" d="M45.221,6.821V35.116l-3.032-1.011L41.179,6.821Z" fill="#feb166"/>
          <path id="Trazado_986721" data-name="Trazado 986721" d="M45.221,37.9H39.158a.758.758,0,0,1-.758-.758V6.821a.758.758,0,0,1,.758-.758h6.063a.759.759,0,0,1,.758.758V37.137a.759.759,0,0,1-.758.758m-5.305-1.516h4.547V7.579H39.916Z" fill="#2c3d60"/>
          <path id="Trazado_986722" data-name="Trazado 986722" d="M46.02,34.367,33.1,37.137V36.126a1.011,1.011,0,0,0-1.011-1.01H24l-7.074-4.043H8.842V43.2l18.19,4.042,19.652-9.826a1.01,1.01,0,0,0,.558-.9V35.355a1.01,1.01,0,0,0-1.222-.988" fill="#bac4d3"/>
          <path id="Trazado_986723" data-name="Trazado 986723" d="M46.02,34.367,33.1,37.137V36.126a1.011,1.011,0,0,0-1.011-1.01H24l-7.074-4.043H8.842v9.095L26.083,44a3.026,3.026,0,0,0,1.843-.169l19.316-8.208v-.267a1.01,1.01,0,0,0-1.222-.988" fill="#dfebf7"/>
          <rect id="Rectángulo_408352" data-name="Rectángulo 408352" width="8.084" height="14.147" transform="translate(0.758 30.063)" fill="#5aa874"/>
          <rect id="Rectángulo_408353" data-name="Rectángulo 408353" width="8.084" height="9.095" transform="translate(0.758 30.063)" fill="#9fe2a0"/>
          <rect id="Rectángulo_408354" data-name="Rectángulo 408354" width="8.084" height="9.095" transform="translate(0.758 32.084)" fill="#77d982"/>
          <path id="Trazado_986724" data-name="Trazado 986724" d="M8.842,44.968H.758A.758.758,0,0,1,0,44.21V30.063a.758.758,0,0,1,.758-.758H8.842a.759.759,0,0,1,.758.758V44.21a.758.758,0,0,1-.758.758M1.516,43.453H8.084V30.821H1.516Z" fill="#2c3d60"/>
          <path id="Trazado_986725" data-name="Trazado 986725" d="M27.032,48a.765.765,0,0,1-.165-.018L8.678,43.94a.758.758,0,1,1,.329-1.48l17.926,3.984,19.413-9.706a.252.252,0,0,0,.139-.226V35.356a.253.253,0,0,0-.094-.2.249.249,0,0,0-.213-.051l-12.924,2.77a.758.758,0,1,1-.318-1.482l12.925-2.77A1.769,1.769,0,0,1,48,35.356v1.156a1.758,1.758,0,0,1-.978,1.582L27.371,47.92a.761.761,0,0,1-.339.08" fill="#2c3d60"/>
          <path id="Trazado_986726" data-name="Trazado 986726" d="M24,40.926a.737.737,0,0,1-.208-.03l-7.074-2.021a.757.757,0,1,1,.416-1.456L24.065,39.4l8.047-.894a.252.252,0,0,0,.225-.25V36.126a.254.254,0,0,0-.253-.253H24a.76.76,0,0,1-.376-.1l-6.9-3.943H8.842a.758.758,0,1,1,0-1.516h8.084a.758.758,0,0,1,.376.1l6.9,3.943h7.883a1.771,1.771,0,0,1,1.769,1.768v2.128a1.764,1.764,0,0,1-1.574,1.756l-8.195.911a.789.789,0,0,1-.084,0" fill="#2c3d60"/>
          <path id="Trazado_986727" data-name="Trazado 986727" d="M4.8,41.937a.758.758,0,0,1-.758-.758V39.158a.758.758,0,0,1,1.516,0v2.021a.758.758,0,0,1-.758.758" fill="#2c3d60"/>
        </g>
      </g>
    </g>
  </g>
</svg>
