<svg xmlns="http://www.w3.org/2000/svg" xmlns:xlink="http://www.w3.org/1999/xlink" width="108" height="108" viewBox="0 0 108 108">
  <defs>
    <filter id="Fondo" x="0" y="0" width="108" height="108" filterUnits="userSpaceOnUse">
      <feOffset dy="3" input="SourceAlpha"/>
      <feGaussianBlur stdDeviation="3" result="blur"/>
      <feFlood flood-opacity="0.161"/>
      <feComposite operator="in" in2="blur"/>
      <feComposite in="SourceGraphic"/>
    </filter>
    <clipPath id="clip-path">
      <rect id="Rectángulo_408356" data-name="Rectángulo 408356" width="55" height="55" transform="translate(-0.191 -0.191)" fill="none"/>
    </clipPath>
  </defs>
  <g id="Icono" transform="translate(9 -689)">
    <g transform="matrix(1, 0, 0, 1, -9, 689)" filter="url(#Fondo)">
      <g id="Fondo-2" data-name="Fondo" transform="translate(9 6)" fill="#d7e9f7">
        <path d="M 45 88.5 C 39.12687683105469 88.5 33.43022537231445 87.35007476806641 28.06830024719238 85.08217620849609 C 22.88852500915527 82.89131164550781 18.23629951477051 79.75458526611328 14.2408504486084 75.75914764404297 C 10.24541282653809 71.76370239257812 7.108687400817871 67.11147308349609 4.917825222015381 61.93170166015625 C 2.649924993515015 56.56977462768555 1.5 50.87312316894531 1.5 45 C 1.5 39.12687683105469 2.649924993515015 33.43022537231445 4.917825222015381 28.06830024719238 C 7.108687400817871 22.88852500915527 10.24541282653809 18.23629951477051 14.2408504486084 14.2408504486084 C 18.23629951477051 10.24541282653809 22.88852500915527 7.108687400817871 28.06830024719238 4.917825222015381 C 33.43022537231445 2.649924993515015 39.12687683105469 1.5 45 1.5 C 50.87312316894531 1.5 56.56977462768555 2.649924993515015 61.93170166015625 4.917825222015381 C 67.11147308349609 7.108687400817871 71.76370239257812 10.24541282653809 75.75914764404297 14.2408504486084 C 79.75458526611328 18.23629951477051 82.89131164550781 22.88852500915527 85.08217620849609 28.06830024719238 C 87.35007476806641 33.43022537231445 88.5 39.12687683105469 88.5 45 C 88.5 50.87312316894531 87.35007476806641 56.56977462768555 85.08217620849609 61.93170166015625 C 82.89131164550781 67.11147308349609 79.75458526611328 71.76370239257812 75.75914764404297 75.75914764404297 C 71.76370239257812 79.75458526611328 67.11147308349609 82.89131164550781 61.93170166015625 85.08217620849609 C 56.56977462768555 87.35007476806641 50.87312316894531 88.5 45 88.5 Z" stroke="none"/>
        <path d="M 45 3 C 39.32871246337891 3 33.82865524291992 4.110054016113281 28.65262985229492 6.299339294433594 C 23.65165710449219 8.414573669433594 19.15968322753906 11.44334411621094 15.301513671875 15.301513671875 C 11.44334411621094 19.15968322753906 8.414573669433594 23.65165710449219 6.299339294433594 28.65262985229492 C 4.110054016113281 33.82865524291992 3 39.32871246337891 3 45 C 3 50.67128753662109 4.110054016113281 56.17134475708008 6.299339294433594 61.34737396240234 C 8.414573669433594 66.34834289550781 11.44334411621094 70.84031677246094 15.301513671875 74.698486328125 C 19.15968322753906 78.55665588378906 23.65165710449219 81.58542633056641 28.65262985229492 83.70066070556641 C 33.82865524291992 85.88994598388672 39.32871246337891 87 45 87 C 50.67128753662109 87 56.17134475708008 85.88994598388672 61.34737396240234 83.70066070556641 C 66.34834289550781 81.58542633056641 70.84031677246094 78.55665588378906 74.698486328125 74.698486328125 C 78.55665588378906 70.84031677246094 81.58542633056641 66.34834289550781 83.70066070556641 61.34737396240234 C 85.88994598388672 56.17134475708008 87 50.67128753662109 87 45 C 87 39.32871246337891 85.88994598388672 33.82865524291992 83.70066070556641 28.65262985229492 C 81.58542633056641 23.65165710449219 78.55665588378906 19.15968322753906 74.698486328125 15.301513671875 C 70.84031677246094 11.44334411621094 66.34834289550781 8.414573669433594 61.34737396240234 6.299339294433594 C 56.17134475708008 4.110054016113281 50.67128753662109 3 45 3 M 45 0 C 69.85281372070312 0 90 20.14718627929688 90 45 C 90 69.85281372070312 69.85281372070312 90 45 90 C 20.14718627929688 90 0 69.85281372070312 0 45 C 0 20.14718627929688 20.14718627929688 0 45 0 Z" stroke="none" fill="#205277"/>
      </g>
    </g>
    <g id="Grupo_1148931" data-name="Grupo 1148931" transform="translate(19.192 714.191)">
      <g id="Grupo_1148930" data-name="Grupo 1148930" clip-path="url(#clip-path)">
        <path id="Trazado_986728" data-name="Trazado 986728" d="M23.521,48.215H11.983a.866.866,0,1,1,0-1.731H23.521a.866.866,0,1,1,0,1.731" transform="translate(1.577 6.594)" fill="#2c3d60"/>
        <path id="Trazado_986729" data-name="Trazado 986729" d="M27.412,44.173H8.95a.866.866,0,1,1,0-1.731H27.412a.866.866,0,1,1,0,1.731" transform="translate(1.147 6.02)" fill="#2c3d60"/>
        <path id="Trazado_986730" data-name="Trazado 986730" d="M27.412,40.131H8.95a.866.866,0,1,1,0-1.731H27.412a.866.866,0,1,1,0,1.731" transform="translate(1.147 5.447)" fill="#2c3d60"/>
        <path id="Trazado_986731" data-name="Trazado 986731" d="M18.329.779A18.459,18.459,0,0,0,7.557,33.527,3.454,3.454,0,0,1,8.835,36.2v1.31a2.347,2.347,0,0,0,2.308,2.476H27.3A2.306,2.306,0,0,0,29.6,37.681V36.2a3.443,3.443,0,0,1,1.271-2.668A18.46,18.46,0,0,0,18.329.779" transform="translate(0.107 0.107)" fill="#feb166"/>
        <path id="Trazado_986732" data-name="Trazado 986732" d="M9.693,31.127A18.4,18.4,0,0,1,4.224,17.619,18.631,18.631,0,0,1,15.262,1.14a18.454,18.454,0,0,0-7.7,32.34,3.442,3.442,0,0,1,1.27,2.668v1.479a2.308,2.308,0,0,0,2.308,2.308H12.3V37.113a8.453,8.453,0,0,0-2.6-5.986" transform="translate(0.108 0.162)" fill="#f4c08e"/>
        <path id="Trazado_986733" data-name="Trazado 986733" d="M20.3,1.116a18.445,18.445,0,0,1,4.8,27.273,17.585,17.585,0,0,0-4.033,10.963v.587h3.461a2.307,2.307,0,0,0,2.308-2.308V36.152a3.442,3.442,0,0,1,1.27-2.668A18.457,18.457,0,0,0,20.3,1.116" transform="translate(2.879 0.158)" fill="#e78251"/>
        <path id="Trazado_986734" data-name="Trazado 986734" d="M27.4,40.962H11.251A3.237,3.237,0,0,1,8.078,37.6V36.3a2.568,2.568,0,0,0-.956-1.995A19.326,19.326,0,1,1,32.668,5.342a19.323,19.323,0,0,1-1.14,28.97,2.571,2.571,0,0,0-.951,2v1.479A3.177,3.177,0,0,1,27.4,40.962M18.477,1.751a17.848,17.848,0,0,0-16.743,17.2A17.5,17.5,0,0,0,8.216,32.967,4.3,4.3,0,0,1,9.809,36.3V37.6a1.5,1.5,0,0,0,1.442,1.633H27.4a1.444,1.444,0,0,0,1.443-1.442V36.31a4.294,4.294,0,0,1,1.588-3.34A17.595,17.595,0,0,0,18.477,1.751m-.04-.864h0Z" transform="translate(0 0)" fill="#2c3d60"/>
        <path id="Trazado_986735" data-name="Trazado 986735" d="M20.2,38.1H15.587a.867.867,0,0,1-.832-.628L10.139,21.314A.865.865,0,0,1,11.359,20.3l6.536,3.267L24.43,20.3a.865.865,0,0,1,1.219,1.012L21.035,37.468a.865.865,0,0,1-.832.628M16.24,36.365h3.309l3.9-13.635-5.165,2.582a.863.863,0,0,1-.774,0L12.344,22.73Z" transform="translate(1.434 2.867)" fill="#2c3d60"/>
        <path id="Trazado_986736" data-name="Trazado 986736" d="M43.545,5.152a15,15,0,1,0,0,21.213,15,15,0,0,0,0-21.213" transform="translate(2.544 0.108)" fill="#dfebf7"/>
        <path id="Trazado_986737" data-name="Trazado 986737" d="M29.588.863a14.989,14.989,0,0,1,0,29.788,14.992,14.992,0,1,0,0-29.788" transform="translate(4.197 0.109)" fill="#bac4d3"/>
        <path id="Trazado_986738" data-name="Trazado 986738" d="M34.635,30.651a14.989,14.989,0,0,1,0-29.788,14.992,14.992,0,1,0,0,29.788" transform="translate(2.544 0.109)" fill="#fff"/>
        <path id="Trazado_986739" data-name="Trazado 986739" d="M33.044,31.732A15.866,15.866,0,0,1,21.826,4.647,15.865,15.865,0,0,1,44.263,27.085a15.757,15.757,0,0,1-11.219,4.647m0-30a14.135,14.135,0,0,0-9.995,24.129A14.134,14.134,0,1,0,43.039,5.871a14.037,14.037,0,0,0-9.995-4.14" transform="translate(2.438)" fill="#2c3d60"/>
        <path id="Trazado_986740" data-name="Trazado 986740" d="M45.47,4.707,34.485,15.693l-5.622-5.622a1.407,1.407,0,0,0-1.991,0l-2.7,2.7a1.409,1.409,0,0,0,0,1.993l8.323,8.322a2.817,2.817,0,0,0,3.983,0L50.162,9.4a1.407,1.407,0,0,0,0-1.991l-2.7-2.7a1.407,1.407,0,0,0-1.991,0" transform="translate(3.37 0.609)" fill="#8396ff"/>
        <path id="Trazado_986741" data-name="Trazado 986741" d="M32.823,18.73a2.349,2.349,0,0,0,3.323,0L48.816,6.06,47.462,4.707a1.407,1.407,0,0,0-1.991,0L34.485,15.692l-5.621-5.621a1.409,1.409,0,0,0-1.993,0l-2.7,2.7a1.407,1.407,0,0,0,0,1.991l1.354,1.354,1.927-1.927a.589.589,0,0,1,.83,0Z" transform="translate(3.37 0.609)" fill="#8eb6ff"/>
        <path id="Trazado_986742" data-name="Trazado 986742" d="M34.592,24.881a3.667,3.667,0,0,1-2.6-1.077l-8.323-8.323a2.27,2.27,0,0,1,0-3.214l2.7-2.7a2.279,2.279,0,0,1,3.215,0l5.01,5.01L44.966,4.2a2.277,2.277,0,0,1,3.215,0l2.7,2.7a2.276,2.276,0,0,1,0,3.214L37.2,23.8a3.671,3.671,0,0,1-2.6,1.077m-6.618-14.25a.542.542,0,0,0-.385.159l-2.7,2.7a.543.543,0,0,0,0,.767l8.323,8.322a1.954,1.954,0,0,0,2.76,0L49.658,8.894a.544.544,0,0,0,0-.767l-2.7-2.7a.553.553,0,0,0-.767,0L35.2,16.411a.864.864,0,0,1-1.224,0L28.359,10.79a.542.542,0,0,0-.385-.159" transform="translate(3.262 0.502)" fill="#2c3d60"/>
        <path id="Trazado_986743" data-name="Trazado 986743" d="M34.214,42.3a.866.866,0,0,1-.866-.866V40.277a.866.866,0,0,1,1.731,0V41.43a.866.866,0,0,1-.866.866" transform="translate(4.73 5.59)" fill="#2c3d60"/>
        <path id="Trazado_986744" data-name="Trazado 986744" d="M34.214,47.348a.866.866,0,0,1-.866-.866V45.328a.866.866,0,0,1,1.731,0v1.154a.866.866,0,0,1-.866.866" transform="translate(4.73 6.307)" fill="#2c3d60"/>
        <path id="Trazado_986745" data-name="Trazado 986745" d="M32.336,44.173H31.181a.866.866,0,0,1,0-1.731h1.154a.866.866,0,0,1,0,1.731" transform="translate(4.3 6.02)" fill="#2c3d60"/>
        <path id="Trazado_986746" data-name="Trazado 986746" d="M37.389,44.173H36.234a.866.866,0,0,1,0-1.731h1.154a.866.866,0,1,1,0,1.731" transform="translate(5.017 6.02)" fill="#2c3d60"/>
        <path id="Trazado_986747" data-name="Trazado 986747" d="M41.288,32.19a.866.866,0,0,1-.866-.866V30.172a.866.866,0,1,1,1.731,0v1.153a.866.866,0,0,1-.866.866" transform="translate(5.734 4.157)" fill="#2c3d60"/>
        <path id="Trazado_986748" data-name="Trazado 986748" d="M41.288,37.242a.866.866,0,0,1-.866-.866V35.224a.866.866,0,0,1,1.731,0v1.153a.866.866,0,0,1-.866.866" transform="translate(5.734 4.874)" fill="#2c3d60"/>
        <path id="Trazado_986749" data-name="Trazado 986749" d="M39.41,34.068H38.256a.866.866,0,0,1,0-1.731H39.41a.866.866,0,1,1,0,1.731" transform="translate(5.304 4.587)" fill="#2c3d60"/>
        <path id="Trazado_986750" data-name="Trazado 986750" d="M44.463,34.068H43.309a.866.866,0,0,1,0-1.731h1.154a.866.866,0,0,1,0,1.731" transform="translate(6.02 4.587)" fill="#2c3d60"/>
      </g>
    </g>
  </g>
</svg>
