<svg xmlns="http://www.w3.org/2000/svg" xmlns:xlink="http://www.w3.org/1999/xlink" width="108" height="108" viewBox="0 0 108 108">
  <defs>
    <filter id="Fondo" x="0" y="0" width="108" height="108" filterUnits="userSpaceOnUse">
      <feOffset dy="3" input="SourceAlpha"/>
      <feGaussianBlur stdDeviation="3" result="blur"/>
      <feFlood flood-opacity="0.161"/>
      <feComposite operator="in" in2="blur"/>
      <feComposite in="SourceGraphic"/>
    </filter>
    <clipPath id="clip-path">
      <rect id="Rectángulo_408358" data-name="Rectángulo 408358" width="51" height="51" transform="translate(-0.139 -0.139)" fill="none"/>
    </clipPath>
  </defs>
  <g id="Icono" transform="translate(9 -689)">
    <g transform="matrix(1, 0, 0, 1, -9, 689)" filter="url(#Fondo)">
      <g id="Fondo-2" data-name="Fondo" transform="translate(9 6)" fill="#d7e9f7">
        <path d="M 45 88.5 C 39.12687683105469 88.5 33.43022537231445 87.35007476806641 28.06830024719238 85.08217620849609 C 22.88852500915527 82.89131164550781 18.23629951477051 79.75458526611328 14.2408504486084 75.75914764404297 C 10.24541282653809 71.76370239257812 7.108687400817871 67.11147308349609 4.917825222015381 61.93170166015625 C 2.649924993515015 56.56977462768555 1.5 50.87312316894531 1.5 45 C 1.5 39.12687683105469 2.649924993515015 33.43022537231445 4.917825222015381 28.06830024719238 C 7.108687400817871 22.88852500915527 10.24541282653809 18.23629951477051 14.2408504486084 14.2408504486084 C 18.23629951477051 10.24541282653809 22.88852500915527 7.108687400817871 28.06830024719238 4.917825222015381 C 33.43022537231445 2.649924993515015 39.12687683105469 1.5 45 1.5 C 50.87312316894531 1.5 56.56977462768555 2.649924993515015 61.93170166015625 4.917825222015381 C 67.11147308349609 7.108687400817871 71.76370239257812 10.24541282653809 75.75914764404297 14.2408504486084 C 79.75458526611328 18.23629951477051 82.89131164550781 22.88852500915527 85.08217620849609 28.06830024719238 C 87.35007476806641 33.43022537231445 88.5 39.12687683105469 88.5 45 C 88.5 50.87312316894531 87.35007476806641 56.56977462768555 85.08217620849609 61.93170166015625 C 82.89131164550781 67.11147308349609 79.75458526611328 71.76370239257812 75.75914764404297 75.75914764404297 C 71.76370239257812 79.75458526611328 67.11147308349609 82.89131164550781 61.93170166015625 85.08217620849609 C 56.56977462768555 87.35007476806641 50.87312316894531 88.5 45 88.5 Z" stroke="none"/>
        <path d="M 45 3 C 39.32871246337891 3 33.82865524291992 4.110054016113281 28.65262985229492 6.299339294433594 C 23.65165710449219 8.414573669433594 19.15968322753906 11.44334411621094 15.301513671875 15.301513671875 C 11.44334411621094 19.15968322753906 8.414573669433594 23.65165710449219 6.299339294433594 28.65262985229492 C 4.110054016113281 33.82865524291992 3 39.32871246337891 3 45 C 3 50.67128753662109 4.110054016113281 56.17134475708008 6.299339294433594 61.34737396240234 C 8.414573669433594 66.34834289550781 11.44334411621094 70.84031677246094 15.301513671875 74.698486328125 C 19.15968322753906 78.55665588378906 23.65165710449219 81.58542633056641 28.65262985229492 83.70066070556641 C 33.82865524291992 85.88994598388672 39.32871246337891 87 45 87 C 50.67128753662109 87 56.17134475708008 85.88994598388672 61.34737396240234 83.70066070556641 C 66.34834289550781 81.58542633056641 70.84031677246094 78.55665588378906 74.698486328125 74.698486328125 C 78.55665588378906 70.84031677246094 81.58542633056641 66.34834289550781 83.70066070556641 61.34737396240234 C 85.88994598388672 56.17134475708008 87 50.67128753662109 87 45 C 87 39.32871246337891 85.88994598388672 33.82865524291992 83.70066070556641 28.65262985229492 C 81.58542633056641 23.65165710449219 78.55665588378906 19.15968322753906 74.698486328125 15.301513671875 C 70.84031677246094 11.44334411621094 66.34834289550781 8.414573669433594 61.34737396240234 6.299339294433594 C 56.17134475708008 4.110054016113281 50.67128753662109 3 45 3 M 45 0 C 69.85281372070312 0 90 20.14718627929688 90 45 C 90 69.85281372070312 69.85281372070312 90 45 90 C 20.14718627929688 90 0 69.85281372070312 0 45 C 0 20.14718627929688 20.14718627929688 0 45 0 Z" stroke="none" fill="#205277"/>
      </g>
    </g>
    <g id="Grupo_1148935" data-name="Grupo 1148935" transform="translate(23.14 715.139)">
      <g id="Grupo_1148934" data-name="Grupo 1148934" clip-path="url(#clip-path)">
        <path id="Trazado_986806" data-name="Trazado 986806" d="M39.328,50.012H2.876A2.119,2.119,0,0,1,.757,47.893V2.877A2.119,2.119,0,0,1,2.876.758H39.328a2.119,2.119,0,0,1,2.119,2.119V47.893a2.119,2.119,0,0,1-2.119,2.119" transform="translate(0.045 0.045)" fill="#bac4d3"/>
        <path id="Trazado_986807" data-name="Trazado 986807" d="M34.178,44.775.758,46.8V2.9A2.142,2.142,0,0,1,2.9.758H38.235L36.187,42.741a2.14,2.14,0,0,1-2.009,2.033" transform="translate(0.045 0.045)" fill="#fff"/>
        <path id="Trazado_986808" data-name="Trazado 986808" d="M34.134,44.733,1.485,46.712,4.849,6.761a2.143,2.143,0,0,1,1.907-1.95l31.4-3.349L36.143,42.7a2.14,2.14,0,0,1-2.009,2.033" transform="translate(0.088 0.087)" fill="#dfebf7"/>
        <path id="Trazado_986809" data-name="Trazado 986809" d="M39.35,50.861H2.945A2.947,2.947,0,0,1,0,47.916V2.945A2.948,2.948,0,0,1,2.945,0H39.35a2.948,2.948,0,0,1,2.945,2.945V47.916a2.947,2.947,0,0,1-2.945,2.945M2.945,1.606A1.339,1.339,0,0,0,1.606,2.945V47.916a1.339,1.339,0,0,0,1.338,1.338H39.35a1.34,1.34,0,0,0,1.339-1.338V2.945A1.34,1.34,0,0,0,39.35,1.606Z" fill="#2c3d60"/>
        <path id="Trazado_986810" data-name="Trazado 986810" d="M28.041,6.96H13.05A2.948,2.948,0,0,1,10.1,4.016V.8a.8.8,0,0,1,.8-.8H30.182a.8.8,0,0,1,.8.8V4.016A2.948,2.948,0,0,1,28.041,6.96M11.711,1.606v2.41A1.34,1.34,0,0,0,13.05,5.354H28.041a1.34,1.34,0,0,0,1.338-1.338V1.606Z" transform="translate(0.602)" fill="#2c3d60"/>
        <path id="Trazado_986811" data-name="Trazado 986811" d="M25.658,11.711H14.951a.8.8,0,1,1,0-1.606H25.658a.8.8,0,0,1,0,1.606" transform="translate(0.843 0.602)" fill="#2c3d60"/>
        <path id="Trazado_986812" data-name="Trazado 986812" d="M20.605,16.764H9.9a.8.8,0,0,1,0-1.606H20.605a.8.8,0,1,1,0,1.606" transform="translate(0.542 0.903)" fill="#2c3d60"/>
        <path id="Trazado_986813" data-name="Trazado 986813" d="M6.987,16.764H4.845a.8.8,0,1,1,0-1.606H6.987a.8.8,0,1,1,0,1.606" transform="translate(0.241 0.903)" fill="#2c3d60"/>
        <path id="Trazado_986814" data-name="Trazado 986814" d="M16.323,21.816H9.9a.8.8,0,0,1,0-1.606h6.424a.8.8,0,0,1,0,1.606" transform="translate(0.542 1.204)" fill="#2c3d60"/>
        <path id="Trazado_986815" data-name="Trazado 986815" d="M6.987,21.816H4.845a.8.8,0,1,1,0-1.606H6.987a.8.8,0,0,1,0,1.606" transform="translate(0.241 1.204)" fill="#2c3d60"/>
        <path id="Trazado_986816" data-name="Trazado 986816" d="M15.252,26.869H9.9a.8.8,0,0,1,0-1.606h5.354a.8.8,0,1,1,0,1.606" transform="translate(0.542 1.506)" fill="#2c3d60"/>
        <path id="Trazado_986817" data-name="Trazado 986817" d="M6.987,26.869H4.845a.8.8,0,1,1,0-1.606H6.987a.8.8,0,1,1,0,1.606" transform="translate(0.241 1.506)" fill="#2c3d60"/>
        <path id="Trazado_986818" data-name="Trazado 986818" d="M15.252,31.922H9.9a.8.8,0,0,1,0-1.606h5.354a.8.8,0,1,1,0,1.606" transform="translate(0.542 1.807)" fill="#2c3d60"/>
        <path id="Trazado_986819" data-name="Trazado 986819" d="M6.987,31.922H4.845a.8.8,0,1,1,0-1.606H6.987a.8.8,0,1,1,0,1.606" transform="translate(0.241 1.807)" fill="#2c3d60"/>
        <path id="Trazado_986820" data-name="Trazado 986820" d="M17.394,36.974H9.9a.8.8,0,1,1,0-1.606h7.5a.8.8,0,1,1,0,1.606" transform="translate(0.542 2.108)" fill="#2c3d60"/>
        <path id="Trazado_986821" data-name="Trazado 986821" d="M6.987,36.974H4.845a.8.8,0,1,1,0-1.606H6.987a.8.8,0,1,1,0,1.606" transform="translate(0.241 2.108)" fill="#2c3d60"/>
        <path id="Trazado_986822" data-name="Trazado 986822" d="M21.677,42.027H9.9a.8.8,0,0,1,0-1.606H21.677a.8.8,0,1,1,0,1.606" transform="translate(0.542 2.409)" fill="#2c3d60"/>
        <path id="Trazado_986823" data-name="Trazado 986823" d="M6.987,42.027H4.845a.8.8,0,1,1,0-1.606H6.987a.8.8,0,1,1,0,1.606" transform="translate(0.241 2.409)" fill="#2c3d60"/>
        <path id="Trazado_986824" data-name="Trazado 986824" d="M45.777,28.825a13.92,13.92,0,1,0-13.92,13.92,13.92,13.92,0,0,0,13.92-13.92" transform="translate(1.069 0.888)" fill="#8eb6ff"/>
        <path id="Trazado_986825" data-name="Trazado 986825" d="M40.346,17.768A13.909,13.909,0,0,1,20.8,37.314,13.912,13.912,0,1,0,40.346,17.768" transform="translate(1.24 1.059)" fill="#8396ff"/>
        <path id="Trazado_986826" data-name="Trazado 986826" d="M23.2,39.711A13.909,13.909,0,0,1,42.744,20.165,13.912,13.912,0,1,0,23.2,39.711" transform="translate(1.069 0.888)" fill="#b5daff"/>
        <path id="Trazado_986827" data-name="Trazado 986827" d="M31.9,43.593A14.723,14.723,0,1,1,46.625,28.87,14.74,14.74,0,0,1,31.9,43.593m0-27.84A13.117,13.117,0,1,0,45.019,28.87,13.131,13.131,0,0,0,31.9,15.753" transform="translate(1.024 0.843)" fill="#2c3d60"/>
        <path id="Trazado_986828" data-name="Trazado 986828" d="M43.905,18.825,33.711,29.019,28.494,23.8a1.307,1.307,0,0,0-1.849,0l-2.506,2.506a1.31,1.31,0,0,0,0,1.85l7.723,7.721a2.614,2.614,0,0,0,3.7,0l12.7-12.7a1.306,1.306,0,0,0,0-1.848l-2.506-2.506a1.306,1.306,0,0,0-1.848,0" transform="translate(1.416 1.099)" fill="#bac4d3"/>
        <path id="Trazado_986829" data-name="Trazado 986829" d="M32.169,31.838a2.179,2.179,0,0,0,3.083,0L47.01,20.081l-1.257-1.256a1.306,1.306,0,0,0-1.848,0L33.711,29.019,28.494,23.8a1.307,1.307,0,0,0-1.849,0l-2.506,2.506a1.308,1.308,0,0,0,0,1.848L25.4,29.413l1.789-1.789a.546.546,0,0,1,.77,0Z" transform="translate(1.416 1.099)" fill="#dfebf7"/>
        <path id="Trazado_986830" data-name="Trazado 986830" d="M33.756,37.491a3.406,3.406,0,0,1-2.416-1l-7.722-7.723a2.113,2.113,0,0,1,0-2.984l2.506-2.506a2.113,2.113,0,0,1,2.984,0l4.65,4.65L43.383,18.3a2.11,2.11,0,0,1,2.983,0l2.507,2.506a2.111,2.111,0,0,1,0,2.984l-12.7,12.7a3.4,3.4,0,0,1-2.416,1m-6.14-13.224a.5.5,0,0,0-.357.147l-2.5,2.506a.5.5,0,0,0,0,.713l7.722,7.722a1.855,1.855,0,0,0,2.561,0l12.7-12.7a.5.5,0,0,0,0-.712l-2.506-2.506a.518.518,0,0,0-.713,0L34.325,29.631a.8.8,0,0,1-1.136,0l-5.217-5.216a.5.5,0,0,0-.356-.147" transform="translate(1.371 1.054)" fill="#2c3d60"/>
      </g>
    </g>
  </g>
</svg>
