<svg xmlns="http://www.w3.org/2000/svg" xmlns:xlink="http://www.w3.org/1999/xlink" width="113" height="113" viewBox="0 0 113 113">
  <defs>
    <filter id="Trazado_982547" x="0" y="0" width="113" height="113" filterUnits="userSpaceOnUse">
      <feOffset dy="3" input="SourceAlpha"/>
      <feGaussianBlur stdDeviation="3" result="blur"/>
      <feFlood flood-opacity="0.161"/>
      <feComposite operator="in" in2="blur"/>
      <feComposite in="SourceGraphic"/>
    </filter>
    <clipPath id="clip-path">
      <rect id="Rectángulo_408298" data-name="Rectángulo 408298" width="60" height="60" fill="none"/>
    </clipPath>
  </defs>
  <g id="Grupo_1148578" data-name="Grupo 1148578" transform="translate(-324 -3704.178)">
    <g id="Grupo_1147086" data-name="Grupo 1147086" transform="translate(333 3710.178)">
      <g transform="matrix(1, 0, 0, 1, -9, -6)" filter="url(#Trazado_982547)">
        <g id="Trazado_982547-2" data-name="Trazado 982547" transform="translate(9 6)" fill="#fdeffe">
          <path d="M 47.5 93.5 C 41.28937149047852 93.5 35.26533508300781 92.28397369384766 29.59518623352051 89.88570404052734 C 24.11771965026855 87.56893157958984 19.19813346862793 84.25196075439453 14.97309303283691 80.02691650390625 C 10.74804019927979 75.80186462402344 7.431066513061523 70.88229370117188 5.114293098449707 65.40481567382812 C 2.716026782989502 59.73468017578125 1.5 53.71062850952148 1.5 47.5 C 1.5 41.28937149047852 2.716026782989502 35.26533508300781 5.114293098449707 29.59518623352051 C 7.431066513061523 24.11771965026855 10.74804019927979 19.19813346862793 14.97309303283691 14.97309303283691 C 19.19813346862793 10.74804019927979 24.11771965026855 7.431066513061523 29.59518623352051 5.114293098449707 C 35.26533508300781 2.716026782989502 41.28937149047852 1.5 47.5 1.5 C 53.71062850952148 1.5 59.73468017578125 2.716026782989502 65.40481567382812 5.114293098449707 C 70.88229370117188 7.431066513061523 75.80186462402344 10.74804019927979 80.02691650390625 14.97309303283691 C 84.25196075439453 19.19813346862793 87.56893157958984 24.11771965026855 89.88570404052734 29.59518623352051 C 92.28397369384766 35.26533508300781 93.5 41.28937149047852 93.5 47.5 C 93.5 53.71062850952148 92.28397369384766 59.73468017578125 89.88570404052734 65.40481567382812 C 87.56893157958984 70.88229370117188 84.25196075439453 75.80186462402344 80.02691650390625 80.02691650390625 C 75.80186462402344 84.25196075439453 70.88229370117188 87.56893157958984 65.40481567382812 89.88570404052734 C 59.73468017578125 92.28397369384766 53.71062850952148 93.5 47.5 93.5 Z" stroke="none"/>
          <path d="M 47.5 3 C 41.49121475219727 3 35.66376876831055 4.176155090332031 30.17950439453125 6.495796203613281 C 24.88084411621094 8.736953735351562 20.12152099609375 11.94598388671875 16.03375244140625 16.03375244140625 C 11.94598388671875 20.12152099609375 8.736953735351562 24.88084411621094 6.495796203613281 30.17950439453125 C 4.176155090332031 35.66376876831055 3 41.49121475219727 3 47.5 C 3 53.50878524780273 4.176155090332031 59.33623123168945 6.495796203613281 64.82049560546875 C 8.736953735351562 70.11915588378906 11.94598388671875 74.87847900390625 16.03375244140625 78.96624755859375 C 20.12152099609375 83.05401611328125 24.88084411621094 86.26304626464844 30.17950439453125 88.50419616699219 C 35.66376876831055 90.82384490966797 41.49121475219727 92 47.5 92 C 53.50878524780273 92 59.33623123168945 90.82384490966797 64.82049560546875 88.50419616699219 C 70.11915588378906 86.26304626464844 74.87847900390625 83.05401611328125 78.96624755859375 78.96624755859375 C 83.05401611328125 74.87847900390625 86.26304626464844 70.11915588378906 88.50419616699219 64.82049560546875 C 90.82384490966797 59.33623123168945 92 53.50878524780273 92 47.5 C 92 41.49121475219727 90.82384490966797 35.66376876831055 88.50419616699219 30.17950439453125 C 86.26304626464844 24.88084411621094 83.05401611328125 20.12152099609375 78.96624755859375 16.03375244140625 C 74.87847900390625 11.94598388671875 70.11915588378906 8.736953735351562 64.82049560546875 6.495796203613281 C 59.33623123168945 4.176155090332031 53.50878524780273 3 47.5 3 M 47.5 0 C 73.7335205078125 0 95 21.2664794921875 95 47.5 C 95 73.7335205078125 73.7335205078125 95 47.5 95 C 21.2664794921875 95 0 73.7335205078125 0 47.5 C 0 21.2664794921875 21.2664794921875 0 47.5 0 Z" stroke="none" fill="#ee70f7"/>
        </g>
      </g>
      <g id="Grupo_1148905" data-name="Grupo 1148905" transform="translate(16 19.565)">
        <g id="Grupo_1148904" data-name="Grupo 1148904" clip-path="url(#clip-path)">
          <path id="Trazado_986423" data-name="Trazado 986423" d="M19.028,17.444,2,27.268l2,3.464,15.557-8.975A13.018,13.018,0,0,1,19,18c0-.188.02-.37.028-.556" fill="#fe9d52"/>
          <path id="Trazado_986424" data-name="Trazado 986424" d="M3.042,29.073,4,30.733l15.557-8.976a13.125,13.125,0,0,1-.434-2.021Z" fill="#f15574"/>
          <rect id="Rectángulo_408279" data-name="Rectángulo 408279" width="16" height="4" transform="translate(12.899 34.272) rotate(-45)" fill="#d0d8da"/>
          <path id="Trazado_986425" data-name="Trazado 986425" d="M24.213,22.958l-6.626,6.626a17,17,0,0,0,1.35,1.307l-1.878,1.878a1.881,1.881,0,0,1-2.659,0l-1.5,1.5L15.728,37.1,27.041,25.786Z" fill="#b8bebf"/>
          <path id="Trazado_986426" data-name="Trazado 986426" d="M1.586,45.586l2.828,2.828a2,2,0,0,0,2.829,0l8.485-8.485a2,2,0,0,0,0-2.828L12.9,34.272a2,2,0,0,0-2.829,0L1.586,42.758a2,2,0,0,0,0,2.828" fill="#fe9d52"/>
          <path id="Trazado_986427" data-name="Trazado 986427" d="M14.642,36.015,9.364,41.293a4.983,4.983,0,0,1-6.654.341L1.586,42.758a2,2,0,0,0,0,2.828l2.828,2.829a2,2,0,0,0,2.828,0l8.486-8.486a2,2,0,0,0,0-2.828Z" fill="#feebdb"/>
          <path id="Trazado_986428" data-name="Trazado 986428" d="M15,18A17,17,0,1,0,32,1,17,17,0,0,0,15,18" fill="#e9f1f2"/>
          <path id="Trazado_986429" data-name="Trazado 986429" d="M40,26A16.966,16.966,0,0,1,24.133,2.938,16.993,16.993,0,1,0,47.867,24.062,16.908,16.908,0,0,1,40,26" fill="#d0d8da"/>
          <path id="Trazado_986430" data-name="Trazado 986430" d="M19,18A13,13,0,1,0,32,5,13,13,0,0,0,19,18" fill="#a2bdcd"/>
          <path id="Trazado_986431" data-name="Trazado 986431" d="M40,26A17,17,0,0,1,23,9c0-.13.015-.255.018-.384A12.989,12.989,0,1,0,42.36,25.829,16.84,16.84,0,0,1,40,26" fill="#769fb6"/>
          <path id="Trazado_986432" data-name="Trazado 986432" d="M57,1H49V5h2.9L36.116,18.288l-5.7-5.7A2,2,0,0,0,28,12.268l-8.973,5.176C19.02,17.63,19,17.812,19,18a12.984,12.984,0,0,0,.557,3.757L28.67,16.5l5.916,5.915a2,2,0,0,0,2.7.116L55,7.615V11h4V3a2,2,0,0,0-2-2" fill="#fe9d52"/>
          <path id="Trazado_986433" data-name="Trazado 986433" d="M57,1h-.193a4.917,4.917,0,0,1-1.762,3.885L36.7,20.406a1,1,0,0,1-1.353-.057l-5.8-5.805a1,1,0,0,0-1.209-.158l-9.212,5.349a12.882,12.882,0,0,0,.434,2.022L28.67,16.5l5.916,5.915a2,2,0,0,0,2.7.116L55,7.615V11h4V3a2,2,0,0,0-2-2" fill="#fee1ca"/>
          <rect id="Rectángulo_408280" data-name="Rectángulo 408280" width="4" height="4" transform="translate(55 19)" fill="#e9f1f2"/>
          <path id="Trazado_986434" data-name="Trazado 986434" d="M13,7A6,6,0,1,1,7,1a6,6,0,0,1,6,6" fill="#fe9d52"/>
          <path id="Trazado_986435" data-name="Trazado 986435" d="M10,7A3,3,0,1,1,7,4a3,3,0,0,1,3,3" fill="#feebdb"/>
          <path id="Trazado_986436" data-name="Trazado 986436" d="M13,7H7V1a6,6,0,0,1,6,6" fill="#769fb6"/>
          <path id="Trazado_986437" data-name="Trazado 986437" d="M7,4V7h3A3,3,0,0,0,7,4" fill="#608ea9"/>
          <rect id="Rectángulo_408281" data-name="Rectángulo 408281" width="6" height="26" transform="translate(53 33)" fill="#fee1ca"/>
          <rect id="Rectángulo_408282" data-name="Rectángulo 408282" width="6" height="18" transform="translate(43 41)" fill="#fee1ca"/>
          <rect id="Rectángulo_408283" data-name="Rectángulo 408283" width="6" height="14" transform="translate(33 45)" fill="#fee1ca"/>
          <rect id="Rectángulo_408284" data-name="Rectángulo 408284" width="6" height="10" transform="translate(23 49)" fill="#fee1ca"/>
          <rect id="Rectángulo_408285" data-name="Rectángulo 408285" width="3" height="26" transform="translate(53 33)" fill="#fe9d52"/>
          <rect id="Rectángulo_408286" data-name="Rectángulo 408286" width="3" height="18" transform="translate(43 41)" fill="#fe9d52"/>
          <rect id="Rectángulo_408287" data-name="Rectángulo 408287" width="3" height="14" transform="translate(33 45)" fill="#fe9d52"/>
          <rect id="Rectángulo_408288" data-name="Rectángulo 408288" width="3" height="10" transform="translate(23 49)" fill="#fe9d52"/>
          <rect id="Rectángulo_408289" data-name="Rectángulo 408289" width="6" height="14" transform="translate(53 45)" fill="#769fb6"/>
          <rect id="Rectángulo_408290" data-name="Rectángulo 408290" width="6" height="11" transform="translate(43 48)" fill="#769fb6"/>
          <rect id="Rectángulo_408291" data-name="Rectángulo 408291" width="6" height="6" transform="translate(33 53)" fill="#769fb6"/>
          <rect id="Rectángulo_408292" data-name="Rectángulo 408292" width="6" height="4" transform="translate(23 55)" fill="#769fb6"/>
          <rect id="Rectángulo_408293" data-name="Rectángulo 408293" width="3" height="14" transform="translate(53 45)" fill="#608ea9"/>
          <rect id="Rectángulo_408294" data-name="Rectángulo 408294" width="3" height="11" transform="translate(43 48)" fill="#608ea9"/>
          <rect id="Rectángulo_408295" data-name="Rectángulo 408295" width="3" height="6" transform="translate(33 53)" fill="#608ea9"/>
          <rect id="Rectángulo_408296" data-name="Rectángulo 408296" width="3" height="4" transform="translate(23 55)" fill="#608ea9"/>
          <rect id="Rectángulo_408297" data-name="Rectángulo 408297" width="2" height="4" transform="translate(55 19)" fill="#d0d8da"/>
          <path id="Trazado_986438" data-name="Trazado 986438" d="M57,0H49a1,1,0,0,0-1,1V5a1,1,0,0,0,1,1h.155l-2.27,1.912A17.852,17.852,0,0,0,32,0a18.145,18.145,0,0,0-5.493.847,1,1,0,0,0,.6,1.906A16.17,16.17,0,0,1,32,2,15.874,15.874,0,0,1,45.345,9.209L43.814,10.5A14,14,0,1,0,32,32a13.748,13.748,0,0,0,3.784-.528,1,1,0,1,0-.549-1.923A11.754,11.754,0,0,1,32,30a12.01,12.01,0,0,1-11.224-7.792l7.73-4.459,5.372,5.372a2.981,2.981,0,0,0,4.054.174l6.056-5.1a12,12,0,0,1-5.39,9.83,1,1,0,0,0,.553,1.834.987.987,0,0,0,.55-.166A14,14,0,0,0,46,18a12.445,12.445,0,0,0-.091-1.422l1.8-1.52A15.993,15.993,0,1,1,23.7,4.326a1,1,0,1,0-1.038-1.71A17.863,17.863,0,0,0,14,18c0,.391.034.773.058,1.157L1.5,26.4a1,1,0,0,0-.367,1.366l2,3.464A1,1,0,0,0,4.5,31.6L15.53,25.235a17.95,17.95,0,0,0,1.814,3.178l-4.575,4.576a3,3,0,0,0-3.4.576L.879,42.051a3,3,0,0,0,0,4.242l2.828,2.828a3,3,0,0,0,4.242,0l8.486-8.485a3,3,0,0,0,.577-3.405l4.575-4.575A17.972,17.972,0,0,0,50,18a18.2,18.2,0,0,0-.561-4.4l3.205-2.7a1,1,0,0,0-1.288-1.53L36.643,21.765a.991.991,0,0,1-1.35-.058l-5.916-5.915a1,1,0,0,0-1.206-.159l-7.957,4.59A12.108,12.108,0,0,1,20,18.037l8.5-4.9a1,1,0,0,1,1.206.159l5.7,5.7a1,1,0,0,0,1.351.058L52.539,5.765A1,1,0,0,0,51.9,4H50V2h7a1,1,0,0,1,1,1v7H56V7.615a1,1,0,0,0-2,0V11a1,1,0,0,0,1,1h4a1,1,0,0,0,1-1V3a3,3,0,0,0-3-3M4.365,29.367l-1-1.732,10.953-6.32a17.929,17.929,0,0,0,.49,2.027Zm10.656,9.855L6.535,47.707a1,1,0,0,1-1.414,0L2.293,44.879a1,1,0,0,1,0-1.414l8.485-8.486a1,1,0,0,1,1.414,0l2.829,2.829a1,1,0,0,1,0,1.414m.707-3.535-1.415-1.415L18.6,29.981A17.992,17.992,0,0,0,20.019,31.4ZM36.174,16.932l-5.053-5.053A3,3,0,0,0,27.5,11.4l-7.258,4.187a11.975,11.975,0,0,1,22.005-3.772Z" fill="#464a51"/>
          <path id="Trazado_986439" data-name="Trazado 986439" d="M49,40H43a1,1,0,0,0-1,1V59a1,1,0,0,0,1,1h6a1,1,0,0,0,1-1V41a1,1,0,0,0-1-1m-1,7H44V42h4Zm0,11H44V49h4Z" fill="#464a51"/>
          <path id="Trazado_986440" data-name="Trazado 986440" d="M39,44H33a1,1,0,0,0-1,1V59a1,1,0,0,0,1,1h6a1,1,0,0,0,1-1V45a1,1,0,0,0-1-1m-1,8H34V46h4Zm0,6H34V54h4Z" fill="#464a51"/>
          <path id="Trazado_986441" data-name="Trazado 986441" d="M29,48H23a1,1,0,0,0-1,1V59a1,1,0,0,0,1,1h6a1,1,0,0,0,1-1V49a1,1,0,0,0-1-1m-1,6H24V50h4Zm0,4H24V56h4Z" fill="#464a51"/>
          <path id="Trazado_986442" data-name="Trazado 986442" d="M59,32H53a1,1,0,0,0-1,1V45a1,1,0,0,0,1,1h5V58H54V49a1,1,0,0,0-2,0V59a1,1,0,0,0,1,1h6a1,1,0,0,0,1-1V33a1,1,0,0,0-1-1M58,44H54V34h4Z" fill="#464a51"/>
          <path id="Trazado_986443" data-name="Trazado 986443" d="M17,52H3a1,1,0,0,0,0,2H17a1,1,0,0,0,0-2" fill="#464a51"/>
          <path id="Trazado_986444" data-name="Trazado 986444" d="M17,56H7a1,1,0,0,0,0,2H17a1,1,0,0,0,0-2" fill="#464a51"/>
          <path id="Trazado_986445" data-name="Trazado 986445" d="M58,30a1,1,0,0,0,0-2H54a1,1,0,0,0,0,2Z" fill="#464a51"/>
          <path id="Trazado_986446" data-name="Trazado 986446" d="M48,38a1,1,0,0,0,0-2H44a1,1,0,0,0,0,2Z" fill="#464a51"/>
          <path id="Trazado_986447" data-name="Trazado 986447" d="M38,42a1,1,0,0,0,0-2H34a1,1,0,0,0,0,2Z" fill="#464a51"/>
          <path id="Trazado_986448" data-name="Trazado 986448" d="M28,46a1,1,0,0,0,0-2H24a1,1,0,0,0,0,2Z" fill="#464a51"/>
          <path id="Trazado_986449" data-name="Trazado 986449" d="M59,18H55a1,1,0,0,0-1,1v4a1,1,0,0,0,1,1h4a1,1,0,0,0,1-1V19a1,1,0,0,0-1-1m-1,4H56V20h2Z" fill="#464a51"/>
          <path id="Trazado_986450" data-name="Trazado 986450" d="M7,14A7,7,0,1,0,0,7a7.008,7.008,0,0,0,7,7m4.9-8H8V2.1A5.016,5.016,0,0,1,11.9,6M6,2.1V7A1,1,0,0,0,7,8h4.9A5,5,0,1,1,6,2.1" fill="#464a51"/>
        </g>
      </g>
    </g>
  </g>
</svg>
