<svg xmlns="http://www.w3.org/2000/svg" xmlns:xlink="http://www.w3.org/1999/xlink" width="113" height="113" viewBox="0 0 113 113">
  <defs>
    <filter id="Trazado_982547" x="0" y="0" width="113" height="113" filterUnits="userSpaceOnUse">
      <feOffset dy="3" input="SourceAlpha"/>
      <feGaussianBlur stdDeviation="3" result="blur"/>
      <feFlood flood-opacity="0.161"/>
      <feComposite operator="in" in2="blur"/>
      <feComposite in="SourceGraphic"/>
    </filter>
    <clipPath id="clip-path">
      <rect id="Rectángulo_408304" data-name="Rectángulo 408304" width="60" height="60" fill="none"/>
    </clipPath>
  </defs>
  <g id="Grupo_1148582" data-name="Grupo 1148582" transform="translate(-744 -3704.178)">
    <g id="Grupo_1147087" data-name="Grupo 1147087" transform="translate(753 3710.178)">
      <g transform="matrix(1, 0, 0, 1, -9, -6)" filter="url(#Trazado_982547)">
        <g id="Trazado_982547-2" data-name="Trazado 982547" transform="translate(9 6)" fill="#fdeffe">
          <path d="M 47.5 93.5 C 41.28937149047852 93.5 35.26533508300781 92.28397369384766 29.59518623352051 89.88570404052734 C 24.11771965026855 87.56893157958984 19.19813346862793 84.25196075439453 14.97309303283691 80.02691650390625 C 10.74804019927979 75.80186462402344 7.431066513061523 70.88229370117188 5.114293098449707 65.40481567382812 C 2.716026782989502 59.73468017578125 1.5 53.71062850952148 1.5 47.5 C 1.5 41.28937149047852 2.716026782989502 35.26533508300781 5.114293098449707 29.59518623352051 C 7.431066513061523 24.11771965026855 10.74804019927979 19.19813346862793 14.97309303283691 14.97309303283691 C 19.19813346862793 10.74804019927979 24.11771965026855 7.431066513061523 29.59518623352051 5.114293098449707 C 35.26533508300781 2.716026782989502 41.28937149047852 1.5 47.5 1.5 C 53.71062850952148 1.5 59.73468017578125 2.716026782989502 65.40481567382812 5.114293098449707 C 70.88229370117188 7.431066513061523 75.80186462402344 10.74804019927979 80.02691650390625 14.97309303283691 C 84.25196075439453 19.19813346862793 87.56893157958984 24.11771965026855 89.88570404052734 29.59518623352051 C 92.28397369384766 35.26533508300781 93.5 41.28937149047852 93.5 47.5 C 93.5 53.71062850952148 92.28397369384766 59.73468017578125 89.88570404052734 65.40481567382812 C 87.56893157958984 70.88229370117188 84.25196075439453 75.80186462402344 80.02691650390625 80.02691650390625 C 75.80186462402344 84.25196075439453 70.88229370117188 87.56893157958984 65.40481567382812 89.88570404052734 C 59.73468017578125 92.28397369384766 53.71062850952148 93.5 47.5 93.5 Z" stroke="none"/>
          <path d="M 47.5 3 C 41.49121475219727 3 35.66376876831055 4.176155090332031 30.17950439453125 6.495796203613281 C 24.88084411621094 8.736953735351562 20.12152099609375 11.94598388671875 16.03375244140625 16.03375244140625 C 11.94598388671875 20.12152099609375 8.736953735351562 24.88084411621094 6.495796203613281 30.17950439453125 C 4.176155090332031 35.66376876831055 3 41.49121475219727 3 47.5 C 3 53.50878524780273 4.176155090332031 59.33623123168945 6.495796203613281 64.82049560546875 C 8.736953735351562 70.11915588378906 11.94598388671875 74.87847900390625 16.03375244140625 78.96624755859375 C 20.12152099609375 83.05401611328125 24.88084411621094 86.26304626464844 30.17950439453125 88.50419616699219 C 35.66376876831055 90.82384490966797 41.49121475219727 92 47.5 92 C 53.50878524780273 92 59.33623123168945 90.82384490966797 64.82049560546875 88.50419616699219 C 70.11915588378906 86.26304626464844 74.87847900390625 83.05401611328125 78.96624755859375 78.96624755859375 C 83.05401611328125 74.87847900390625 86.26304626464844 70.11915588378906 88.50419616699219 64.82049560546875 C 90.82384490966797 59.33623123168945 92 53.50878524780273 92 47.5 C 92 41.49121475219727 90.82384490966797 35.66376876831055 88.50419616699219 30.17950439453125 C 86.26304626464844 24.88084411621094 83.05401611328125 20.12152099609375 78.96624755859375 16.03375244140625 C 74.87847900390625 11.94598388671875 70.11915588378906 8.736953735351562 64.82049560546875 6.495796203613281 C 59.33623123168945 4.176155090332031 53.50878524780273 3 47.5 3 M 47.5 0 C 73.7335205078125 0 95 21.2664794921875 95 47.5 C 95 73.7335205078125 73.7335205078125 95 47.5 95 C 21.2664794921875 95 0 73.7335205078125 0 47.5 C 0 21.2664794921875 21.2664794921875 0 47.5 0 Z" stroke="none" fill="#ee70f7"/>
        </g>
      </g>
      <g id="Grupo_1148908" data-name="Grupo 1148908" transform="translate(17 17.565)">
        <rect id="Rectángulo_408299" data-name="Rectángulo 408299" width="58" height="4" transform="translate(1 55)" fill="#d0d8da"/>
        <g id="Grupo_1148907" data-name="Grupo 1148907">
          <g id="Grupo_1148906" data-name="Grupo 1148906" clip-path="url(#clip-path)">
            <path id="Trazado_986451" data-name="Trazado 986451" d="M15,36a2,2,0,1,1-2-2,2,2,0,0,1,2,2" fill="#f47c94"/>
            <path id="Trazado_986452" data-name="Trazado 986452" d="M24,45a2,2,0,1,1-2-2,2,2,0,0,1,2,2" fill="#f47c94"/>
            <path id="Trazado_986453" data-name="Trazado 986453" d="M32,38a2,2,0,1,1-2-2,2,2,0,0,1,2,2" fill="#f47c94"/>
            <path id="Trazado_986454" data-name="Trazado 986454" d="M41,48a2,2,0,1,1-2-2,2,2,0,0,1,2,2" fill="#f47c94"/>
            <path id="Trazado_986455" data-name="Trazado 986455" d="M46,36a2,2,0,1,1-2-2,2,2,0,0,1,2,2" fill="#f47c94"/>
            <path id="Trazado_986456" data-name="Trazado 986456" d="M59,32a2,2,0,1,1-2-2,2,2,0,0,1,2,2" fill="#f47c94"/>
            <path id="Trazado_986457" data-name="Trazado 986457" d="M26,30a2,2,0,1,1-2-2,2,2,0,0,1,2,2" fill="#a2bdcd"/>
            <path id="Trazado_986458" data-name="Trazado 986458" d="M39,29a2,2,0,1,1-2-2,2,2,0,0,1,2,2" fill="#a2bdcd"/>
            <path id="Trazado_986459" data-name="Trazado 986459" d="M45,20a2,2,0,1,1-2-2,2,2,0,0,1,2,2" fill="#a2bdcd"/>
            <path id="Trazado_986460" data-name="Trazado 986460" d="M53,25a2,2,0,1,1-2-2,2,2,0,0,1,2,2" fill="#a2bdcd"/>
            <path id="Trazado_986461" data-name="Trazado 986461" d="M59,17a2,2,0,1,1-2-2,2,2,0,0,1,2,2" fill="#a2bdcd"/>
            <path id="Trazado_986462" data-name="Trazado 986462" d="M15,48a2,2,0,1,1-2-2,2,2,0,0,1,2,2" fill="#a2bdcd"/>
            <rect id="Rectángulo_408300" data-name="Rectángulo 408300" width="4" height="4" transform="translate(9 1)" fill="#f47c94"/>
            <rect id="Rectángulo_408301" data-name="Rectángulo 408301" width="4" height="4" transform="translate(9 9)" fill="#a2bdcd"/>
            <path id="Trazado_986463" data-name="Trazado 986463" d="M7,57a2,2,0,0,1-2-2H1v4H59V57Z" fill="#b8bebf"/>
            <path id="Trazado_986464" data-name="Trazado 986464" d="M14,48a1,1,0,1,1-1-1,1,1,0,0,1,1,1" fill="#769fb6"/>
            <path id="Trazado_986465" data-name="Trazado 986465" d="M25,30a1,1,0,1,1-1-1,1,1,0,0,1,1,1" fill="#769fb6"/>
            <path id="Trazado_986466" data-name="Trazado 986466" d="M14,36a1,1,0,1,1-1-1,1,1,0,0,1,1,1" fill="#f15574"/>
            <path id="Trazado_986467" data-name="Trazado 986467" d="M23,45a1,1,0,1,1-1-1,1,1,0,0,1,1,1" fill="#f15574"/>
            <path id="Trazado_986468" data-name="Trazado 986468" d="M31,38a1,1,0,1,1-1-1,1,1,0,0,1,1,1" fill="#f15574"/>
            <path id="Trazado_986469" data-name="Trazado 986469" d="M40,48a1,1,0,1,1-1-1,1,1,0,0,1,1,1" fill="#f15574"/>
            <path id="Trazado_986470" data-name="Trazado 986470" d="M45,36a1,1,0,1,1-1-1,1,1,0,0,1,1,1" fill="#f15574"/>
            <path id="Trazado_986471" data-name="Trazado 986471" d="M58,32a1,1,0,1,1-1-1,1,1,0,0,1,1,1" fill="#f15574"/>
            <path id="Trazado_986472" data-name="Trazado 986472" d="M38,29a1,1,0,1,1-1-1,1,1,0,0,1,1,1" fill="#769fb6"/>
            <path id="Trazado_986473" data-name="Trazado 986473" d="M44,20a1,1,0,1,1-1-1,1,1,0,0,1,1,1" fill="#769fb6"/>
            <path id="Trazado_986474" data-name="Trazado 986474" d="M52,25a1,1,0,1,1-1-1,1,1,0,0,1,1,1" fill="#769fb6"/>
            <path id="Trazado_986475" data-name="Trazado 986475" d="M58,17a1,1,0,1,1-1-1,1,1,0,0,1,1,1" fill="#769fb6"/>
            <rect id="Rectángulo_408302" data-name="Rectángulo 408302" width="2" height="4" transform="translate(9 1)" fill="#f15574"/>
            <rect id="Rectángulo_408303" data-name="Rectángulo 408303" width="2" height="4" transform="translate(9 9)" fill="#769fb6"/>
            <path id="Trazado_986476" data-name="Trazado 986476" d="M40,58H2V56H21a1,1,0,0,0,0-2H2V51H4a1,1,0,0,0,0-2H2V46H4a1,1,0,0,0,0-2H2V41H4a1,1,0,0,0,0-2H2V36H4a1,1,0,0,0,0-2H2V31H4a1,1,0,0,0,0-2H2V26H4a1,1,0,0,0,0-2H2V21H4a1,1,0,0,0,0-2H2V16H4a1,1,0,0,0,0-2H2V11H4A1,1,0,0,0,4,9H2V6H4A1,1,0,0,0,4,4H2V1A1,1,0,0,0,0,1V59a1,1,0,0,0,1,1H40a1,1,0,0,0,0-2" fill="#464a51"/>
            <path id="Trazado_986477" data-name="Trazado 986477" d="M59,54H25a1,1,0,0,0,0,2H58v2H44a1,1,0,0,0,0,2H59a1,1,0,0,0,1-1V55a1,1,0,0,0-1-1" fill="#464a51"/>
            <path id="Trazado_986478" data-name="Trazado 986478" d="M57,29a3,3,0,0,0-2.987,2.874L46.4,34.214A2.991,2.991,0,0,0,44,33a1,1,0,0,0,0,2,1,1,0,1,1-1,1,1,1,0,0,0-2,0,2.98,2.98,0,0,0,.992,2.213l-2.829,6.8c-.055,0-.107-.016-.163-.016a2.975,2.975,0,0,0-1.146.23l-5.229-5.807A2.97,2.97,0,0,0,33,38a3,3,0,0,0-6,0,2.959,2.959,0,0,0,.217,1.1L23.46,42.4a2.895,2.895,0,0,0-2.745-.094l-1.9-1.9,4.568-7.466a2.981,2.981,0,0,0,3.5-2.151l7.377-.573a2.994,2.994,0,1,0,5.133-3l2.878-4.31a2.872,2.872,0,0,0,2.586-.562l3.218,2.014A2.953,2.953,0,0,0,48,25a3,3,0,1,0,5.495-1.661l2.617-3.489A2.937,2.937,0,0,0,57,20a3,3,0,1,0-2.5-1.339l-2.616,3.488a2.867,2.867,0,0,0-2.745.513l-3.218-2.015A2.937,2.937,0,0,0,46,20a3,3,0,0,0-6,0,2.972,2.972,0,0,0,.607,1.79L37.729,26.1a2.942,2.942,0,0,0-3.612,2.116l-7.377.573A3,3,0,0,0,24,27a1,1,0,0,0,0,2,1,1,0,1,1-1,1,1,1,0,0,0-2,0,2.972,2.972,0,0,0,.683,1.882L17.36,38.946,15.7,37.285A2.965,2.965,0,0,0,16,36a3,3,0,1,0-5.453,1.718l-3.361,4.7a1,1,0,1,0,1.627,1.162l3.368-4.709a2.81,2.81,0,0,0,2.1-.173l2,2-2.67,4.364A3,3,0,0,0,10,48c0,.04.01.078.012.118l-2.383.954A1,1,0,0,0,8,51a.988.988,0,0,0,.371-.073l2.387-.955a2.985,2.985,0,0,0,4.559-3.855l2.425-3.962L19.3,43.715A2.951,2.951,0,0,0,19,45a3,3,0,0,0,6,0,2.959,2.959,0,0,0-.217-1.1L28.54,40.6a2.927,2.927,0,0,0,2.606.165l5.229,5.807A2.97,2.97,0,0,0,36,48a3,3,0,1,0,5.008-2.213l2.829-6.8c.055,0,.107.016.163.016a3,3,0,0,0,2.987-2.874l7.616-2.34A3,3,0,1,0,57,29m0-13a1,1,0,1,1-1,1,1,1,0,0,1,1-1m-6,8a1,1,0,1,1-1,1,1,1,0,0,1,1-1m-8-5a1,1,0,1,1-1,1,1,1,0,0,1,1-1m-6,9a1,1,0,1,1-1,1,1,1,0,0,1,1-1M12,36a1,1,0,1,1,1,1,1,1,0,0,1-1-1m1,13a1,1,0,1,1,1-1,1,1,0,0,1-1,1m9-3a1,1,0,1,1,1-1,1,1,0,0,1-1,1m7-8a1,1,0,1,1,1,1,1,1,0,0,1-1-1M39,49a1,1,0,1,1,1-1,1,1,0,0,1-1,1M57,33a1,1,0,1,1,1-1,1,1,0,0,1-1,1" fill="#464a51"/>
            <path id="Trazado_986479" data-name="Trazado 986479" d="M20,2H34a1,1,0,0,0,0-2H20a1,1,0,0,0,0,2" fill="#464a51"/>
            <path id="Trazado_986480" data-name="Trazado 986480" d="M17,6h5a1,1,0,0,0,0-2H17a1,1,0,0,0,0,2" fill="#464a51"/>
            <path id="Trazado_986481" data-name="Trazado 986481" d="M27,9a1,1,0,0,0-1-1H19a1,1,0,0,0,0,2h7a1,1,0,0,0,1-1" fill="#464a51"/>
            <path id="Trazado_986482" data-name="Trazado 986482" d="M34,4H26a1,1,0,0,0,0,2h8a1,1,0,0,0,0-2" fill="#464a51"/>
            <path id="Trazado_986483" data-name="Trazado 986483" d="M35,9a1,1,0,0,0-1-1H30a1,1,0,0,0,0,2h4a1,1,0,0,0,1-1" fill="#464a51"/>
            <path id="Trazado_986484" data-name="Trazado 986484" d="M17,14h5a1,1,0,0,0,0-2H17a1,1,0,0,0,0,2" fill="#464a51"/>
            <path id="Trazado_986485" data-name="Trazado 986485" d="M9,6h4a1,1,0,0,0,1-1V1a1,1,0,0,0-1-1H9A1,1,0,0,0,8,1V5A1,1,0,0,0,9,6m1-4h2V4H10Z" fill="#464a51"/>
            <path id="Trazado_986486" data-name="Trazado 986486" d="M9,12a1,1,0,0,0,0,2h4a1,1,0,0,0,1-1V9a1,1,0,0,0-1-1H9a1,1,0,0,0,0,2h3v2Z" fill="#464a51"/>
            <path id="Trazado_986487" data-name="Trazado 986487" d="M26,14h5a1,1,0,0,0,0-2H26a1,1,0,0,0,0,2" fill="#464a51"/>
          </g>
        </g>
      </g>
    </g>
  </g>
</svg>
