<svg xmlns="http://www.w3.org/2000/svg" xmlns:xlink="http://www.w3.org/1999/xlink" width="113" height="113" viewBox="0 0 113 113">
  <defs>
    <filter id="Trazado_982547" x="0" y="0" width="113" height="113" filterUnits="userSpaceOnUse">
      <feOffset dy="3" input="SourceAlpha"/>
      <feGaussianBlur stdDeviation="3" result="blur"/>
      <feFlood flood-opacity="0.161"/>
      <feComposite operator="in" in2="blur"/>
      <feComposite in="SourceGraphic"/>
    </filter>
    <clipPath id="clip-path">
      <rect id="Rectángulo_408319" data-name="Rectángulo 408319" width="60" height="60" fill="none"/>
    </clipPath>
  </defs>
  <g id="Grupo_1148591" data-name="Grupo 1148591" transform="translate(-1164 -3704.178)">
    <g id="Grupo_1147088" data-name="Grupo 1147088" transform="translate(1173 3710.178)">
      <g transform="matrix(1, 0, 0, 1, -9, -6)" filter="url(#Trazado_982547)">
        <g id="Trazado_982547-2" data-name="Trazado 982547" transform="translate(9 6)" fill="#fdeffe">
          <path d="M 47.5 93.5 C 41.28937149047852 93.5 35.26533508300781 92.28397369384766 29.59518623352051 89.88570404052734 C 24.11771965026855 87.56893157958984 19.19813346862793 84.25196075439453 14.97309303283691 80.02691650390625 C 10.74804019927979 75.80186462402344 7.431066513061523 70.88229370117188 5.114293098449707 65.40481567382812 C 2.716026782989502 59.73468017578125 1.5 53.71062850952148 1.5 47.5 C 1.5 41.28937149047852 2.716026782989502 35.26533508300781 5.114293098449707 29.59518623352051 C 7.431066513061523 24.11771965026855 10.74804019927979 19.19813346862793 14.97309303283691 14.97309303283691 C 19.19813346862793 10.74804019927979 24.11771965026855 7.431066513061523 29.59518623352051 5.114293098449707 C 35.26533508300781 2.716026782989502 41.28937149047852 1.5 47.5 1.5 C 53.71062850952148 1.5 59.73468017578125 2.716026782989502 65.40481567382812 5.114293098449707 C 70.88229370117188 7.431066513061523 75.80186462402344 10.74804019927979 80.02691650390625 14.97309303283691 C 84.25196075439453 19.19813346862793 87.56893157958984 24.11771965026855 89.88570404052734 29.59518623352051 C 92.28397369384766 35.26533508300781 93.5 41.28937149047852 93.5 47.5 C 93.5 53.71062850952148 92.28397369384766 59.73468017578125 89.88570404052734 65.40481567382812 C 87.56893157958984 70.88229370117188 84.25196075439453 75.80186462402344 80.02691650390625 80.02691650390625 C 75.80186462402344 84.25196075439453 70.88229370117188 87.56893157958984 65.40481567382812 89.88570404052734 C 59.73468017578125 92.28397369384766 53.71062850952148 93.5 47.5 93.5 Z" stroke="none"/>
          <path d="M 47.5 3 C 41.49121475219727 3 35.66376876831055 4.176155090332031 30.17950439453125 6.495796203613281 C 24.88084411621094 8.736953735351562 20.12152099609375 11.94598388671875 16.03375244140625 16.03375244140625 C 11.94598388671875 20.12152099609375 8.736953735351562 24.88084411621094 6.495796203613281 30.17950439453125 C 4.176155090332031 35.66376876831055 3 41.49121475219727 3 47.5 C 3 53.50878524780273 4.176155090332031 59.33623123168945 6.495796203613281 64.82049560546875 C 8.736953735351562 70.11915588378906 11.94598388671875 74.87847900390625 16.03375244140625 78.96624755859375 C 20.12152099609375 83.05401611328125 24.88084411621094 86.26304626464844 30.17950439453125 88.50419616699219 C 35.66376876831055 90.82384490966797 41.49121475219727 92 47.5 92 C 53.50878524780273 92 59.33623123168945 90.82384490966797 64.82049560546875 88.50419616699219 C 70.11915588378906 86.26304626464844 74.87847900390625 83.05401611328125 78.96624755859375 78.96624755859375 C 83.05401611328125 74.87847900390625 86.26304626464844 70.11915588378906 88.50419616699219 64.82049560546875 C 90.82384490966797 59.33623123168945 92 53.50878524780273 92 47.5 C 92 41.49121475219727 90.82384490966797 35.66376876831055 88.50419616699219 30.17950439453125 C 86.26304626464844 24.88084411621094 83.05401611328125 20.12152099609375 78.96624755859375 16.03375244140625 C 74.87847900390625 11.94598388671875 70.11915588378906 8.736953735351562 64.82049560546875 6.495796203613281 C 59.33623123168945 4.176155090332031 53.50878524780273 3 47.5 3 M 47.5 0 C 73.7335205078125 0 95 21.2664794921875 95 47.5 C 95 73.7335205078125 73.7335205078125 95 47.5 95 C 21.2664794921875 95 0 73.7335205078125 0 47.5 C 0 21.2664794921875 21.2664794921875 0 47.5 0 Z" stroke="none" fill="#ee70f7"/>
        </g>
      </g>
      <g id="Grupo_1148910" data-name="Grupo 1148910" transform="translate(17 17.565)">
        <g id="Grupo_1148909" data-name="Grupo 1148909" clip-path="url(#clip-path)">
          <path id="Trazado_986488" data-name="Trazado 986488" d="M27,14A13,13,0,1,0,6,24.233V27H22V24.233A12.968,12.968,0,0,0,27,14" fill="#ffc857"/>
          <path id="Trazado_986489" data-name="Trazado 986489" d="M11,10.5a13.454,13.454,0,0,1,3.872-9.456C14.583,1.025,14.294,1,14,1A12.991,12.991,0,0,0,6,24.233V27H22V24.233c.161-.126.306-.27.46-.4A13.492,13.492,0,0,1,11,10.5" fill="#ffb41f"/>
          <path id="Trazado_986490" data-name="Trazado 986490" d="M22,31H6a2,2,0,0,1,0-4H22a2,2,0,0,1,0,4" fill="#e9f1f2"/>
          <path id="Trazado_986491" data-name="Trazado 986491" d="M6,27a2,2,0,0,0,0,4H22a2,2,0,0,0,2-2H8a2,2,0,0,1-2-2" fill="#d0d8da"/>
          <path id="Trazado_986492" data-name="Trazado 986492" d="M22,35H6a2,2,0,0,1,0-4H22a2,2,0,0,1,0,4" fill="#e9f1f2"/>
          <path id="Trazado_986493" data-name="Trazado 986493" d="M6,31a2,2,0,0,0,0,4H22a2,2,0,0,0,2-2H8a2,2,0,0,1-2-2" fill="#d0d8da"/>
          <path id="Trazado_986494" data-name="Trazado 986494" d="M14,43h0a7,7,0,0,1-7-7V35H21v1a7,7,0,0,1-7,7" fill="#d0d8da"/>
          <path id="Trazado_986495" data-name="Trazado 986495" d="M11,37h9.92A7.014,7.014,0,0,0,21,36V35H7v1a6.982,6.982,0,0,0,8.561,6.819A6,6,0,0,1,11,37" fill="#b8bebf"/>
          <rect id="Rectángulo_408305" data-name="Rectángulo 408305" width="8" height="5" transform="translate(3 54)" fill="#f47c94"/>
          <rect id="Rectángulo_408306" data-name="Rectángulo 408306" width="8" height="9" transform="translate(15 50)" fill="#f47c94"/>
          <rect id="Rectángulo_408307" data-name="Rectángulo 408307" width="8" height="13" transform="translate(27 46)" fill="#f47c94"/>
          <rect id="Rectángulo_408308" data-name="Rectángulo 408308" width="8" height="19" transform="translate(39 40)" fill="#f47c94"/>
          <rect id="Rectángulo_408309" data-name="Rectángulo 408309" width="8" height="26" transform="translate(51 33)" fill="#f47c94"/>
          <rect id="Rectángulo_408310" data-name="Rectángulo 408310" width="11" height="4" transform="translate(46 1)" fill="#a2bdcd"/>
          <rect id="Rectángulo_408311" data-name="Rectángulo 408311" width="7" height="4" transform="translate(35 7)" fill="#a2bdcd"/>
          <rect id="Rectángulo_408312" data-name="Rectángulo 408312" width="4" height="26" transform="translate(51 33)" fill="#f15574"/>
          <rect id="Rectángulo_408313" data-name="Rectángulo 408313" width="4" height="19" transform="translate(39 40)" fill="#f15574"/>
          <rect id="Rectángulo_408314" data-name="Rectángulo 408314" width="4" height="13" transform="translate(27 46)" fill="#f15574"/>
          <rect id="Rectángulo_408315" data-name="Rectángulo 408315" width="4" height="9" transform="translate(15 50)" fill="#f15574"/>
          <rect id="Rectángulo_408316" data-name="Rectángulo 408316" width="5" height="5" transform="translate(3 54)" fill="#f15574"/>
          <rect id="Rectángulo_408317" data-name="Rectángulo 408317" width="3" height="4" transform="translate(35 7)" fill="#769fb6"/>
          <rect id="Rectángulo_408318" data-name="Rectángulo 408318" width="6" height="4" transform="translate(46 1)" fill="#769fb6"/>
          <path id="Trazado_986496" data-name="Trazado 986496" d="M5,24.71v1.474A2.972,2.972,0,0,0,3.78,31,2.987,2.987,0,0,0,6,36a7.957,7.957,0,0,0,1.875,5.136l-2.516,2.1A1,1,0,0,0,5,44v6a1,1,0,0,0,2,0V44.468L9.358,42.5a7.976,7.976,0,0,0,8.449.535,1,1,0,0,0-.953-1.759,5.977,5.977,0,0,1-5.891-.113l1.678-1.4a1,1,0,1,0-1.282-1.536L9.41,39.856A5.97,5.97,0,0,1,8,36H9a1,1,0,0,0,0-2H6a1,1,0,0,1,0-2H22a1,1,0,0,1,0,2H13a1,1,0,0,0,0,2h7a6,6,0,0,1-.721,2.854,1,1,0,0,0,.4,1.355.981.981,0,0,0,.475.121,1,1,0,0,0,.88-.523A8.009,8.009,0,0,0,22,36a2.987,2.987,0,0,0,2.22-5A2.972,2.972,0,0,0,23,26.184V24.71a13.871,13.871,0,0,0,4.56-14.13l.773-.58H31a1,1,0,0,0,0-2H28a1,1,0,0,0-.6.2l-.5.372A13.981,13.981,0,0,0,25.24,5.689L27.351,4H42a1,1,0,0,0,0-2H27a1,1,0,0,0-.625.219L23.947,4.162A13.952,13.952,0,0,0,5.75,2.7,1,1,0,0,0,6.932,4.319a11.945,11.945,0,0,1,15.441,1.1l-1,.8a1,1,0,0,0,1.25,1.562l1.055-.844a11.957,11.957,0,0,1,1.555,2.887l-4.282,3.212A2.5,2.5,0,0,0,17,11.5a2.621,2.621,0,0,0-3,0,2.621,2.621,0,0,0-3,0,2.5,2.5,0,0,0-4,2,12.524,12.524,0,0,0,2.109,6.967A11.2,11.2,0,0,1,10.974,26H7V24.233a1,1,0,0,0-.384-.787,11.956,11.956,0,0,1-2.3-16.514A1,1,0,1,0,2.706,5.75,13.953,13.953,0,0,0,5,24.71M26,14a11.937,11.937,0,0,1-4.616,9.446,1,1,0,0,0-.384.787V26H17.026a11.2,11.2,0,0,1,1.865-5.533,12.542,12.542,0,0,0,1.919-4.825L25.8,11.9A12.041,12.041,0,0,1,26,14M10.773,19.357A10.527,10.527,0,0,1,9,13.5a.5.5,0,0,1,1,0,1,1,0,0,0,2,0,.5.5,0,0,1,1,0,1,1,0,0,0,2,0,.5.5,0,0,1,1,0,1,1,0,0,0,2,0,.5.5,0,0,1,1,0,10.527,10.527,0,0,1-1.773,5.857A13.186,13.186,0,0,0,15.019,26H12.981a13.2,13.2,0,0,0-2.208-6.643M22,28a1,1,0,0,1,0,2H6a1,1,0,0,1,0-2Z" fill="#464a51"/>
          <path id="Trazado_986497" data-name="Trazado 986497" d="M35,45H27a1,1,0,0,0-1,1v9a1,1,0,0,0,2,0V47h6V58H27a1,1,0,0,0,0,2h8a1,1,0,0,0,1-1V46a1,1,0,0,0-1-1" fill="#464a51"/>
          <path id="Trazado_986498" data-name="Trazado 986498" d="M47,39H39a1,1,0,0,0-1,1V59a1,1,0,0,0,1,1h8a1,1,0,0,0,1-1V40a1,1,0,0,0-1-1M46,58H40V41h6Z" fill="#464a51"/>
          <path id="Trazado_986499" data-name="Trazado 986499" d="M11,53H3a1,1,0,0,0-1,1v5a1,1,0,0,0,1,1h8a1,1,0,0,0,1-1V54a1,1,0,0,0-1-1m-1,5H4V55h6Z" fill="#464a51"/>
          <path id="Trazado_986500" data-name="Trazado 986500" d="M23,49H15a1,1,0,0,0-1,1v9a1,1,0,0,0,1,1h8a1,1,0,0,0,1-1V50a1,1,0,0,0-1-1m-1,9H16V51h6Z" fill="#464a51"/>
          <path id="Trazado_986501" data-name="Trazado 986501" d="M59,32H51a1,1,0,0,0-1,1V49a1,1,0,0,0,2,0V34h6V58H52V53a1,1,0,0,0-2,0v6a1,1,0,0,0,1,1h8a1,1,0,0,0,1-1V33a1,1,0,0,0-1-1" fill="#464a51"/>
          <path id="Trazado_986502" data-name="Trazado 986502" d="M33.857,41.515l5.876-9.794,14.584-9.115-.287,1.152a1,1,0,0,0,.727,1.213A1.029,1.029,0,0,0,55,25a1,1,0,0,0,.968-.757l1-4A1,1,0,0,0,56,19H52a1,1,0,0,0,0,2h1.112L38.469,30.152a1,1,0,0,0-.327.334L32.433,40H24a1,1,0,0,0,0,2h9a1,1,0,0,0,.857-.485" fill="#464a51"/>
          <path id="Trazado_986503" data-name="Trazado 986503" d="M46,6H57a1,1,0,0,0,1-1V1a1,1,0,0,0-1-1H46a1,1,0,0,0-1,1V5a1,1,0,0,0,1,1m1-4h9V4H47Z" fill="#464a51"/>
          <path id="Trazado_986504" data-name="Trazado 986504" d="M43,7a1,1,0,0,0-1-1H35a1,1,0,0,0-1,1v4a1,1,0,0,0,1,1h7a1,1,0,0,0,1-1Zm-2,3H36V8h5Z" fill="#464a51"/>
          <path id="Trazado_986505" data-name="Trazado 986505" d="M57,8H50a1,1,0,0,0,0,2h7a1,1,0,0,0,0-2" fill="#464a51"/>
          <path id="Trazado_986506" data-name="Trazado 986506" d="M46,14H57a1,1,0,0,0,0-2H46a1,1,0,0,0,0,2" fill="#464a51"/>
          <path id="Trazado_986507" data-name="Trazado 986507" d="M42,14H35a1,1,0,0,0,0,2h7a1,1,0,0,0,0-2" fill="#464a51"/>
          <path id="Trazado_986508" data-name="Trazado 986508" d="M43,19a1,1,0,0,0-1-1H35a1,1,0,0,0,0,2h7a1,1,0,0,0,1-1" fill="#464a51"/>
          <path id="Trazado_986509" data-name="Trazado 986509" d="M35,22a1,1,0,0,0,0,2h3a1,1,0,0,0,0-2Z" fill="#464a51"/>
        </g>
      </g>
    </g>
  </g>
</svg>
